/* XPM */
static char *result[] = {
/* columns rows colors chars-per-pixel */
"90 90 188 2 ",
"   c #1A0000",
".  c #1F0000",
"X  c #000E1D",
"o  c #000F1E",
"O  c #00111E",
"+  c #00121F",
"@  c #00131F",
"#  c #28100D",
"$  c #3F151E",
"%  c #301F1B",
"&  c #331E1E",
"*  c #011520",
"=  c #031621",
"-  c #041620",
";  c #001821",
":  c #041821",
">  c #051821",
",  c #061821",
"<  c #071821",
"1  c #0D1B22",
"2  c #0B1D24",
"3  c #171921",
"4  c #1A2326",
"5  c #24292A",
"6  c #372023",
"7  c #3C2D28",
"8  c #2C302E",
"9  c #2F332F",
"0  c #3C3129",
"q  c #323531",
"w  c #353833",
"e  c #363934",
"r  c #790506",
"t  c #412E2F",
"y  c #40342D",
"u  c #493E37",
"i  c #69302B",
"p  c #414239",
"a  c #45453C",
"s  c #46463C",
"d  c #47463C",
"f  c #4E443B",
"g  c #545243",
"h  c #565444",
"j  c #575545",
"k  c #52554B",
"l  c #5F5D4D",
"z  c #745144",
"x  c #726E59",
"c  c #77735E",
"v  c #737363",
"b  c #757260",
"n  c #777462",
"m  c #7D7860",
"M  c #7E7A63",
"N  c #797865",
"B  c #7F7B64",
"V  c #7E7C69",
"C  c #7C7C6A",
"Z  c #80070D",
"A  c #922C24",
"S  c #CA1516",
"D  c #914235",
"F  c #905442",
"G  c #935344",
"H  c #955C4C",
"J  c #817F6A",
"K  c #81806C",
"L  c #888369",
"P  c #89836A",
"I  c #8D876C",
"U  c #8D886D",
"Y  c #8E886D",
"T  c #99826E",
"R  c #908A6F",
"E  c #8E8C75",
"W  c #908B70",
"Q  c #918C71",
"!  c #908C72",
"~  c #918C72",
"^  c #928E73",
"/  c #938E73",
"(  c #908C74",
")  c #948F74",
"_  c #948F75",
"`  c #959076",
"'  c #969278",
"]  c #979378",
"[  c #979379",
"{  c #93937D",
"}  c #96957D",
"|  c #9E9279",
" . c #98947A",
".. c #98957A",
"X. c #99957B",
"o. c #99967B",
"O. c #99967C",
"+. c #9A967C",
"@. c #9A977C",
"#. c #9A977D",
"$. c #9A987D",
"%. c #9B997E",
"&. c #9C987E",
"*. c #9C997F",
"=. c #9D9A7F",
"-. c #83E64B",
";. c #87E74E",
":. c #8CE750",
">. c #98E756",
",. c #99E757",
"<. c #ACE75D",
"1. c #ADE75D",
"2. c #ADE75E",
"3. c #AFE75E",
"4. c #AFE75F",
"5. c #B0E75F",
"6. c #B2E861",
"7. c #B8E865",
"8. c #BAE866",
"9. c #BBE867",
"0. c #BCE867",
"q. c #BAE968",
"w. c #BBE969",
"e. c #BDE968",
"r. c #C1E96B",
"t. c #C3E96C",
"y. c #C4E96D",
"u. c #CCEA72",
"i. c #CDEA72",
"p. c #D1EB79",
"a. c #D2EB79",
"s. c #D3EB7A",
"d. c #D3EB7C",
"f. c #989780",
"g. c #9C9980",
"h. c #9C9A80",
"j. c #9D9A80",
"k. c #9C9B80",
"l. c #9D9B80",
"z. c #9E9A80",
"x. c #9E9B81",
"c. c #9E9C81",
"v. c #9F9C82",
"b. c #9F9D83",
"n. c #A09D83",
"m. c #A09E83",
"M. c #A09E84",
"N. c #A19E84",
"B. c #A09F85",
"V. c #A19F85",
"C. c #A2A086",
"Z. c #A3A087",
"A. c #A3A187",
"S. c #A1A088",
"D. c #A3A288",
"F. c #A3A38A",
"G. c #A7A088",
"H. c #A4A288",
"J. c #A4A389",
"K. c #A5A48A",
"L. c #A5A58B",
"P. c #A6A58B",
"I. c #A5A58C",
"U. c #A6A68C",
"Y. c #A7A68C",
"T. c #A7A78D",
"R. c #A8A78D",
"E. c #A8A88E",
"W. c #A9A88E",
"Q. c #A9A98F",
"!. c #AAAA90",
"~. c #AAAB91",
"^. c #ABAB91",
"/. c #DAED82",
"(. c #DAED83",
"). c #DBED86",
"_. c #DCED85",
"`. c #DFEE89",
"'. c #DFEDA1",
"]. c #EBEFB7",
"[. c #E9EFBE",
"{. c #E9EFBF",
"}. c #EFF1B9",
"|. c #F2F1C0",
" X c #F4F1D4",
".X c #F9F2D9",
"XX c #FBF2E2",
"oX c None",
/* pixels */
"oXoXoXoXoXoXoXoXoXoXoXoXoXoXoXoXoXoXoXoXoXoXoXoXoXoXoXoXoXoXoXoXoXoXoXoXoXoXoXoXoXoXoXoXoXoXoXoXoXoXoXoXoXoXoXoXoXoXoXoXoXoXoXoXoXoXoXoXoXoXoXoXoXoXoXoXoXoXoXoXoXoXoXoXoXoXoXoXoXoX",
"oXoXoXoXoXoXoXoXoXoXoXoXoXoXoXoXoXoXoXoXoXoXoXoXoXoXoXoXoXoXoXoXoXoXoXoXoXoXoXoXoXoXoXoXoXoXoXoXoXoXoXoXoXoXoXoXoXoXoXoXoXoXoXoXoXoXoXoXoXoXoXoXoXoXoXoXoXoXoXoXoXoXoXoXoXoXoXoXoXoX",
"oXoXoXoXoXoXoXoXoXoXoXoXoXoXoXoXoXoXoXoXoXoXoXoXoXoXoXoXoXoXoXoXoXoXoXoXoXoXoXoXoXoXoXoXoXoXoXoXoXoXoXoXoXoXoXoXoXoXoXoXoXoXoXoXoXoXoXoXoXoXoXoXoXoXoXoXoXoXoXoXoXoXoXoXoXoXoXoXoXoX",
"oXoXoXoXoXoXoXoXoXoXoXoXoXoXoXoXoXoXoXoXoXoXoXoXoXoXoXoXoXoXoXoXoXoXoXoXoXoXoXoXoXoXoXoXoXoXoXoXoXoXoXoXoXoXoXoXoXoXoXoXoXoXoXoXoXoXoXoXoXoXoXoXoXoXoXoXoXoXoXoXoXoXoXoXoXoXoXoXoXoX",
"oXoXoXoXoXoXoXoXoXoXoXoXoXoXoXoXoXoXoXoXoXoXoXoXoXoXoXoXoXoXoXoXoXoXoXoXoXoXoXoXoXoXoXoXoXoXoXoXoXoXoXoXoXoXoXoXoXoXoXoXoXoXoXoXoXoXoXoXoXoXoXoXoXoXoXoXoXoXoXoXoXoXoXoXoXoXoXoXoXoX",
"oXoXoXoXoXoXoXoXoXoXoXoXoXoXoXoXoXoXoXoXoXoXoXoXoXoXoXoXoXoXoXoXoXoXoXoXoXoXoXoXoXoXoXoXoXoXoXoXoXoXoXoXoXoXoXoXoXoXoXoXoXoXoXoXoXoXoXoXoXoXoXoXoXoXoXoXoXoXoXoXoXoXoXoXoXoXoXoXoXoX",
"oXoXoXoXoXoXoXoXoXoXoXoXoXoXoXoXoXoXoXoXoXoXoXoXoXoXoXoXoXoXoXoXoXoXoXoXoXoXW.!.oXoXoXoXoX!.~.^ m.!.oXoXoXoXoXoXoXoXoXoXoXoXoXoXoXoXoXoXoXoXoXoXoXoXoXoXoXoXoXoXoXoXoXoXoXoXoXoXoXoX",
"oXoXoXoXoXoXoXoXoXoXoXoXoXoXoXoXoXoXoXoXoXoXoXoXoXoXoXoXoXoXoXoXoXoXoXoXoXv.M.N.R.v.oXoX!.!.D.A.!.!.!.Q.oXoXoXoXoXoXoXoXoXoXoXoXoXoXoXoXoXoXoXoXoXoXoXoXoXoXoXoXoXoXoXoXoXoXoXoXoXoX",
"oXoXoXoXoXoXoXoXoXoXoXoXoXoXoXoXoXoXoXoXoXoXoXoXoXoXoXoXoXoXoXoXoXoXoXoXY.P.V.H.H.v.oX!.!.!.j.R.!.!.D.#.D.oXoXoXoXoXoXoXoXoXoXoXoXoXoXoXoXoXoXoXoXoXoXoXoXoXoXoXoXoXoXoXoXoXoXoXoXoX",
"oXoXoXoXoXoXoXoXoXoXoXoXoXoXoXoXoXoXoXoXoXoXoXoXoXoXoXoXoXoXoXoXoXoXoXoXb.n.P.!.A.H.R.c.E.Y.' Q.K.P.m.!.!.!.oXoXoXoXoXoXoXoXoXoXoXoXoXoXoXoXoXoXoXoXoXoXoXoXoXoXoXoXoXoXoXoXoXoXoXoX",
"oXoXoXoXoXoXoXoXoXoXoXoXoXoXoXoXoXoXoXoXoXoXoXoXoXoXoXoXoXoXoXoXoXoXoXoXR.!.!.H.Q.^.^.J.h.A...x.D.b.R.!.!.K.oXoXoXoXoXoXoXoXoXoXoXoXoXoXoXoXoXoXoXoXoXoXoXoXoXoXoXoXoXoXoXoXoXoXoXoX",
"oXoXoXoXoXoXoXoXoXoXoXoXoXoXoXoXoXoXoXoXoXoXoXoXoXoXoXoXoXoXoXoXoXoXoX!.!.!.J.!.!.V 0 I.L.+.+.*.[ v.J.K..._ oXoXoXoXoXoXoXoXoXoXoXoXoXoXoXoXoXoXoXoXoXoXoXoXoXoXoXoXoXoXoXoXoXoXoXoX",
"oXoXoXoXoXoXoXoXoXoXoXoXoXoXoXoXoXoXoXoXoXoXoXoXoXoXoXP.W.oXoXoXoXoX!.!.^.N ^.!.b   r T P.W W Q R / o.A.E.!.!.oXoXoXoXoXoXoXoXoXoXoXoXoXoXoXoXoXoXoXoXoXoXoXoXoXoXoXoXoXoXoXoXoXoXoX",
"oXoXoXoXoXoXoXoXoXoXoXoXoXoXoXoXoXoXoXoXoXoXoXoXoXoXJ.*.C.C.oXoXoX!.F.f K E.!.^.z S A B.$.] R.R.R.K.l.!.!.!.M.oXoXoXoXoXoXoXoXoXoXoXoXoXoXoXoXoXoXoXoXoXoXoXoXoXoXoXoXoXoXoXoXoXoXoX",
"oXoXoXoXoXoXoXoXoXoXoXoXoXoXoXoXoXoXoXoXoXoXoXoXoXv.v.I R @.!.oXoX{ u 7 U.!.!.!.G.H D k.E.z.h j g g.+.J./ Y.v.oXoXoXoXoXoXoXoXoXoXoXoXoXoXoXoXoXoXoXoXoXoXoXoXoXoXoXoXoXoXoXoXoXoXoX",
"oXoXoXoXoXoXoXoXoXoXoXoXoXoXoXoXoXoXoXoXoXoXoXoXoXv./ oXoX` x.R.v 6 t n ^.!.!.!.P.F U c.T.c * = k O.n.*.T.%.H.oXoXoXoXoXoXoXoXoXoXoXoXoXoXoXoXoXoXoXoXoXoXoXoXoXoXoXoXoXoXoXoXoXoXoX",
"oXoXoXoXoXoXoXoXoXoXoXoXoXoXoXoXoXoXoXoXoXoXoXoXoXoXI oXoXoXI M.y & % S.!.!.!.Y.G 3 L  .K.~ e w C !.X.=.D.P.oXoXoXoXoXoXoXoXoXoXoXoXoXoXoXoXoXoXoXoXoXoXoXoXoXoXoXoXoXoXoXoXoXoXoXoX",
"oXoXoXoXoXoXoXoXoXoXoXoXoXoXoXoXoXoXoXoXoXoXoXoXoXoXI oXoXoXI X.# . f.!.!.!.P.| i o P C.M.K.[ ) Y.H.J.#.R.Z.oXoXoXoXoXoXoXoXoXoXoXoXoXoXoXoXoXoXoXoXoXoXoXoXoXoXoXoXoXoXoXoXoXoXoXoX",
"oXoXoXoXoXoXoXoXoXoXoXoXoXoXoXoXoXoXoXoXoXoXoXoXoXoXoXoXoXoXoXI ( } H.&.&.#.E 2 Z ; 5 ! =.O.!.Q.#.!.R.] v.m oXoXoXoXoXoXoXoXoXoXoXoXoXoXoXoXoXoXoXoXoXoXoXoXoXoXoXoXoXoXoXoXoXoXoXoX",
"oXoXoXoXoXoXoXoXoXoXoXoXoXoXoXoXoXoXoXoXoXoXoXoXoXoXoXoXoXoXoXoXY ~ M a s p O > $ : < 9 U n.V.V.' V.x.*.l + oXoXoXoXoXoXoXoXoXoXoXoXoXoXoXoXoXoXoXoXoXoXoXoXoXoXoXoXoXoXoXoXoXoXoXoX",
"oXoXoXoXoXoXoXoXoXoXoXoXoXoXoXoXoXoXoXoXoXoXoXoXoXoXoXoXoXoXoXoXoXoX@ < < < < < < < < < 8 x B W +.J d X - < oXoXoXoXoXoXoXoXoXoXoXoXoXoXoXoXoXoXoXoXoXoXoXoXoXoXoXoXoXoXoXoXoXoXoXoX",
"oXoXoXoXoXoXoXoXoXoXoXoXoXoXoXoXoXoXoXoXoXoXoXoXoXoXoXoXoXoXoXoXoX< < oXoXoXoXoXoX< < < < , 4 q q 1 < < < < < < oXoXoXoXoXoXoXoXoXoXoXoXoXoXoXoXoXoXoXoXoXoXoXoXoXoXoXoXoXoXoXoXoXoX",
"oXoXoXoXoXoXoXoXoXoXoXoXoXoXoXoXoXoXoXoXoXoXoXoXoXoXoXoXoXoXoXoX< oXoXoXoXoXoXoXoXoXoX< < < < < < < < < < < < < < oXoXoXoXoXoXoXoXoXoXoXoXoXoXoXoXoXoXoXoXoXoXoXoXoXoXoXoXoXoXoXoXoX",
"oXoXoXoXoXoXoXoXoXoXoXoXoXoXoXoXoXoXoXoXoXoXoXoXoXoXoXoXoXoXoX< oXoXoXoXoXoXoXoXoXoXoXoX< < < < < < < < < < < < < < oXoXoXoXoXoXoXoXoXoXoXoXoXoXoXoXoXoXoXoXoXoXoXoXoXoXoXoXoXoXoXoX",
"oXoXoXoXoXoXoXoXoXoXoXoXoXoXoXoXoXoXoXoXoXoXoXoXoXoXoXoXoXoXoXoXoXoXoXoXoXoXoXoXoXoXoXoXoX< < < < < < < < < < < < < < < oXoXoXoXoXoXoXoXoXoXoXoXoXoXoXoXoXoXoXoXoXoXoXoXoXoXoXoXoXoX",
"oXoXoXoXoXoXoXoXoXoXoXoXoXoXoXoXoXoXoXoXoXoXoXoXoXoXoXoXoXoXoXoXoXoXoXoXw.oXoXoXoXoXoXoXoX< < < < < < < < < < < < < < < < oXoXoXoXoXoXoXoXoXoXoXoXoXoXoXoXoXoXoXoXoXoXoXoXoXoXoXoXoX",
"oXoXoXoXoXoXoXoXoXoXoXoXoXoXoXoXoXoXoXoXoXoXoXoXoXoXoXoXoXoXoXoXoXoXoXoX,.oXoXoXoXoXoXoXoXoX< < < < < < < < < < < < < < < < oXoXoXoXoXoXoXoXoXoXoXoXoXoXoXoXoXoXoXoXoXoXoXoXoXoXoXoX",
"oXoXoXoXoXoXoXoXoXoXoXoXoXoXoXoXoXoXoXoXoXoXoXoXoXoXoXoXoXoXoXoXoXoXoXoXoX9.oXoXoXoXoXoXoXoX< < < < < < < < < < < < < < < < < oXoXoXoXoXoXoXoXoXoXoXoXoXoXoXoXoXoXoXoXoXoXoXoXoXoXoX",
"oXoXoXoXoXoXoXoXoXoXoXoXoXoXoXoXoXoXoXoXoXoXoXoXoXoXoXoXoXoXoXoXoXoXoX;.oX<.8.oXoXoXoXoXoXoXoX< < < < < < < < < < < < < < < < < oXoXoXoXoXoXoXoXoXoXoXoXoXoXoXoXoXoXoXoXoXoXoXoXoXoX",
"oXoXoXoXoXoXoXoXoXoXoXoXoXoXoXoXoXoXoXoXoXoXoXoXoXoXoXoXoXoXoXoXoXoXoX-.oX3.6.7.oXoXoXoXoXoXoX< < < < < < < < < < < < < < < < < oXoXoXoXoXoXoXoXoXoXoXoXoXoXoXoXoXoXoXoXoXoXoXoXoXoX",
"oXoXoXoXoXoXoXoXoXoXoXoXoXoXoXoXoXoXoXoXoXoXoXoXoXoXoXoXoXoXoXoXoXoXoX:.7.4.u.5.t.>.oXoXoXoXoX< < < < < < < < < < < < < < < < < oXoXoXoXoXoXoXoXoXoXoXoXoXoXoXoXoXoXoXoXoXoXoXoXoXoX",
"oXoXoXoXoXoXoXoXoXoXoXoXoXoXoXoXoXoXoXoXoXoXoXoXoXoXoXoXoXoXoXoXoXoXoXoX1.t.i.<.8.oXoXoXoXoXoX< < < < < < < < < < < < < < < < < < oXoXoXoXoXoXoXoXoXoXoXoXoXoXoXoXoXoXoXoXoXoXoXoXoX",
"oXoXoXoXoXoXoXoXoXoXoXoXoXoXoXoXoXoXoXoXoXoXoXoXoXoXoXoXoXoXoXoXoXoXoX2.r.a.a.0.i.oXoXoXoXoXoX< < < < < < < < < < < < < < < < < < oXoXoXoXoXoXoXoXoXoXoXoXoXoXoXoXoXoXoXoXoXoXoXoXoX",
"oXoXoXoXoXoXoXoXoXoXoXoXoXoXoXoXoXoXoXoXoXoXoXoXoXoXoXoXoXoXoXoXoXoXe.y.s._.).(.q.oXoXoXoXoXoX< < < < < < < < < < < < < < < < < < < oXoXoXoXoXoXoXoXoXoXoXoXoXoXoXoXoXoXoXoXoXoXoXoX",
"oXoXoXoXoXoXoXoXoXoXoXoXoXoXoXoXoXoXoXoXoXoXoXoXoXoXoXoXoXoXoXoXoXoXr.p.`.|..X}.d.oXoXoXoXoX< < < < < < < < < < < < < < < < < < < < oXoXoXoXoXoXoXoXoXoXoXoXoXoXoXoXoXoXoXoXoXoXoXoX",
"oXoXoXoXoXoXoXoXoXoXoXoXoXoXoXoXoXoXoXoXoXoXoXoXoXoXoX< < < oXoXoXoXoX/.].XXXX XoXoXoXoXoX< < < < < < < < < < < < < < < < < < < < < < oXoXoXoXoXoXoXoXoXoXoXoXoXoXoXoXoXoXoXoXoXoXoX",
"oXoXoXoXoXoXoXoXoXoXoXoXoXoXoXoXoXoXoXoXoXoXoXoXoXoXoX< < < oXoXoXoXoXoX'.[.{.oXoXoXoXoXoX< < < < < < < < < < < < < < < < < < < < < < < oXoXoXoXoXoXoXoXoXoXoXoXoXoXoXoXoXoXoXoXoXoX",
"oXoXoXoXoXoXoXoXoXoXoXoXoXoXoXoXoXoXoXoXoXoXoXoXoXoXoX< < < < oXoXoXoXoXoXoXoXoXoXoXoXoX< < < < < < < < < < < < < < < < < < < < < < < < oXoXoXoXoXoXoXoXoXoXoXoXoXoXoXoXoXoXoXoXoXoX",
"oXoXoXoXoXoXoXoXoXoXoXoXoXoXoXoXoXoXoXoXoXoXoXoXoXoXoX< < < < < oXoXoXoXoXoXoXoXoXoXoX< < < < < < < < < < < < < < < < < < < < < < < < < < oXoXoXoXoXoXoXoXoXoXoXoXoXoXoXoXoXoXoXoXoX",
"oXoXoXoXoXoXoXoXoXoXoXoXoXoXoXoXoXoXoXoXoXoXoXoXoXoXoX< < < < < < oXoXoXoXoXoXoXoX< < < < < < < < < < < < < < < < < < < < < < < < < < < < < oXoXoXoXoXoXoXoXoXoXoXoXoXoXoXoXoXoXoXoX",
"oXoXoXoXoXoXoXoXoXoXoXoXoXoXoXoXoXoXoXoXoXoXoXoXoXoXoXoX< < < < < < < oXoXoXoX< < < < < < < < < < < < < < < < < < < < < < < < < < < < < < oXoXoXoXoXoXoXoXoXoXoXoXoXoXoXoXoXoXoXoXoX",
"oXoXoXoXoXoXoXoXoXoXoXoXoXoXoXoXoXoXoXoXoXoXoXoXoXoXoXoX< < < < < < < < < < < < < < < < < < < < < < < < < < < < < < < < < < < < < < < < < oXoXoXoXoXoXoXoXoXoXoXoXoXoXoXoXoXoXoXoXoX",
"oXoXoXoXoXoXoXoXoXoXoXoXoXoXoXoXoXoXoXoXoXoXoXoXoXoXoXoX< < < < < < < < < < < < < < < < < < < < < < < < < < < < < < < < < < < < < < < < < oXoXoXoXoXoXoXoXoXoXoXoXoXoXoXoXoXoXoXoXoX",
"oXoXoXoXoXoXoXoXoXoXoXoXoXoXoXoXoXoXoXoXoXoXoXoXoXoXoXoX< < < < < < < < < < < < < < < < < < < < < < < < < < < < < < < < < < < < < < < < < oXoXoXoXoXoXoXoXoXoXoXoXoXoXoXoXoXoXoXoXoX",
"oXoXoXoXoXoXoXoXoXoXoXoXoXoXoXoXoXoXoXoXoXoXoXoXoXoXoXoX< < < < < < < < < < < < < < < < < < < < < < < < < < < < < oXoXoXoX< < < < < < < oXoXoXoXoXoXoXoXoXoXoXoXoXoXoXoXoXoXoXoXoXoX",
"oXoXoXoXoXoXoXoXoXoXoXoXoXoXoXoXoXoXoXoXoXoXoXoXoXoXoXoX< < < < < < < < < < < < < < < < < < < < < < < < < < < < oXoXoXoXoXoX< < < < < < oXoXoXoXoXoXoXoXoXoXoXoXoXoXoXoXoXoXoXoXoXoX",
"oXoXoXoXoXoXoXoXoXoXoXoXoXoXoXoXoXoXoXoXoXoXoXoXoXoXoXoX< < < < < < < < < < < < < < < < < < < < < < < < < < < oXoXoXoXoXoXoX< < < < < < oXoXoXoXoXoXoXoXoXoXoXoXoXoXoXoXoXoXoXoXoXoX",
"oXoXoXoXoXoXoXoXoXoXoXoXoXoXoXoXoXoXoXoXoXoXoXoXoXoXoXoX< < < < < < < < < < < < < < < < < < < < < < < < < < oXoXoXoXoXoXoXoX< < < < < < oXoXoXoXoXoXoXoXoXoXoXoXoXoXoXoXoXoXoXoXoXoX",
"oXoXoXoXoXoXoXoXoXoXoXoXoXoXoXoXoXoXoXoXoXoXoXoXoXoX< < < < < < < < < < < < < < < < < < < < < < < < < < < < oXoXoXoXoXoXoXoX< < < < < < oXoXoXoXoXoXoXoXoXoXoXoXoXoXoXoXoXoXoXoXoXoX",
"oXoXoXoXoXoXoXoXoXoXoXoXoXoXoXoXoXoXoXoXoXoXoXoXoX< < < < < < < < < < < < < < < < < < < < < < < < < < < < oXoXoXoXoXoXoXoXoX< < < < < < oXoXoXoXoXoXoXoXoXoXoXoXoXoXoXoXoXoXoXoXoXoX",
"oXoXoXoXoXoXoXoXoXoXoXoXoXoXoXoXoXoXoXoXoXoXoXoX< < < oXoXoXoXoXoX< < < < < < < < < < < < < < < < < < < < oXoXoXoXoXoXoXoXoX< < < < < < oXoXoXoXoXoXoXoXoXoXoXoXoXoXoXoXoXoXoXoXoXoX",
"oXoXoXoXoXoXoXoXoXoXoXoXoXoXoXoXoXoXoXoXoXoXoXoX< < oXoXoXoXoXoXoXoX< < < < < < < < < < < < < < < < < < oXoXoXoXoXoXoXoXoXoX< < < < < < oXoXoXoXoXoXoXoXoXoXoXoXoXoXoXoXoXoXoXoXoXoX",
"oXoXoXoXoXoXoXoXoXoXoXoXoXoXoXoXoXoXoXoXoXoXoX< < < oXoXoXoXoXoXoXoXoX< < < < < < < < < < < < < < < < < oXoXoXoXoXoXoXoXoXoX< < < < < < < oXoXoXoXoXoXoXoXoXoXoXoXoXoXoXoXoXoXoXoXoX",
"oXoXoXoXoXoXoXoXoXoXoXoXoXoXoXoXoXoXoXoXoXoXoX< < oXoXoXoXoXoXoXoXoXoXoX< < < < < < < < < < < < < < < < oXoXoXoXoXoXoXoXoXoX< < < < < < < oXoXoXoXoXoXoXoXoXoXoXoXoXoXoXoXoXoXoXoXoX",
"oXoXoXoXoXoXoXoXoXoXoXoXoXoXoXoXoXoXoXoXoXoXoX< < oXoXoXoXoXoXoXoXoXoXoXoX< < < < < < < < < < < < < < < oXoXoXoXoXoXoXoXoXoX< < < < < < < oXoXoXoXoXoXoXoXoXoXoXoXoXoXoXoXoXoXoXoXoX",
"oXoXoXoXoXoXoXoXoXoXoXoXoXoXoXoXoXoXoXoXoXoXoX< < oXoXoXoXoXoXoXoXoXoXoXoXoX< < < < < < < < < < < < < < oXoXoXoXoXoXoXoXoXoX< < < < < < < oXoXoXoXoXoXoXoXoXoXoXoXoXoXoXoXoXoXoXoXoX",
"oXoXoXoXoXoXoXoXoXoXoXoXoXoXoXoXoXoXoXoXoXoX< < oXoXoXoXoXoXoXoXoXoXoXoXoXoX< < < < < < < < < < < < < oXoXoXoXoXoXoXoXoXoXoXoX< < < < < < oXoXoXoXoXoXoXoXoXoXoXoXoXoXoXoXoXoXoXoXoX",
"oXoXoXoXoXoXoXoXoXoXoXoXoXoXoXoXoXoXoXoXoX< < oXoXoXoXoXoXoXoXoXoXoXoXoXoXoX< < < < < < < < < < < < < oXoXoXoXoXoXoXoXoXoXoXoX< < < < < < oXoXoXoXoXoXoXoXoXoXoXoXoXoXoXoXoXoXoXoXoX",
"oXoXoXoXoXoXoXoXoXoXoXoXoXoXoXoXoXoXoXoXoX< oXoXoXoXoXoXoXoXoXoXoXoXoXoXoXoXoX< < < < < < < < < < < < oXoXoXoXoXoXoXoXoXoXoXoXoX< < < < < oXoXoXoXoXoXoXoXoXoXoXoXoXoXoXoXoXoXoXoXoX",
"oXoXoXoXoXoXoXoXoXoXoXoXoXoXoXoXoXoXoX< < oXoXoXoXoXoXoXoXoXoXoXoXoXoXoXoXoXoX< < < < < < < < < < < oXoXoXoXoXoXoXoXoXoXoXoXoXoX< < < < < oXoXoXoXoXoXoXoXoXoXoXoXoXoXoXoXoXoXoXoXoX",
"oXoXoXoXoXoXoXoXoXoXoXoXoXoXoXoXoXoXoX< < oXoXoXoXoXoXoXoXoXoXoXoXoXoXoXoXoXoXoX< < < < < < < < < < oXoXoXoXoXoXoXoXoXoXoXoXoXoXoX< < < < oXoXoXoXoXoXoXoXoXoXoXoXoXoXoXoXoXoXoXoXoX",
"oXoXoXoXoXoXoXoXoXoXoXoXoXoXoXoXoXoX< < < oXoXoXoXoXoXoXoXoXoXoXoXoXoXoXoXoXoXoX< < < < < < < < < < oXoXoXoXoXoXoXoXoXoXoXoXoXoXoX< < < < oXoXoXoXoXoXoXoXoXoXoXoXoXoXoXoXoXoXoXoXoX",
"oXoXoXoXoXoXoXoXoXoXoXoXoXoXoXoXoXoX< < oXoXoXoXoXoXoXoXoXoXoXoXoXoXoXoXoXoXoXoX< < < < < < < < < < oXoXoXoXoXoXoXoXoXoXoXoXoXoXoXoX< < < < oXoXoXoXoXoXoXoXoXoXoXoXoXoXoXoXoXoXoXoX",
"oXoXoXoXoXoXoXoXoXoXoXoXoXoXoXoXoXoX< < oXoXoXoXoXoXoXoXoXoXoXoXoXoXoXoXoXoXoXoX< < < < < < < < < < oXoXoXoXoXoXoXoXoXoXoXoXoXoXoXoX< < < < oXoXoXoXoXoXoXoXoXoXoXoXoXoXoXoXoXoXoXoX",
"oXoXoXoXoXoXoXoXoXoXoXoXoXoXoXoXoXoX< < oXoXoXoXoXoXoXoXoXoXoXoXoXoXoXoXoXoXoX< < < < < < < < < < < oXoXoXoXoXoXoXoXoXoXoXoXoXoXoXoXoX< < < < oXoXoXoXoXoXoXoXoXoXoXoXoXoXoXoXoXoXoX",
"oXoXoXoXoXoXoXoXoXoXoXoXoXoXoXoXoX< < < oXoXoXoXoXoXoXoXoXoXoXoXoXoXoXoXoXoXoX< < < < < < < < < < < oXoXoXoXoXoXoXoXoXoXoXoXoXoXoXoXoXoX< < < < < oXoXoXoXoXoXoXoXoXoXoXoXoXoXoXoXoX",
"oXoXoXoXoXoXoXoXoXoXoXoXoXoXoXoXoX< < < oXoXoXoXoXoXoXoXoXoXoXoXoXoXoXoXoXoX< < < < < < < < < < < < oXoXoXoXoXoXoXoXoXoXoXoXoXoXoXoXoXoX< < < < < oXoXoXoXoXoXoXoXoXoXoXoXoXoXoXoXoX",
"oXoXoXoXoXoXoXoXoXoXoXoXoXoXoXoXoX< < < < oXoXoXoXoXoXoXoXoXoXoXoXoXoXoXoXoX< < < < < < < < < < < < oXoXoXoXoXoXoXoXoXoXoXoXoXoXoXoXoXoXoX< < < < < < oXoXoXoXoXoXoXoXoXoXoXoXoXoXoX",
"oXoXoXoXoXoXoXoXoXoXoXoXoXoXoXoX< < < < < oXoXoXoXoXoXoXoXoXoXoXoXoXoXoXoXoX< < < < < < < < < < < < oXoXoXoXoXoXoXoXoXoXoXoXoXoXoXoXoXoXoX< < < < < < < oXoXoXoXoXoXoXoXoXoXoXoXoXoX",
"oXoXoXoXoXoXoXoXoXoXoXoXoXoXoXoX< < < < < oXoXoXoXoXoXoXoXoXoXoXoXoXoXoXoXoX< < < < oX< < < < < < < oXoXoXoXoXoXoXoXoXoXoXoXoXoXoXoXoXoXoX< < < < < < oX< oXoXoXoXoXoXoXoXoXoXoXoXoX",
"oXoXoXoXoXoXoXoXoXoXoXoXoXoXoXoX< < < < < oXoXoXoXoXoXoXoXoXoXoXoXoXoXoXoXoX< < < < oX< < < < < < < oXoXoXoXoXoXoXoXoXoXoXoXoXoXoXoXoXoXoXoX< < < < < oX< oXoXoXoXoXoXoXoXoXoXoXoXoX",
"oXoXoXoXoXoXoXoXoXoXoXoXoXoXoXoXoX< < oX< < < oXoXoXoXoXoXoXoXoXoXoXoXoXoX< < < < oXoX< < < < < < < oXoXoXoXoXoXoXoXoXoXoXoXoXoXoXoXoXoXoXoXoX< < < < < oXoXoXoXoXoXoXoXoXoXoXoXoXoX",
"oXoXoXoXoXoXoXoXoXoXoXoXoXoXoXoXoX< < < oX< oXoXoXoXoXoXoXoXoXoXoXoXoXoXoX< < < < oXoX< < < < < < < oXoXoXoXoXoXoXoXoXoXoXoXoXoXoXoXoXoXoXoXoXoXoX< < < oXoXoXoXoXoXoXoXoXoXoXoXoXoX",
"oXoXoXoXoXoXoXoXoXoXoXoXoXoXoXoXoXoX< < < < oXoXoXoXoXoXoXoXoXoXoXoXoXoXoX< < < oXoXoXoX< < < < < < oXoXoXoXoXoXoXoXoXoXoXoXoXoXoXoXoXoXoXoXoXoXoXoXoX< < oXoXoXoXoXoXoXoXoXoXoXoXoX",
"oXoXoXoXoXoXoXoXoXoXoXoXoXoXoXoXoXoXoXoXoXoXoXoXoXoXoXoXoXoXoXoXoXoXoXoXoX< < oXoXoXoXoXoX< < < < < < oXoXoXoXoXoXoXoXoXoXoXoXoXoXoXoXoXoXoXoXoXoXoXoXoXoXoXoXoXoXoXoXoXoXoXoXoXoXoX",
"oXoXoXoXoXoXoXoXoXoXoXoXoXoXoXoXoXoXoXoXoXoXoXoXoXoXoXoXoXoXoXoXoXoXoXoX< < < oXoXoXoXoXoXoX< < < < < oXoXoXoXoXoXoXoXoXoXoXoXoXoXoXoXoXoXoXoXoXoXoXoXoXoXoXoXoXoXoXoXoXoXoXoXoXoXoX",
"oXoXoXoXoXoXoXoXoXoXoXoXoXoXoXoXoXoXoXoXoXoXoXoXoXoXoXoXoXoXoXoXoXoXoXoX< < < oXoXoXoXoXoXoXoX< < < < < oXoXoXoXoXoXoXoXoXoXoXoXoXoXoXoXoXoXoXoXoXoXoXoXoXoXoXoXoXoXoXoXoXoXoXoXoXoX",
"oXoXoXoXoXoXoXoXoXoXoXoXoXoXoXoXoXoXoXoXoXoXoXoXoXoXoXoXoXoXoXoXoXoXoXoX< < < oXoXoXoXoXoXoXoXoX< < < < oXoXoXoXoXoXoXoXoXoXoXoXoXoXoXoXoXoXoXoXoXoXoXoXoXoXoXoXoXoXoXoXoXoXoXoXoXoX",
"oXoXoXoXoXoXoXoXoXoXoXoXoXoXoXoXoXoXoXoXoXoXoXoXoXoXoXoXoXoXoXoXoXoXoX< < < oXoXoXoXoXoXoXoXoXoXoX< < < < < oXoXoXoXoXoXoXoXoXoXoXoXoXoXoXoXoXoXoXoXoXoXoXoXoXoXoXoXoXoXoXoXoXoXoXoX",
"oXoXoXoXoXoXoXoXoXoXoXoXoXoXoXoXoXoXoXoXoXoXoXoXoXoXoXoXoXoXoXoXoXoXoX< < < oXoXoXoXoXoXoXoXoXoXoXoX< < < < < oXoXoXoXoXoXoXoXoXoXoXoXoXoXoXoXoXoXoXoXoXoXoXoXoXoXoXoXoXoXoXoXoXoXoX",
"oXoXoXoXoXoXoXoXoXoXoXoXoXoXoXoXoXoXoXoXoXoXoXoXoXoXoXoXoXoXoXoXoXoXoX< < < oXoXoXoXoXoXoXoXoXoXoXoX< < < < < < oXoXoXoXoXoXoXoXoXoXoXoXoXoXoXoXoXoXoXoXoXoXoXoXoXoXoXoXoXoXoXoXoXoX",
"oXoXoXoXoXoXoXoXoXoXoXoXoXoXoXoXoXoXoXoXoXoXoXoXoXoXoXoXoXoXoXoXoXoX< < < < oXoXoXoXoXoXoXoXoXoXoXoXoX< < < < < oXoXoXoXoXoXoXoXoXoXoXoXoXoXoXoXoXoXoXoXoXoXoXoXoXoXoXoXoXoXoXoXoXoX",
"oXoXoXoXoXoXoXoXoXoXoXoXoXoXoXoXoXoXoXoXoXoXoXoXoXoXoXoXoXoXoXoXoXoX< < < oXoXoXoXoXoXoXoXoXoXoXoXoXoXoX< < < < < oXoXoXoXoXoXoXoXoXoXoXoXoXoXoXoXoXoXoXoXoXoXoXoXoXoXoXoXoXoXoXoXoX",
"oXoXoXoXoXoXoXoXoXoXoXoXoXoXoXoXoXoXoXoXoXoXoXoXoXoXoXoXoXoXoXoXoX< < < < oXoXoXoXoXoXoXoXoXoXoXoXoXoXoXoX< < < < oXoXoXoXoXoXoXoXoXoXoXoXoXoXoXoXoXoXoXoXoXoXoXoXoXoXoXoXoXoXoXoXoX",
"oXoXoXoXoXoXoXoXoXoXoXoXoXoXoXoXoXoXoXoXoXoXoXoXoXoXoXoXoXoXoXoXoX< < < < oXoXoXoXoXoXoXoXoXoXoXoXoXoXoXoXoX< < < < oXoXoXoXoXoXoXoXoXoXoXoXoXoXoXoXoXoXoXoXoXoXoXoXoXoXoXoXoXoXoXoX",
"oXoXoXoXoXoXoXoXoXoXoXoXoXoXoXoXoXoXoXoXoXoXoXoXoXoXoXoXoXoXoXoXoX< < < oXoXoXoXoXoXoXoXoXoXoXoXoXoXoXoXoXoXoXoX< < < oXoXoXoXoXoXoXoXoXoXoXoXoXoXoXoXoXoXoXoXoXoXoXoXoXoXoXoXoXoXoX",
"oXoXoXoXoXoXoXoXoXoXoXoXoXoXoXoXoXoXoXoXoXoXoXoXoXoXoXoXoXoXoXoXoX< < < oXoXoXoXoXoXoXoXoXoXoXoXoXoXoXoXoXoXoX< < < < oXoXoXoXoXoXoXoXoXoXoXoXoXoXoXoXoXoXoXoXoXoXoXoXoXoXoXoXoXoXoX",
"oXoXoXoXoXoXoXoXoXoXoXoXoXoXoXoXoXoXoXoXoXoXoXoXoXoXoXoX< < < < < < < < oXoXoXoXoXoXoXoXoXoXoXoXoXoXoXoXoXoX< < < < < < oXoXoXoXoXoXoXoXoXoXoXoXoXoXoXoXoXoXoXoXoXoXoXoXoXoXoXoXoXoX",
"oXoXoXoXoXoXoXoXoXoXoXoXoXoXoXoXoXoXoXoXoXoXoXoXoXoXoX< < < < < < < < oXoXoXoXoXoXoXoXoXoXoXoXoXoXoXoXoXoX< < < < < < oXoXoXoXoXoXoXoXoXoXoXoXoXoXoXoXoXoXoXoXoXoXoXoXoXoXoXoXoXoXoX",
"oXoXoXoXoXoXoXoXoXoXoXoXoXoXoXoXoXoXoXoXoXoXoXoXoXoXoXoX< < < < < < < oXoXoXoXoXoXoXoXoXoXoXoXoXoXoXoXoX< < < < < < oXoXoXoXoXoXoXoXoXoXoXoXoXoXoXoXoXoXoXoXoXoXoXoXoXoXoXoXoXoXoXoX"
};
