/* XPM */
static char *result[] = {
/* columns rows colors chars-per-pixel */
"90 90 188 2 ",
"   c #1A0000",
".  c #1F0000",
"X  c #000E1D",
"o  c #000F1E",
"O  c #00111E",
"+  c #00121F",
"@  c #00131F",
"#  c #28100D",
"$  c #3F151E",
"%  c #301F1B",
"&  c #331E1E",
"*  c #011520",
"=  c #031621",
"-  c #041620",
";  c #001821",
":  c #041821",
">  c #051821",
",  c #061821",
"<  c #071821",
"1  c #0D1B22",
"2  c #0B1D24",
"3  c #171921",
"4  c #1A2326",
"5  c #24292A",
"6  c #372023",
"7  c #3C2D28",
"8  c #2C302E",
"9  c #2F332F",
"0  c #3C3129",
"q  c #323531",
"w  c #353833",
"e  c #363934",
"r  c #790506",
"t  c #412E2F",
"y  c #40342D",
"u  c #493E37",
"i  c #69302B",
"p  c #414239",
"a  c #45453C",
"s  c #46463C",
"d  c #47463C",
"f  c #4E443B",
"g  c #545243",
"h  c #565444",
"j  c #575545",
"k  c #52554B",
"l  c #5F5D4D",
"z  c #745144",
"x  c #726E59",
"c  c #77735E",
"v  c #737363",
"b  c #757260",
"n  c #777462",
"m  c #7D7860",
"M  c #7E7A63",
"N  c #797865",
"B  c #7F7B64",
"V  c #7E7C69",
"C  c #7C7C6A",
"Z  c #80070D",
"A  c #922C24",
"S  c #CA1516",
"D  c #914235",
"F  c #905442",
"G  c #935344",
"H  c #955C4C",
"J  c #817F6A",
"K  c #81806C",
"L  c #888369",
"P  c #89836A",
"I  c #8D876C",
"U  c #8D886D",
"Y  c #8E886D",
"T  c #99826E",
"R  c #908A6F",
"E  c #8E8C75",
"W  c #908B70",
"Q  c #918C71",
"!  c #908C72",
"~  c #918C72",
"^  c #928E73",
"/  c #938E73",
"(  c #908C74",
")  c #948F74",
"_  c #948F75",
"`  c #959076",
"'  c #969278",
"]  c #979378",
"[  c #979379",
"{  c #93937D",
"}  c #96957D",
"|  c #9E9279",
" . c #98947A",
".. c #98957A",
"X. c #99957B",
"o. c #99967B",
"O. c #99967C",
"+. c #9A967C",
"@. c #9A977C",
"#. c #9A977D",
"$. c #9A987D",
"%. c #9B997E",
"&. c #9C987E",
"*. c #9C997F",
"=. c #9D9A7F",
"-. c #83E64B",
";. c #87E74E",
":. c #8CE750",
">. c #98E756",
",. c #99E757",
"<. c #ACE75D",
"1. c #ADE75D",
"2. c #ADE75E",
"3. c #AFE75E",
"4. c #AFE75F",
"5. c #B0E75F",
"6. c #B2E861",
"7. c #B8E865",
"8. c #BAE866",
"9. c #BBE867",
"0. c #BCE867",
"q. c #BAE968",
"w. c #BBE969",
"e. c #BDE968",
"r. c #C1E96B",
"t. c #C3E96C",
"y. c #C4E96D",
"u. c #CCEA72",
"i. c #CDEA72",
"p. c #D1EB79",
"a. c #D2EB79",
"s. c #D3EB7A",
"d. c #D3EB7C",
"f. c #989780",
"g. c #9C9980",
"h. c #9C9A80",
"j. c #9D9A80",
"k. c #9C9B80",
"l. c #9D9B80",
"z. c #9E9A80",
"x. c #9E9B81",
"c. c #9E9C81",
"v. c #9F9C82",
"b. c #9F9D83",
"n. c #A09D83",
"m. c #A09E83",
"M. c #A09E84",
"N. c #A19E84",
"B. c #A09F85",
"V. c #A19F85",
"C. c #A2A086",
"Z. c #A3A087",
"A. c #A3A187",
"S. c #A1A088",
"D. c #A3A288",
"F. c #A3A38A",
"G. c #A7A088",
"H. c #A4A288",
"J. c #A4A389",
"K. c #A5A48A",
"L. c #A5A58B",
"P. c #A6A58B",
"I. c #A5A58C",
"U. c #A6A68C",
"Y. c #A7A68C",
"T. c #A7A78D",
"R. c #A8A78D",
"E. c #A8A88E",
"W. c #A9A88E",
"Q. c #A9A98F",
"!. c #AAAA90",
"~. c #AAAB91",
"^. c #ABAB91",
"/. c #DAED82",
"(. c #DAED83",
"). c #DBED86",
"_. c #DCED85",
"`. c #DFEE89",
"'. c #DFEDA1",
"]. c #EBEFB7",
"[. c #E9EFBE",
"{. c #E9EFBF",
"}. c #EFF1B9",
"|. c #F2F1C0",
" X c #F4F1D4",
".X c #F9F2D9",
"XX c #FBF2E2",
"oX c None",
/* pixels */
"oXoXoXoXoXoXoXoXoXoXoXoXoXoXoXoXoXoXoXoXoXoXoXoXoXoXoXoXoXoXoXoXoXoXoXoXoXoXoXoXoXoXoXoXoXoXoXoXoXoXoXoXoXoXoXoXoXoXoXoXoXoXoXoXoXoXoXoXoXoXoXoXoXoXoXoXoXoXoXoXoXoXoXoXoXoXoXoXoXoX",
"oXoXoXoXoXoXoXoXoXoXoXoXoXoXoXoXoXoXoXoXoXoXoXoXoXoXoXoXoXoXoXoXoXoXoXoXoXoXoXoXoXoXoXoXoXoXoXoXoXoXoXoXoXoXoXoXoXoXoXoXoXoXoXoXoXoXoXoXoXoXoXoXoXoXoXoXoXoXoXoXoXoXoXoXoXoXoXoXoXoX",
"oXoXoXoXoXoXoXoXoXoXoXoXoXoXoXoXoXoXoXoXoXoXoXoXoXoXoXoXoXoXoXoXoXoXoXoXoXoXoXoXoXoXoXoXoXoXoXoXoXoXoXoXoXoXoXoXoXoXoXoXoXoXoXoXoXoXoXoXoXoXoXoXoXoXoXoXoXoXoXoXoXoXoXoXoXoXoXoXoXoX",
"oXoXoXoXoXoXoXoXoXoXoXoXoXoXoXoXoXoXoXoXoXoXoXoXoXoXoXoXoXoXoXoXoXoXoXoXoXoXoXoXoXoXoXoXoXoXoXoXoXoXoXoXoXoXoXoXoXoXoXoXoXoXoXoXoXoXoXoXoXoXoXoXoXoXoXoXoXoXoXoXoXoXoXoXoXoXoXoXoXoX",
"oXoXoXoXoXoXoXoXoXoXoXoXoXoXoXoXoXoXoXoXoXoXoXoXoXoXoXoXoXoXoXoXoXoXoXoXoXoXoXoXoXoXoXoXoXoXoXoXoXoXoXoXoXoXoXoXoXoXoXoXoXoXoXoXoXoXoXoXoXoXoXoXoXoXoXoXoXoXoXoXoXoXoXoXoXoXoXoXoXoX",
"oXoXoXoXoXoXoXoXoXoXoXoXoXoXoXoXoXoXoXoXoXoXoXoXoXoXoXoXoXoXoXoXoXoXoXoXoXoXoXoXoXoXoXoXoXoXoXoXoXoXoXoXoXoXoXoXoXoXoXoXoXoXoXoXoXoXoXoXoXoXoXoXoXoXoXoXoXoXoXoXoXoXoXoXoXoXoXoXoXoX",
"oXoXoXoXoXoXoXoXoXoXoXoXoXoXoXoXoXoXoXoXoXoXoXoXoXoXoXoXoXoXoXoXoXoXoXoXoXoXoXoX!.m.^ ~.!.oXoXoXoXoX!.W.oXoXoXoXoXoXoXoXoXoXoXoXoXoXoXoXoXoXoXoXoXoXoXoXoXoXoXoXoXoXoXoXoXoXoXoXoXoX",
"oXoXoXoXoXoXoXoXoXoXoXoXoXoXoXoXoXoXoXoXoXoXoXoXoXoXoXoXoXoXoXoXoXoXoXoXoXoXQ.!.!.!.A.D.!.!.oXoXv.R.N.M.v.oXoXoXoXoXoXoXoXoXoXoXoXoXoXoXoXoXoXoXoXoXoXoXoXoXoXoXoXoXoXoXoXoXoXoXoXoX",
"oXoXoXoXoXoXoXoXoXoXoXoXoXoXoXoXoXoXoXoXoXoXoXoXoXoXoXoXoXoXoXoXoXoXoXoXoXD.#.D.!.!.R.j.!.!.!.oXv.H.H.V.P.Y.oXoXoXoXoXoXoXoXoXoXoXoXoXoXoXoXoXoXoXoXoXoXoXoXoXoXoXoXoXoXoXoXoXoXoXoX",
"oXoXoXoXoXoXoXoXoXoXoXoXoXoXoXoXoXoXoXoXoXoXoXoXoXoXoXoXoXoXoXoXoXoXoXoX!.!.!.m.P.K.Q.' Y.E.c.R.H.A.!.P.n.b.oXoXoXoXoXoXoXoXoXoXoXoXoXoXoXoXoXoXoXoXoXoXoXoXoXoXoXoXoXoXoXoXoXoXoXoX",
"oXoXoXoXoXoXoXoXoXoXoXoXoXoXoXoXoXoXoXoXoXoXoXoXoXoXoXoXoXoXoXoXoXoXoXoXK.!.!.R.b.D.x...A.h.J.^.^.Q.H.!.!.R.oXoXoXoXoXoXoXoXoXoXoXoXoXoXoXoXoXoXoXoXoXoXoXoXoXoXoXoXoXoXoXoXoXoXoXoX",
"oXoXoXoXoXoXoXoXoXoXoXoXoXoXoXoXoXoXoXoXoXoXoXoXoXoXoXoXoXoXoXoXoXoXoXoX_ ..K.J.v.[ *.+.+.L.I.0 V !.!.J.!.!.!.oXoXoXoXoXoXoXoXoXoXoXoXoXoXoXoXoXoXoXoXoXoXoXoXoXoXoXoXoXoXoXoXoXoXoX",
"oXoXoXoXoXoXoXoXoXoXoXoXoXoXoXoXoXoXoXoXoXoXoXoXoXoXoXoXoXoXoXoXoXoXoX!.!.E.A.o./ R Q W W P.T r   b !.^.N ^.!.!.oXoXoXoXoXW.P.oXoXoXoXoXoXoXoXoXoXoXoXoXoXoXoXoXoXoXoXoXoXoXoXoXoXoX",
"oXoXoXoXoXoXoXoXoXoXoXoXoXoXoXoXoXoXoXoXoXoXoXoXoXoXoXoXoXoXoXoXoXoXoXM.!.!.!.l.K.R.R.R.] $.B.A S z ^.!.E.K f F.!.oXoXoXC.C.*.J.oXoXoXoXoXoXoXoXoXoXoXoXoXoXoXoXoXoXoXoXoXoXoXoXoXoX",
"oXoXoXoXoXoXoXoXoXoXoXoXoXoXoXoXoXoXoXoXoXoXoXoXoXoXoXoXoXoXoXoXoXoXoXv.Y./ J.+.g.g j h z.E.k.D H G.!.!.!.U.7 u { oXoX!.@.R I v.v.oXoXoXoXoXoXoXoXoXoXoXoXoXoXoXoXoXoXoXoXoXoXoXoXoX",
"oXoXoXoXoXoXoXoXoXoXoXoXoXoXoXoXoXoXoXoXoXoXoXoXoXoXoXoXoXoXoXoXoXoXoXH.%.T.*.n.O.k = * c T.c.U F P.!.!.!.^.n t 6 v R.x.` oXoX/ v.oXoXoXoXoXoXoXoXoXoXoXoXoXoXoXoXoXoXoXoXoXoXoXoXoX",
"oXoXoXoXoXoXoXoXoXoXoXoXoXoXoXoXoXoXoXoXoXoXoXoXoXoXoXoXoXoXoXoXoXoXoXoXP.D.=.X.!.C w e ~ K. .L 3 G Y.!.!.!.S.% & y M.I oXoXoXI oXoXoXoXoXoXoXoXoXoXoXoXoXoXoXoXoXoXoXoXoXoXoXoXoXoX",
"oXoXoXoXoXoXoXoXoXoXoXoXoXoXoXoXoXoXoXoXoXoXoXoXoXoXoXoXoXoXoXoXoXoXoXoXZ.R.#.J.H.Y.) [ K.M.C.P o i | P.!.!.!.f.. # X.I oXoXoXI oXoXoXoXoXoXoXoXoXoXoXoXoXoXoXoXoXoXoXoXoXoXoXoXoXoX",
"oXoXoXoXoXoXoXoXoXoXoXoXoXoXoXoXoXoXoXoXoXoXoXoXoXoXoXoXoXoXoXoXoXoXoXoXm v.] R.!.#.Q.!.O.=.! 5 ; Z 2 E #.&.&.H.} ( I oXoXoXoXoXoXoXoXoXoXoXoXoXoXoXoXoXoXoXoXoXoXoXoXoXoXoXoXoXoXoX",
"oXoXoXoXoXoXoXoXoXoXoXoXoXoXoXoXoXoXoXoXoXoXoXoXoXoXoXoXoXoXoXoXoXoXoXoX+ l *.x.V.' V.V.n.U 9 < : $ > O p s a M ~ Y oXoXoXoXoXoXoXoXoXoXoXoXoXoXoXoXoXoXoXoXoXoXoXoXoXoXoXoXoXoXoXoX",
"oXoXoXoXoXoXoXoXoXoXoXoXoXoXoXoXoXoXoXoXoXoXoXoXoXoXoXoXoXoXoXoXoXoXoXoX< - X d J +.W B x 8 < < < < < < < < < @ oXoXoXoXoXoXoXoXoXoXoXoXoXoXoXoXoXoXoXoXoXoXoXoXoXoXoXoXoXoXoXoXoXoX",
"oXoXoXoXoXoXoXoXoXoXoXoXoXoXoXoXoXoXoXoXoXoXoXoXoXoXoXoXoXoXoXoXoXoX< < < < < < 1 q q 4 , < < < < oXoXoXoXoXoX< < oXoXoXoXoXoXoXoXoXoXoXoXoXoXoXoXoXoXoXoXoXoXoXoXoXoXoXoXoXoXoXoXoX",
"oXoXoXoXoXoXoXoXoXoXoXoXoXoXoXoXoXoXoXoXoXoXoXoXoXoXoXoXoXoXoXoXoX< < < < < < < < < < < < < < oXoXoXoXoXoXoXoXoXoX< oXoXoXoXoXoXoXoXoXoXoXoXoXoXoXoXoXoXoXoXoXoXoXoXoXoXoXoXoXoXoXoX",
"oXoXoXoXoXoXoXoXoXoXoXoXoXoXoXoXoXoXoXoXoXoXoXoXoXoXoXoXoXoXoXoX< < < < < < < < < < < < < < oXoXoXoXoXoXoXoXoXoXoXoX< oXoXoXoXoXoXoXoXoXoXoXoXoXoXoXoXoXoXoXoXoXoXoXoXoXoXoXoXoXoXoX",
"oXoXoXoXoXoXoXoXoXoXoXoXoXoXoXoXoXoXoXoXoXoXoXoXoXoXoXoXoXoX< < < < < < < < < < < < < < < oXoXoXoXoXoXoXoXoXoXoXoXoXoXoXoXoXoXoXoXoXoXoXoXoXoXoXoXoXoXoXoXoXoXoXoXoXoXoXoXoXoXoXoXoX",
"oXoXoXoXoXoXoXoXoXoXoXoXoXoXoXoXoXoXoXoXoXoXoXoXoXoXoXoXoX< < < < < < < < < < < < < < < < oXoXoXoXoXoXoXoXw.oXoXoXoXoXoXoXoXoXoXoXoXoXoXoXoXoXoXoXoXoXoXoXoXoXoXoXoXoXoXoXoXoXoXoXoX",
"oXoXoXoXoXoXoXoXoXoXoXoXoXoXoXoXoXoXoXoXoXoXoXoXoXoXoXoX< < < < < < < < < < < < < < < < oXoXoXoXoXoXoXoXoX,.oXoXoXoXoXoXoXoXoXoXoXoXoXoXoXoXoXoXoXoXoXoXoXoXoXoXoXoXoXoXoXoXoXoXoXoX",
"oXoXoXoXoXoXoXoXoXoXoXoXoXoXoXoXoXoXoXoXoXoXoXoXoXoXoX< < < < < < < < < < < < < < < < < oXoXoXoXoXoXoXoX9.oXoXoXoXoXoXoXoXoXoXoXoXoXoXoXoXoXoXoXoXoXoXoXoXoXoXoXoXoXoXoXoXoXoXoXoXoX",
"oXoXoXoXoXoXoXoXoXoXoXoXoXoXoXoXoXoXoXoXoXoXoXoXoXoX< < < < < < < < < < < < < < < < < oXoXoXoXoXoXoXoX8.<.oX;.oXoXoXoXoXoXoXoXoXoXoXoXoXoXoXoXoXoXoXoXoXoXoXoXoXoXoXoXoXoXoXoXoXoXoX",
"oXoXoXoXoXoXoXoXoXoXoXoXoXoXoXoXoXoXoXoXoXoXoXoXoXoX< < < < < < < < < < < < < < < < < oXoXoXoXoXoXoX7.6.3.oX-.oXoXoXoXoXoXoXoXoXoXoXoXoXoXoXoXoXoXoXoXoXoXoXoXoXoXoXoXoXoXoXoXoXoXoX",
"oXoXoXoXoXoXoXoXoXoXoXoXoXoXoXoXoXoXoXoXoXoXoXoXoXoX< < < < < < < < < < < < < < < < < oXoXoXoXoX>.t.5.u.4.7.:.oXoXoXoXoXoXoXoXoXoXoXoXoXoXoXoXoXoXoXoXoXoXoXoXoXoXoXoXoXoXoXoXoXoXoX",
"oXoXoXoXoXoXoXoXoXoXoXoXoXoXoXoXoXoXoXoXoXoXoXoXoX< < < < < < < < < < < < < < < < < < oXoXoXoXoXoX8.<.i.t.1.oXoXoXoXoXoXoXoXoXoXoXoXoXoXoXoXoXoXoXoXoXoXoXoXoXoXoXoXoXoXoXoXoXoXoXoX",
"oXoXoXoXoXoXoXoXoXoXoXoXoXoXoXoXoXoXoXoXoXoXoXoXoX< < < < < < < < < < < < < < < < < < oXoXoXoXoXoXi.0.a.a.r.2.oXoXoXoXoXoXoXoXoXoXoXoXoXoXoXoXoXoXoXoXoXoXoXoXoXoXoXoXoXoXoXoXoXoXoX",
"oXoXoXoXoXoXoXoXoXoXoXoXoXoXoXoXoXoXoXoXoXoXoXoX< < < < < < < < < < < < < < < < < < < oXoXoXoXoXoXq.(.)._.s.y.e.oXoXoXoXoXoXoXoXoXoXoXoXoXoXoXoXoXoXoXoXoXoXoXoXoXoXoXoXoXoXoXoXoXoX",
"oXoXoXoXoXoXoXoXoXoXoXoXoXoXoXoXoXoXoXoXoXoXoXoX< < < < < < < < < < < < < < < < < < < < oXoXoXoXoXd.}..X|.`.p.r.oXoXoXoXoXoXoXoXoXoXoXoXoXoXoXoXoXoXoXoXoXoXoXoXoXoXoXoXoXoXoXoXoXoX",
"oXoXoXoXoXoXoXoXoXoXoXoXoXoXoXoXoXoXoXoXoXoXoX< < < < < < < < < < < < < < < < < < < < < < oXoXoXoXoX XXXXX]./.oXoXoXoXoX< < < oXoXoXoXoXoXoXoXoXoXoXoXoXoXoXoXoXoXoXoXoXoXoXoXoXoXoX",
"oXoXoXoXoXoXoXoXoXoXoXoXoXoXoXoXoXoXoXoXoXoX< < < < < < < < < < < < < < < < < < < < < < < oXoXoXoXoXoX{.[.'.oXoXoXoXoXoX< < < oXoXoXoXoXoXoXoXoXoXoXoXoXoXoXoXoXoXoXoXoXoXoXoXoXoXoX",
"oXoXoXoXoXoXoXoXoXoXoXoXoXoXoXoXoXoXoXoXoXoX< < < < < < < < < < < < < < < < < < < < < < < < oXoXoXoXoXoXoXoXoXoXoXoXoX< < < < oXoXoXoXoXoXoXoXoXoXoXoXoXoXoXoXoXoXoXoXoXoXoXoXoXoXoX",
"oXoXoXoXoXoXoXoXoXoXoXoXoXoXoXoXoXoXoXoXoX< < < < < < < < < < < < < < < < < < < < < < < < < < oXoXoXoXoXoXoXoXoXoXoX< < < < < oXoXoXoXoXoXoXoXoXoXoXoXoXoXoXoXoXoXoXoXoXoXoXoXoXoXoX",
"oXoXoXoXoXoXoXoXoXoXoXoXoXoXoXoXoXoXoXoX< < < < < < < < < < < < < < < < < < < < < < < < < < < < < oXoXoXoXoXoXoXoX< < < < < < oXoXoXoXoXoXoXoXoXoXoXoXoXoXoXoXoXoXoXoXoXoXoXoXoXoXoX",
"oXoXoXoXoXoXoXoXoXoXoXoXoXoXoXoXoXoXoXoXoX< < < < < < < < < < < < < < < < < < < < < < < < < < < < < < oXoXoXoX< < < < < < < oXoXoXoXoXoXoXoXoXoXoXoXoXoXoXoXoXoXoXoXoXoXoXoXoXoXoXoX",
"oXoXoXoXoXoXoXoXoXoXoXoXoXoXoXoXoXoXoXoXoX< < < < < < < < < < < < < < < < < < < < < < < < < < < < < < < < < < < < < < < < < oXoXoXoXoXoXoXoXoXoXoXoXoXoXoXoXoXoXoXoXoXoXoXoXoXoXoXoX",
"oXoXoXoXoXoXoXoXoXoXoXoXoXoXoXoXoXoXoXoXoX< < < < < < < < < < < < < < < < < < < < < < < < < < < < < < < < < < < < < < < < < oXoXoXoXoXoXoXoXoXoXoXoXoXoXoXoXoXoXoXoXoXoXoXoXoXoXoXoX",
"oXoXoXoXoXoXoXoXoXoXoXoXoXoXoXoXoXoXoXoXoX< < < < < < < < < < < < < < < < < < < < < < < < < < < < < < < < < < < < < < < < < oXoXoXoXoXoXoXoXoXoXoXoXoXoXoXoXoXoXoXoXoXoXoXoXoXoXoXoX",
"oXoXoXoXoXoXoXoXoXoXoXoXoXoXoXoXoXoXoXoXoXoX< < < < < < < oXoXoXoX< < < < < < < < < < < < < < < < < < < < < < < < < < < < < oXoXoXoXoXoXoXoXoXoXoXoXoXoXoXoXoXoXoXoXoXoXoXoXoXoXoXoX",
"oXoXoXoXoXoXoXoXoXoXoXoXoXoXoXoXoXoXoXoXoXoX< < < < < < oXoXoXoXoXoX< < < < < < < < < < < < < < < < < < < < < < < < < < < < oXoXoXoXoXoXoXoXoXoXoXoXoXoXoXoXoXoXoXoXoXoXoXoXoXoXoXoX",
"oXoXoXoXoXoXoXoXoXoXoXoXoXoXoXoXoXoXoXoXoXoX< < < < < < oXoXoXoXoXoXoX< < < < < < < < < < < < < < < < < < < < < < < < < < < oXoXoXoXoXoXoXoXoXoXoXoXoXoXoXoXoXoXoXoXoXoXoXoXoXoXoXoX",
"oXoXoXoXoXoXoXoXoXoXoXoXoXoXoXoXoXoXoXoXoXoX< < < < < < oXoXoXoXoXoXoXoX< < < < < < < < < < < < < < < < < < < < < < < < < < oXoXoXoXoXoXoXoXoXoXoXoXoXoXoXoXoXoXoXoXoXoXoXoXoXoXoXoX",
"oXoXoXoXoXoXoXoXoXoXoXoXoXoXoXoXoXoXoXoXoXoX< < < < < < oXoXoXoXoXoXoXoX< < < < < < < < < < < < < < < < < < < < < < < < < < < < oXoXoXoXoXoXoXoXoXoXoXoXoXoXoXoXoXoXoXoXoXoXoXoXoXoX",
"oXoXoXoXoXoXoXoXoXoXoXoXoXoXoXoXoXoXoXoXoXoX< < < < < < oXoXoXoXoXoXoXoXoX< < < < < < < < < < < < < < < < < < < < < < < < < < < < oXoXoXoXoXoXoXoXoXoXoXoXoXoXoXoXoXoXoXoXoXoXoXoXoX",
"oXoXoXoXoXoXoXoXoXoXoXoXoXoXoXoXoXoXoXoXoXoX< < < < < < oXoXoXoXoXoXoXoXoX< < < < < < < < < < < < < < < < < < < < oXoXoXoXoXoX< < < oXoXoXoXoXoXoXoXoXoXoXoXoXoXoXoXoXoXoXoXoXoXoXoX",
"oXoXoXoXoXoXoXoXoXoXoXoXoXoXoXoXoXoXoXoXoXoX< < < < < < oXoXoXoXoXoXoXoXoXoX< < < < < < < < < < < < < < < < < < oXoXoXoXoXoXoXoX< < oXoXoXoXoXoXoXoXoXoXoXoXoXoXoXoXoXoXoXoXoXoXoXoX",
"oXoXoXoXoXoXoXoXoXoXoXoXoXoXoXoXoXoXoXoXoX< < < < < < < oXoXoXoXoXoXoXoXoXoX< < < < < < < < < < < < < < < < < oXoXoXoXoXoXoXoXoX< < < oXoXoXoXoXoXoXoXoXoXoXoXoXoXoXoXoXoXoXoXoXoXoX",
"oXoXoXoXoXoXoXoXoXoXoXoXoXoXoXoXoXoXoXoXoX< < < < < < < oXoXoXoXoXoXoXoXoXoX< < < < < < < < < < < < < < < < oXoXoXoXoXoXoXoXoXoXoX< < oXoXoXoXoXoXoXoXoXoXoXoXoXoXoXoXoXoXoXoXoXoXoX",
"oXoXoXoXoXoXoXoXoXoXoXoXoXoXoXoXoXoXoXoXoX< < < < < < < oXoXoXoXoXoXoXoXoXoX< < < < < < < < < < < < < < < oXoXoXoXoXoXoXoXoXoXoXoX< < oXoXoXoXoXoXoXoXoXoXoXoXoXoXoXoXoXoXoXoXoXoXoX",
"oXoXoXoXoXoXoXoXoXoXoXoXoXoXoXoXoXoXoXoXoX< < < < < < < oXoXoXoXoXoXoXoXoXoX< < < < < < < < < < < < < < oXoXoXoXoXoXoXoXoXoXoXoXoX< < oXoXoXoXoXoXoXoXoXoXoXoXoXoXoXoXoXoXoXoXoXoXoX",
"oXoXoXoXoXoXoXoXoXoXoXoXoXoXoXoXoXoXoXoXoX< < < < < < oXoXoXoXoXoXoXoXoXoXoXoX< < < < < < < < < < < < < oXoXoXoXoXoXoXoXoXoXoXoXoXoX< < oXoXoXoXoXoXoXoXoXoXoXoXoXoXoXoXoXoXoXoXoXoX",
"oXoXoXoXoXoXoXoXoXoXoXoXoXoXoXoXoXoXoXoXoX< < < < < < oXoXoXoXoXoXoXoXoXoXoXoX< < < < < < < < < < < < < oXoXoXoXoXoXoXoXoXoXoXoXoXoXoX< < oXoXoXoXoXoXoXoXoXoXoXoXoXoXoXoXoXoXoXoXoX",
"oXoXoXoXoXoXoXoXoXoXoXoXoXoXoXoXoXoXoXoXoX< < < < < oXoXoXoXoXoXoXoXoXoXoXoXoX< < < < < < < < < < < < oXoXoXoXoXoXoXoXoXoXoXoXoXoXoXoXoX< oXoXoXoXoXoXoXoXoXoXoXoXoXoXoXoXoXoXoXoXoX",
"oXoXoXoXoXoXoXoXoXoXoXoXoXoXoXoXoXoXoXoXoX< < < < < oXoXoXoXoXoXoXoXoXoXoXoXoXoX< < < < < < < < < < < oXoXoXoXoXoXoXoXoXoXoXoXoXoXoXoXoXoX< < oXoXoXoXoXoXoXoXoXoXoXoXoXoXoXoXoXoXoX",
"oXoXoXoXoXoXoXoXoXoXoXoXoXoXoXoXoXoXoXoXoX< < < < oXoXoXoXoXoXoXoXoXoXoXoXoXoXoX< < < < < < < < < < oXoXoXoXoXoXoXoXoXoXoXoXoXoXoXoXoXoXoX< < oXoXoXoXoXoXoXoXoXoXoXoXoXoXoXoXoXoXoX",
"oXoXoXoXoXoXoXoXoXoXoXoXoXoXoXoXoXoXoXoXoX< < < < oXoXoXoXoXoXoXoXoXoXoXoXoXoXoX< < < < < < < < < < oXoXoXoXoXoXoXoXoXoXoXoXoXoXoXoXoXoXoX< < < oXoXoXoXoXoXoXoXoXoXoXoXoXoXoXoXoXoX",
"oXoXoXoXoXoXoXoXoXoXoXoXoXoXoXoXoXoXoXoX< < < < oXoXoXoXoXoXoXoXoXoXoXoXoXoXoXoX< < < < < < < < < < oXoXoXoXoXoXoXoXoXoXoXoXoXoXoXoXoXoXoXoX< < oXoXoXoXoXoXoXoXoXoXoXoXoXoXoXoXoXoX",
"oXoXoXoXoXoXoXoXoXoXoXoXoXoXoXoXoXoXoXoX< < < < oXoXoXoXoXoXoXoXoXoXoXoXoXoXoXoX< < < < < < < < < < oXoXoXoXoXoXoXoXoXoXoXoXoXoXoXoXoXoXoXoX< < oXoXoXoXoXoXoXoXoXoXoXoXoXoXoXoXoXoX",
"oXoXoXoXoXoXoXoXoXoXoXoXoXoXoXoXoXoXoX< < < < oXoXoXoXoXoXoXoXoXoXoXoXoXoXoXoXoX< < < < < < < < < < < oXoXoXoXoXoXoXoXoXoXoXoXoXoXoXoXoXoXoX< < oXoXoXoXoXoXoXoXoXoXoXoXoXoXoXoXoXoX",
"oXoXoXoXoXoXoXoXoXoXoXoXoXoXoXoXoX< < < < < oXoXoXoXoXoXoXoXoXoXoXoXoXoXoXoXoXoX< < < < < < < < < < < oXoXoXoXoXoXoXoXoXoXoXoXoXoXoXoXoXoXoX< < < oXoXoXoXoXoXoXoXoXoXoXoXoXoXoXoXoX",
"oXoXoXoXoXoXoXoXoXoXoXoXoXoXoXoXoX< < < < < oXoXoXoXoXoXoXoXoXoXoXoXoXoXoXoXoXoX< < < < < < < < < < < < oXoXoXoXoXoXoXoXoXoXoXoXoXoXoXoXoXoX< < < oXoXoXoXoXoXoXoXoXoXoXoXoXoXoXoXoX",
"oXoXoXoXoXoXoXoXoXoXoXoXoXoXoX< < < < < < oXoXoXoXoXoXoXoXoXoXoXoXoXoXoXoXoXoXoX< < < < < < < < < < < < oXoXoXoXoXoXoXoXoXoXoXoXoXoXoXoXoX< < < < oXoXoXoXoXoXoXoXoXoXoXoXoXoXoXoXoX",
"oXoXoXoXoXoXoXoXoXoXoXoXoXoX< < < < < < < oXoXoXoXoXoXoXoXoXoXoXoXoXoXoXoXoXoXoX< < < < < < < < < < < < oXoXoXoXoXoXoXoXoXoXoXoXoXoXoXoXoX< < < < < oXoXoXoXoXoXoXoXoXoXoXoXoXoXoXoX",
"oXoXoXoXoXoXoXoXoXoXoXoXoX< oX< < < < < < oXoXoXoXoXoXoXoXoXoXoXoXoXoXoXoXoXoXoX< < < < < < < oX< < < < oXoXoXoXoXoXoXoXoXoXoXoXoXoXoXoXoX< < < < < oXoXoXoXoXoXoXoXoXoXoXoXoXoXoXoX",
"oXoXoXoXoXoXoXoXoXoXoXoXoX< oX< < < < < oXoXoXoXoXoXoXoXoXoXoXoXoXoXoXoXoXoXoXoX< < < < < < < oX< < < < oXoXoXoXoXoXoXoXoXoXoXoXoXoXoXoXoX< < < < < oXoXoXoXoXoXoXoXoXoXoXoXoXoXoXoX",
"oXoXoXoXoXoXoXoXoXoXoXoXoXoX< < < < < oXoXoXoXoXoXoXoXoXoXoXoXoXoXoXoXoXoXoXoXoX< < < < < < < oXoX< < < < oXoXoXoXoXoXoXoXoXoXoXoXoXoX< < < oX< < oXoXoXoXoXoXoXoXoXoXoXoXoXoXoXoXoX",
"oXoXoXoXoXoXoXoXoXoXoXoXoXoX< < < oXoXoXoXoXoXoXoXoXoXoXoXoXoXoXoXoXoXoXoXoXoXoX< < < < < < < oXoX< < < < oXoXoXoXoXoXoXoXoXoXoXoXoXoXoX< oX< < < oXoXoXoXoXoXoXoXoXoXoXoXoXoXoXoXoX",
"oXoXoXoXoXoXoXoXoXoXoXoXoX< < oXoXoXoXoXoXoXoXoXoXoXoXoXoXoXoXoXoXoXoXoXoXoXoXoX< < < < < < oXoXoXoX< < < oXoXoXoXoXoXoXoXoXoXoXoXoXoXoX< < < < oXoXoXoXoXoXoXoXoXoXoXoXoXoXoXoXoXoX",
"oXoXoXoXoXoXoXoXoXoXoXoXoXoXoXoXoXoXoXoXoXoXoXoXoXoXoXoXoXoXoXoXoXoXoXoXoXoXoX< < < < < < oXoXoXoXoXoX< < oXoXoXoXoXoXoXoXoXoXoXoXoXoXoXoXoXoXoXoXoXoXoXoXoXoXoXoXoXoXoXoXoXoXoXoXoX",
"oXoXoXoXoXoXoXoXoXoXoXoXoXoXoXoXoXoXoXoXoXoXoXoXoXoXoXoXoXoXoXoXoXoXoXoXoXoXoX< < < < < oXoXoXoXoXoXoX< < < oXoXoXoXoXoXoXoXoXoXoXoXoXoXoXoXoXoXoXoXoXoXoXoXoXoXoXoXoXoXoXoXoXoXoXoX",
"oXoXoXoXoXoXoXoXoXoXoXoXoXoXoXoXoXoXoXoXoXoXoXoXoXoXoXoXoXoXoXoXoXoXoXoXoXoX< < < < < oXoXoXoXoXoXoXoX< < < oXoXoXoXoXoXoXoXoXoXoXoXoXoXoXoXoXoXoXoXoXoXoXoXoXoXoXoXoXoXoXoXoXoXoXoX",
"oXoXoXoXoXoXoXoXoXoXoXoXoXoXoXoXoXoXoXoXoXoXoXoXoXoXoXoXoXoXoXoXoXoXoXoXoXoX< < < < oXoXoXoXoXoXoXoXoX< < < oXoXoXoXoXoXoXoXoXoXoXoXoXoXoXoXoXoXoXoXoXoXoXoXoXoXoXoXoXoXoXoXoXoXoXoX",
"oXoXoXoXoXoXoXoXoXoXoXoXoXoXoXoXoXoXoXoXoXoXoXoXoXoXoXoXoXoXoXoXoXoXoXoX< < < < < oXoXoXoXoXoXoXoXoXoXoX< < < oXoXoXoXoXoXoXoXoXoXoXoXoXoXoXoXoXoXoXoXoXoXoXoXoXoXoXoXoXoXoXoXoXoXoX",
"oXoXoXoXoXoXoXoXoXoXoXoXoXoXoXoXoXoXoXoXoXoXoXoXoXoXoXoXoXoXoXoXoXoXoX< < < < < oXoXoXoXoXoXoXoXoXoXoXoX< < < oXoXoXoXoXoXoXoXoXoXoXoXoXoXoXoXoXoXoXoXoXoXoXoXoXoXoXoXoXoXoXoXoXoXoX",
"oXoXoXoXoXoXoXoXoXoXoXoXoXoXoXoXoXoXoXoXoXoXoXoXoXoXoXoXoXoXoXoXoXoX< < < < < < oXoXoXoXoXoXoXoXoXoXoXoX< < < oXoXoXoXoXoXoXoXoXoXoXoXoXoXoXoXoXoXoXoXoXoXoXoXoXoXoXoXoXoXoXoXoXoXoX",
"oXoXoXoXoXoXoXoXoXoXoXoXoXoXoXoXoXoXoXoXoXoXoXoXoXoXoXoXoXoXoXoXoXoX< < < < < oXoXoXoXoXoXoXoXoXoXoXoXoX< < < < oXoXoXoXoXoXoXoXoXoXoXoXoXoXoXoXoXoXoXoXoXoXoXoXoXoXoXoXoXoXoXoXoXoX",
"oXoXoXoXoXoXoXoXoXoXoXoXoXoXoXoXoXoXoXoXoXoXoXoXoXoXoXoXoXoXoXoXoX< < < < < oXoXoXoXoXoXoXoXoXoXoXoXoXoXoX< < < oXoXoXoXoXoXoXoXoXoXoXoXoXoXoXoXoXoXoXoXoXoXoXoXoXoXoXoXoXoXoXoXoXoX",
"oXoXoXoXoXoXoXoXoXoXoXoXoXoXoXoXoXoXoXoXoXoXoXoXoXoXoXoXoXoXoXoXoX< < < < oXoXoXoXoXoXoXoXoXoXoXoXoXoXoXoX< < < < oXoXoXoXoXoXoXoXoXoXoXoXoXoXoXoXoXoXoXoXoXoXoXoXoXoXoXoXoXoXoXoXoX",
"oXoXoXoXoXoXoXoXoXoXoXoXoXoXoXoXoXoXoXoXoXoXoXoXoXoXoXoXoXoXoXoX< < < < oXoXoXoXoXoXoXoXoXoXoXoXoXoXoXoXoX< < < < oXoXoXoXoXoXoXoXoXoXoXoXoXoXoXoXoXoXoXoXoXoXoXoXoXoXoXoXoXoXoXoXoX",
"oXoXoXoXoXoXoXoXoXoXoXoXoXoXoXoXoXoXoXoXoXoXoXoXoXoXoXoXoXoXoX< < < oXoXoXoXoXoXoXoXoXoXoXoXoXoXoXoXoXoXoXoX< < < oXoXoXoXoXoXoXoXoXoXoXoXoXoXoXoXoXoXoXoXoXoXoXoXoXoXoXoXoXoXoXoXoX",
"oXoXoXoXoXoXoXoXoXoXoXoXoXoXoXoXoXoXoXoXoXoXoXoXoXoXoXoXoXoXoX< < < < oXoXoXoXoXoXoXoXoXoXoXoXoXoXoXoXoXoXoX< < < oXoXoXoXoXoXoXoXoXoXoXoXoXoXoXoXoXoXoXoXoXoXoXoXoXoXoXoXoXoXoXoXoX",
"oXoXoXoXoXoXoXoXoXoXoXoXoXoXoXoXoXoXoXoXoXoXoXoXoXoXoXoXoXoX< < < < < < oXoXoXoXoXoXoXoXoXoXoXoXoXoXoXoXoXoX< < < < < < < < oXoXoXoXoXoXoXoXoXoXoXoXoXoXoXoXoXoXoXoXoXoXoXoXoXoXoXoX",
"oXoXoXoXoXoXoXoXoXoXoXoXoXoXoXoXoXoXoXoXoXoXoXoXoXoXoXoXoXoXoX< < < < < < oXoXoXoXoXoXoXoXoXoXoXoXoXoXoXoXoXoX< < < < < < < < oXoXoXoXoXoXoXoXoXoXoXoXoXoXoXoXoXoXoXoXoXoXoXoXoXoXoX",
"oXoXoXoXoXoXoXoXoXoXoXoXoXoXoXoXoXoXoXoXoXoXoXoXoXoXoXoXoXoXoXoX< < < < < < oXoXoXoXoXoXoXoXoXoXoXoXoXoXoXoXoX< < < < < < < oXoXoXoXoXoXoXoXoXoXoXoXoXoXoXoXoXoXoXoXoXoXoXoXoXoXoXoX"
};
