/* XPM */
static char *result[] = {
/* columns rows colors chars-per-pixel */
"90 90 185 2 ",
"   c #000018",
".  c #000119",
"X  c #26090A",
"o  c #27080C",
"O  c #2F1715",
"+  c #011520",
"@  c #021520",
"#  c #001721",
"$  c #051721",
"%  c #061721",
"&  c #021821",
"*  c #061821",
"=  c #071821",
"-  c #091821",
";  c #131C21",
":  c #181821",
">  c #1B2224",
",  c #1A2226",
"<  c #2B2F2D",
"1  c #392526",
"2  c #3D2A2A",
"3  c #30332F",
"4  c #343631",
"5  c #383A34",
"6  c #57131A",
"7  c #6C0310",
"8  c #6B1F20",
"9  c #42322F",
"0  c #4B3D39",
"q  c #613735",
"w  c #494036",
"e  c #494136",
"r  c #43433A",
"t  c #4D4539",
"y  c #49493F",
"u  c #4C4B40",
"i  c #4F4E41",
"p  c #525043",
"a  c #635E50",
"s  c #666351",
"d  c #676451",
"f  c #676452",
"g  c #666555",
"h  c #716D5C",
"j  c #7F7B66",
"k  c #820000",
"l  c #900000",
"z  c #A81717",
"x  c #8F201A",
"c  c #942720",
"v  c #912F26",
"b  c #905140",
"n  c #945546",
"m  c #817C64",
"M  c #827D64",
"N  c #8E7C63",
"B  c #807F6B",
"V  c #9C7764",
"C  c #A17F6B",
"Z  c #89836A",
"A  c #8B856B",
"S  c #8C866B",
"D  c #8D876C",
"F  c #8E886D",
"G  c #8F8A6F",
"H  c #8E8970",
"J  c #9C8670",
"K  c #908B70",
"L  c #908B71",
"P  c #918B71",
"I  c #918C72",
"U  c #928D72",
"Y  c #928D74",
"T  c #938E74",
"R  c #938F74",
"E  c #938F75",
"W  c #948F75",
"Q  c #949075",
"!  c #959076",
"~  c #959177",
"^  c #969177",
"/  c #949179",
"(  c #959279",
")  c #979378",
"_  c #969379",
"`  c #979379",
"'  c #97957F",
"]  c #98947A",
"[  c #98957A",
"{  c #98957B",
"}  c #99957B",
"|  c #99967B",
" . c #99967C",
".. c #9A967C",
"X. c #9A977C",
"o. c #9A977D",
"O. c #9B987E",
"+. c #9B997E",
"@. c #9C987E",
"#. c #9C997F",
"$. c #9D997F",
"%. c #9C9A7F",
"&. c #9D9A7F",
"*. c #A3977F",
"=. c #80E441",
"-. c #93E54E",
";. c #9DE654",
":. c #AAE75C",
">. c #ABE75C",
",. c #ACE75D",
"<. c #ADE75D",
"1. c #AFE75E",
"2. c #AFE75F",
"3. c #B2E860",
"4. c #B2E861",
"5. c #B5E862",
"6. c #B5E863",
"7. c #B7E864",
"8. c #B8E865",
"9. c #B8E866",
"0. c #BBE867",
"q. c #BDE968",
"w. c #BFE969",
"e. c #C2E96C",
"r. c #C3E96C",
"t. c #C8EA6F",
"y. c #D7EC7D",
"u. c #D7EC7E",
"i. c #9C9A80",
"p. c #9E9B81",
"a. c #9C9B83",
"s. c #9E9C82",
"d. c #9F9C82",
"f. c #9F9D83",
"g. c #9C9C84",
"h. c #9D9D85",
"j. c #A09C82",
"k. c #A09D83",
"l. c #A09E84",
"z. c #A19E84",
"x. c #A09F85",
"c. c #A19F85",
"v. c #A29F85",
"b. c #A59E86",
"n. c #A2A086",
"m. c #A3A086",
"M. c #A2A187",
"N. c #A3A187",
"B. c #A1A088",
"V. c #A1A189",
"C. c #A3A288",
"Z. c #A4A288",
"A. c #A4A389",
"S. c #A5A389",
"D. c #A5A48A",
"F. c #A5A58B",
"G. c #A6A58B",
"H. c #A5A58C",
"J. c #A6A58C",
"K. c #A6A68C",
"L. c #A7A68C",
"P. c #A7A68D",
"I. c #A7A78D",
"U. c #A8A78D",
"Y. c #A8A88E",
"T. c #A9A88E",
"R. c #A9A98F",
"E. c #AAA98F",
"W. c #AAAA90",
"Q. c #ABAB90",
"!. c #AAAB91",
"~. c #ABAB91",
"^. c #DBED83",
"/. c #E1EE8D",
"(. c #DFEDB3",
"). c #E6EFA1",
"_. c #E2EEA5",
"`. c #E6EFA6",
"'. c #E9EFB2",
"]. c #F6F2D1",
"[. c #F8F2D7",
"{. c #FBF2E0",
"}. c #FCF2E3",
"|. c #FCF2E4",
" X c None",
/* pixels */
" X X X X X X X X X X X X X X X X X X X X X X X X X X X X X X X X X X X X X X X X X X X X X X XD.W.W. X X X XW.~.L Y.W. X X X X X X X X X X X X X X X X X X X X X X X X X X X X X X X",
" X X X X X X X X X X X X X X X X X X X X X X X X X X X X X X X X X X X X X X X X X X X X X Xn.l.d.D.d. XW.W.W. .W.W.W.R.D. X X X X X X X X X X X X X X X X X X X X X X X X X X X X X",
" X X X X X X X X X X X X X X X X X X X X X X X X X X X X X X X X X X X X X X X X X X X X Xz.A.l.L.U.d.l.W.W.R.p.W.W.W.{ D. X X X X X X X X X X X X X X X X X X X X X X X X X X X X X",
" X X X X X X X X X X X X X X X X X X X X X X X X X X X X X X X X X X X X X X X X X X X X Xm.N.L.W.A.G.R.+.T.C.f.S.R.O.W.W.W. X X X X X X X X X X X X X X X X X X X X X X X X X X X X",
" X X X X X X X X X X X X X X X X X X X X X X X X X X X X X X X X X X X X X X X X X X X X XW.W.R.N.W.K.h.W.| k.Q n.T A.T.W.F.F  X X X X X X X X X X X X X X X X X X X X X X X X X X X",
" X X X X X X X X X X X X X X X X X X X X X X X X X X X X X X X X X X X X XI. X X X X X XW.W.R.R.W.W.e O ' n.&.W d.K l.N.! D.D. X X X X X X X X X X X X X X X X X X X X X X X X X X X",
" X X X X X X X X X X X X X X X X X X X X X X X X X X X X X X X X X X X XW.@.~. X X X XW.a.H.B Q.W.g z x *.%.G i.#.#.[ l.~.W.R. X X X X X X X X X X X X X X X X X X X X X X X X X X X",
" X X X X X X X X X X X X X X X X X X X X X X X X X X X X X X X X X X Xd.$.D ^ R. X X XB.1 a W.W.W.V c v _ R.W / / ( G.~ G.Y.G. X X X X X X X X X X X X X X X X X X X X X X X X X X X",
" X X X X X X X X X X X X X X X X X X X X X X X X X X X X X X X X X X Xd.P  XS n.N. Xq 0 o J.W.W.W.!.b N x.L.H ; > 3 @.x.n.+.D. X X X X X X X X X X X X X X X X X X X X X X X X X X X",
" X X X X X X X X X X X X X X X X X X X X X X X X X X X X X X X X X X X..D  X X! | g.9 2 h W.W.W.W.J k A X.D.f .   V.M.o.U ~.}  X X X X X X X X X X X X X X X X X X X X X X X X X X X",
" X X X X X X X X X X X X X X X X X X X X X X X X X X X X X X X X X X X XD  X XD D j X w W.W.W.R.j.n 7 Z D.R p.s.I c.W.] ) E.d. X X X X X X X X X X X X X X X X X X X X X X X X X X X",
" X X X X X X X X X X X X X X X X X X X X X X X X X X X X X X X X X X X X X X X XD Y t P.c.c.c.z.b.l # y ..A.] Y.l.I.R.C.G.]  X X X X X X X X X X X X X X X X X X X X X X X X X X X X",
" X X X X X X X X X X X X X X X X X X X X X X X X X X X X X X X X X X X X X X X X XS ) ) s d d C 8 6 & % p K Z.D.d.n.v.d.` i  X X X X X X X X X X X X X X X X X X X X X X X X X X X X",
" X X X X X X X X X X X X X X X X X X X X X X X X X X X X X X X X X X X X X X X X X X X, = = = : - = = = = u m E U #.H M 5 = =  X X X X X X X X X X X X X X X X X X X X X X X X X X X",
" X X X X X X X X X X X X X X X X X X X X X X X X X X X X X X X X X X X X X X X X X X= = = = = = = = = = = $ @ 4 r r < + * = = =  X X X X X X X X X X X X X X X X X X X X X X X X X X",
" X X X X X X X X X X X X X X X X X X X X X X X X X X X X X X X X X X X X X X X X X X= = =  X X X X X X X= = = = = = = = = = = = =  X X X X X X X X X X X X X X X X X X X X X X X X X",
" X X X X X X X X X X X X X X X X X X X X X X X X X X X X X X X X X X X X X X X X X= =  X X X X X X X X X X X= = = = = = = = = = =  X X X X X X X X X X X X X X X X X X X X X X X X X",
" X X X X X X X X X X X X X X X X X X X X X X X X X X X X X X X X X X X X X X X X X=  X X X X X X X X X X X X X= = = = = = = = = = =  X X X X X X X X X X X X X X X X X X X X X X X X",
" X X X X X X X X X X X X X X X X X X X X X X X X X X X X X X X X X X X X X X X X X X X X X X;. X X X X X X X X X= = = = = = = = = = =  X X X X X X X X X X X X X X X X X X X X X X X",
" X X X X X X X X X X X X X X X X X X X X X X X X X X X X X X X X X X X X X X X X X X X X X Xe. X X X X X X X X X= = = = = = = = = = =  X X X X X X X X X X X X X X X X X X X X X X X",
" X X X X X X X X X X X X X X X X X X X X X X X X X X X X X X X X X X X X X X X X X X X X X=.4.2. X X X X X X X X X= = = = = = = = = =  X X X X X X X X X X X X X X X X X X X X X X X",
" X X X X X X X X X X X X X X X X X X X X X X X X X X X X X X X X X X X X X X X X X X X X X X Xr.>.:.q.-. X X X X X= = = = = = = = = = =  X X X X X X X X X X X X X X X X X X X X X X",
" X X X X X X X X X X X X X X X X X X X X X X X X X X X X X X X X X X X X X X X=  X X X X X X X X6.7.3.r. X X X X X= = = = = = = = = = = =  X X X X X X X X X X X X X X X X X X X X X",
" X X X X X X X X X X X X X X X X X X X X X X X X X X X X X X X X X X X X X X=  X X X X X X X1.8.u.t.,.<. X X X X X= = = = = = = = = = = =  X X X X X X X X X X X X X X X X X X X X X",
" X X X X X X X X X X X X X X X X X X X X X X X X X X X X X X X X X X X X X= =  X X X X X X8.0.u.'.y.t. X X X X X X= = = = = = = = = = = =  X X X X X X X X X X X X X X X X X X X X X",
" X X X X X X X X X X X X X X X X X X X X X X X X X X X X X X X X X X X X X= =  X X X X Xq.5.u.).]./.w. X X X X X X= = = = = = = = = = = = =  X X X X X X X X X X X X X X X X X X X X",
" X X X X X X X X X X X X X X X X X X X X X X X X X X X X X X X X X X X X= = =  X X X X X X9.^.|.[.`.r. X X X X X X= = = = = = = = = = = = =  X X X X X X X X X X X X X X X X X X X X",
" X X X X X X X X X X X X X X X X X X X X X X X X X X X X X X X X X X X X= = =  X X X X X X X(.}.{._. X X X X X X= = = = = = = = = = = = = = =  X X X X X X X X X X X X X X X X X X X",
" X X X X X X X X X X X X X X X X X X X X X X X X X X X X X X X X X X X X= = =  X X X X X X X X X X X X X X X X= = = = = = = = = = = = = = = =  X X X X X X X X X X X X X X X X X X X",
" X X X X X X X X X X X X X X X X X X X X X X X X X X X X X X X X X X X X= = = =  X X X X X X X X X X X X X X= = = = = = = = = = = = = =  X X X X X X X X X X X X X X X X X X X X X X",
" X X X X X X X X X X X X X X X X X X X X X X X X X X X X X X X X X X X X= = = = =  X X X X X X X X X X X= = = = = = = = = = = = = = =  X X X X X X X X X X X X X X X X X X X X X X X",
" X X X X X X X X X X X X X X X X X X X X X X X X X X X X X X X X X X X X= = = = = = =  X X X X X X X X= = = = = = = = = = = = = = =  X X X X X X X X X X X X X X X X X X X X X X X X",
" X X X X X X X X X X X X X X X X X X X X X X X X X X X X X X X X X X X X= = = = = = = = = = = = = = = = = = = = = = = = = = = = = = =  X X X X X X X X X X X X X X X X X X X X X X X",
" X X X X X X X X X X X X X X X X X X X X X X X X X X X X X X X X X X X X= = = = = = = = = = = = = = = = = = = = = = = = = = = = = = =  X X X X X X X X X X X X X X X X X X X X X X X",
" X X X X X X X X X X X X X X X X X X X X X X X X X X X X X X X X X X X X= = = = = = = = = = = = = = = = = = = = = = = = = = = = = = = =  X X X X X X X X X X X X X X X X X X X X X X",
" X X X X X X X X X X X X X X X X X X X X X X X X X X X X X X X X X X X X X= = = = = = = = = = = = = = = = = = = = = = = = = = = = =  X= =  X X X X X X X X X X X X X X X X X X X X X",
" X X X X X X X X X X X X X X X X X X X X X X X X X X X X X X X X X X X X X X= = = = = = = = = = = = = = = = = = = = = = = = = = =  X X X= =  X X X X X X X X X X X X X X X X X X X X",
" X X X X X X X X X X X X X X X X X X X X X X X X X X X X X X X X X X X X X X X= = = = = = = = = = = = = = = = = = = = = = = = =  X X X X= =  X X X X X X X X X X X X X X X X X X X X",
" X X X X X X X X X X X X X X X X X X X X X X X X X X X X X X X X X X X X X X X X= = = = = = = = = = = = = = = = = = = = = = = =  X X X X= = =  X X X X X X X X X X X X X X X X X X X",
" X X X X X X X X X X X X X X X X X X X X X X X X X X X X X X X X X X X X X X X X X= = = = = = = = = = = = = = = = = = = = = =  X X X X X X= =  X X X X X X X X X X X X X X X X X X X",
" X X X X X X X X X X X X X X X X X X X X X X X X X X X X X X X X X X X X X X X X X X= = = = = = = = = = = = = = = = = = = =  X X X X X X X= = =  X X X X X X X X X X X X X X X X X X",
" X X X X X X X X X X X X X X X X X X X X X X X X X X X X X X X X X X X X X X X X X X X= = = = = = = = = = = = = = = = = =  X X X X X X X X X= = =  X X X X X X X X X X X X X X X X X",
" X X X X X X X X X X X X X X X X X X X X X X X X X X X X X X X X X X X X X X X X X X X X= = = = = = = = = = = = = = = =  X X X X X X X X X X X= = =  X X X X X X X X X X X X X X X X",
" X X X X X X X X X X X X X X X X X X X X X X X X X X X X X X X X X X X X X X X X X X X X X= = = = = = = = = = = = = = =  X X X X X X X X=  X X X= =  X X X X X X X X X X X X X X X X",
" X X X X X X X X X X X X X X X X X X X X X X X X X X X X X X X X X X X X X X X X X X X X= = = = = = = = = = = = = = = =  X X X X X X X X X X X X= =  X X X X X X X X X X X X X X X X",
" X X X X X X X X X X X X X X X X X X X X X X X X X X X X X X X X X X X X X X X X X X X X= = = = = = = = = = = = = = = =  X X X X X X X X X X X X=  X X X X X X X X X X X X X X X X X",
" X X X X X X X X X X X X X X X X X X X X X X X X X X X X X X X X X X X X X X X X X X X= = = = = = = = = = = = = = = =  X X X X X X X X X X X= = =  X X X X X X X X X X X X X X X X X",
" X X X X X X X X X X X X X X X X X X X X X X X X X X X X X X X X X X X X X X X X X X X= = = = = = = = = = = = = = = =  X X X X X X X X X X= =  X X X X X X X X X X X X X X X X X X X",
" X X X X X X X X X X X X X X X X X X X X X X X X X X X X X X X X X X X X X X X X X X X= = = = = = = = = = = = = = = =  X X X X X X X X X X= =  X X X X X X X X X X X X X X X X X X X",
" X X X X X X X X X X X X X X X X X X X X X X X X X X X X X X X X X X X X X X X X X X X= = = = = = = = = = = = = = = =  X X X X X X X X X X= =  X X X X X X X X X X X X X X X X X X X",
" X X X X X X X X X X X X X X X X X X X X X X X X X X X X X X X X X X X X X X X X X X X= = = = = = = = = = = = = = = =  X X X X X X X X X X= =  X X X X X X X X X X X X X X X X X X X",
" X X X X X X X X X X X X X X X X X X X X X X X X X X X X X X X X X X X X X X X X X X X= = = = = = = = = = = = = = = =  X X X X X X X X X X= =  X X X X X X X X X X X X X X X X X X X",
" X X X X X X X X X X X X X X X X X X X X X X X X X X X X X X X X X X X X X X X X X X= = = = = = = = = = = = = = = =  X X X X X X X X X X X= =  X X X X X X X X X X X X X X X X X X X",
" X X X X X X X X X X X X X X X X X X X X X X X X X X X X X X X X X X X X X X X X X X X= = = = = =  X X X= = = = = =  X X X X X X X X X X X= =  X X X X X X X X X X X X X X X X X X X",
" X X X X X X X X X X X X X X X X X X X X X X X X X X X X X X X X X X X X X X X X X X= = = = = = =  X X X= = = = =  X X X X X X X X X X X X= =  X X X X X X X X X X X X X X X X X X X",
" X X X X X X X X X X X X X X X X X X X X X X X X X X X X X X X X X X X X X X X X X X= = = = = =  X X X X= = = = =  X X X X X X X X X X X= =  X X X X X X X X X X X X X X X X X X X X",
" X X X X X X X X X X X X X X X X X X X X X X X X X X X X X X X X X X X X X X X X X X= = = = =  X X X X X= = = = =  X X X X X X X X X X X=  X X X X X X X X X X X X X X X X X X X X X",
" X X X X X X X X X X X X X X X X X X X X X X X X X X X X X X X X X X X X X X X X X= = = = = =  X X X X X X= = = =  X X X X X X X X X X X=  X X X X X X X X X X X X X X X X X X X X X",
" X X X X X X X X X X X X X X X X X X X X X X X X X X X X X X X X X X X X X X X X X= = = = =  X X X X X X X= = = =  X X X X X X X X X X= =  X X X X X X X X X X X X X X X X X X X X X",
" X X X X X X X X X X X X X X X X X X X X X X X X X X X X X X X X X X X X X X X X X= = = = =  X X X X X X X= = = =  X X X X X X X X X= =  X X X X X X X X X X X X X X X X X X X X X X",
" X X X X X X X X X X X X X X X X X X X X X X X X X X X X X X X X X X X X X X X X= = = = = =  X X X X X X X= = = =  X X X X X X X X= = =  X X X X X X X X X X X X X X X X X X X X X X",
" X X X X X X X X X X X X X X X X X X X X X X X X X X X X X X X X X X X X X X X X= = = = = =  X X X X X X X= = = =  X X X X X X X X= = =  X X X X X X X X X X X X X X X X X X X X X X",
" X X X X X X X X X X X X X X X X X X X X X X X X X X X X X X X X X X X X X X X= = = = = =  X X X X X X X X= = = =  X X X X X X X= = = = =  X X X X X X X X X X X X X X X X X X X X X",
" X X X X X X X X X X X X X X X X X X X X X X X X X X X X X X X X X X X X X X= = = = = = =  X X X X X X X X= = = =  X X X X X X X= = = = =  X X X X X X X X X X X X X X X X X X X X X",
" X X X X X X X X X X X X X X X X X X X X X X X X X X X X X X X X X X X X X X= = = = = = = =  X X X X X X X X= = =  X X X X X X X X= = = =  X X X X X X X X X X X X X X X X X X X X X",
" X X X X X X X X X X X X X X X X X X X X X X X X X X X X X X X X X X X X X= = = = = = = = =  X X X X X X X X= = =  X X X X X X X X X= = = = =  X X X X X X X X X X X X X X X X X X X",
" X X X X X X X X X X X X X X X X X X X X X X X X X X X X X X X X X X X X X= = = = = = = = = =  X X X X X X X= = =  X X X X X X X X X X= = = =  X= =  X X X X X X X X X X X X X X X X",
" X X X X X X X X X X X X X X X X X X X X X X X X X X X X X X X X X X X X X= = =  X X X= = = = =  X X X X X X= = = =  X X X X X X X X X X X= = = = =  X X X X X X X X X X X X X X X X",
" X X X X X X X X X X X X X X X X X X X X X X X X X X X X X X X X X X X X= = = = =  X X= = = = =  X X X X X X= = = =  X X X X X X X X X X X X= = = =  X X X X X X X X X X X X X X X X",
" X X X X X X X X X X X X X X X X X X X X X X X X X X X X X X X X X X X X X= = = = =  X X X= = =  X X X X X X= = = = =  X X X X X X X X X X X X= = =  X X X X X X X X X X X X X X X X",
" X X X X X X X X X X X X X X X X X X X X X X X X X X X X X X X X X X X X X= = = = = =  X X X= = =  X X X X X= = = = =  X X X X X X X X X X X X X= = =  X X X X X X X X X X X X X X X",
" X X X X X X X X X X X X X X X X X X X X X X X X X X X X X X X X X X X X X= = = = = = =  X X= = =  X X X X X= = = = =  X X X X X X X X X X X X X X X X X X X X X X X X X X X X X X X",
" X X X X X X X X X X X X X X X X X X X X X X X X X X X X X X X X X X X X X X= = = =  X X= = = = = =  X X X X X= = = =  X X X X X X X X X X X X X X X X X X X X X X X X X X X X X X X",
" X X X X X X X X X X X X X X X X X X X X X X X X X X X X X X X X X X X X X X X= = = = = = =  X X= = =  X X X X= = = =  X X X X X X X X X X X X X X X X X X X X X X X X X X X X X X X",
" X X X X X X X X X X X X X X X X X X X X X X X X X X X X X X X X X X X X X X X X= = = = =  X X X= = = =  X X X= = =  X X X X X X X X X X X X X X X X X X X X X X X X X X X X X X X X",
" X X X X X X X X X X X X X X X X X X X X X X X X X X X X X X X X X X X X X X X X X= = =  X X X X= = = =  X X X= = =  X X X X X X X X X X X X X X X X X X X X X X X X X X X X X X X X",
" X X X X X X X X X X X X X X X X X X X X X X X X X X X X X X X X X X X X X X X X X X X X X X X X= = = =  X X X X= = =  X X X X X X X X X X X X X X X X X X X X X X X X X X X X X X X",
" X X X X X X X X X X X X X X X X X X X X X X X X X X X X X X X X X X X X X X X X X X X X X X X X= = = =  X X X X= = =  X X X X X X X X X X X X X X X X X X X X X X X X X X X X X X X",
" X X X X X X X X X X X X X X X X X X X X X X X X X X X X X X X X X X X X X X X X X X X X X X X X= = = =  X X X X= = =  X X X X X X X X X X X X X X X X X X X X X X X X X X X X X X X",
" X X X X X X X X X X X X X X X X X X X X X X X X X X X X X X X X X X X X X X X X X X X X X X X X= = = =  X X X X X= = =  X X X X X X X X X X X X X X X X X X X X X X X X X X X X X X",
" X X X X X X X X X X X X X X X X X X X X X X X X X X X X X X X X X X X X X X X X X X X X X X X X X= = =  X X X X X= = =  X X X X X X X X X X X X X X X X X X X X X X X X X X X X X X",
" X X X X X X X X X X X X X X X X X X X X X X X X X X X X X X X X X X X X X X X X X X X X X X X X X= = =  X X X X X= = =  X X X X X X X X X X X X X X X X X X X X X X X X X X X X X X",
" X X X X X X X X X X X X X X X X X X X X X X X X X X X X X X X X X X X X X X X X X X X X X X X X X= = =  X X X X X= = =  X X X X X X X X X X X X X X X X X X X X X X X X X X X X X X",
" X X X X X X X X X X X X X X X X X X X X X X X X X X X X X X X X X X X X X X X X X X X X X X X X X X X=  X X X X X= = = =  X X X X X X X X X X X X X X X X X X X X X X X X X X X X X",
" X X X X X X X X X X X X X X X X X X X X X X X X X X X X X X X X X X X X X X X X X X X X X X X X X X X=  X X X X X= = = =  X X X X X X X X X X X X X X X X X X X X X X X X X X X X X",
" X X X X X X X X X X X X X X X X X X X X X X X X X X X X X X X X X X X X X X X X X X X X X X X X X X X X X X X X X= = =  X X X X X X X X X X X X X X X X X X X X X X X X X X X X X X",
" X X X X X X X X X X X X X X X X X X X X X X X X X X X X X X X X X X X X X X X X X X X X X X X X X X X X X X X X= = =  X X X X X X X X X X X X X X X X X X X X X X X X X X X X X X X",
" X X X X X X X X X X X X X X X X X X X X X X X X X X X X X X X X X X X X X X X X X X X X X X X X X X X X X X X= = =  X X X X X X X X X X X X X X X X X X X X X X X X X X X X X X X X",
" X X X X X X X X X X X X X X X X X X X X X X X X X X X X X X X X X X X X X X X X X X X X X X X X X X X X X X= = =  X X X X X X X X X X X X X X X X X X X X X X X X X X X X X X X X X",
" X X X X X X X X X X X X X X X X X X X X X X X X X X X X X X X X X X X X X X X X X X X X X X X X X X X X X X X X X X X X X X X X X X X X X X X X X X X X X X X X X X X X X X X X X X"
};
