/* XPM */
static char *result[] = {
/* columns rows colors chars-per-pixel */
"90 90 195 2 ",
"   c #130000",
".  c #1E0000",
"X  c #000016",
"o  c #000E1D",
"O  c #2B0C14",
"+  c #3E151E",
"@  c #3F151E",
"#  c #011520",
"$  c #031620",
"%  c #051721",
"&  c #061721",
"*  c #031821",
"=  c #041821",
"-  c #071821",
";  c #081821",
":  c #091921",
">  c #0A1922",
",  c #0C1A22",
"<  c #192225",
"1  c #392A25",
"2  c #3A2E25",
"3  c #36362C",
"4  c #3B3B30",
"5  c #5A000F",
"6  c #410C19",
"7  c #431B17",
"8  c #58131A",
"9  c #680304",
"0  c #412F2F",
"q  c #483536",
"w  c #403F33",
"e  c #404139",
"r  c #535245",
"t  c #525347",
"y  c #595748",
"u  c #5B5949",
"i  c #60594D",
"p  c #656452",
"a  c #716758",
"s  c #716D59",
"d  c #736F5A",
"f  c #726F5C",
"g  c #707161",
"h  c #787663",
"j  c #7C7760",
"k  c #7F7A62",
"l  c #7E7C69",
"z  c #7F7D69",
"x  c #8E0000",
"c  c #8F0000",
"v  c #850009",
"b  c #910F0B",
"n  c #C01012",
"m  c #934438",
"M  c #954E41",
"N  c #91584A",
"B  c #827E67",
"V  c #957661",
"C  c #9D7D69",
"Z  c #7FE440",
"A  c #868169",
"S  c #85836F",
"D  c #8C866B",
"F  c #8D876B",
"G  c #8B876C",
"H  c #8D876C",
"J  c #8D886E",
"K  c #8E896E",
"L  c #908A6F",
"P  c #908A70",
"I  c #908B70",
"U  c #918B70",
"Y  c #928D73",
"T  c #938E74",
"R  c #938F74",
"E  c #928E75",
"W  c #908E77",
"Q  c #948E74",
"!  c #948F75",
"~  c #9C8C74",
"^  c #949076",
"/  c #959076",
"(  c #959177",
")  c #969177",
"_  c #969277",
"`  c #91917A",
"'  c #969278",
"]  c #979278",
"[  c #979378",
"{  c #979379",
"}  c #989479",
"|  c #98947A",
" . c #98957A",
".. c #98957B",
"X. c #99967C",
"o. c #9A967C",
"O. c #9A977C",
"+. c #9A977D",
"@. c #9B987D",
"#. c #9B987E",
"$. c #9C987E",
"%. c #9C997F",
"&. c #9D997F",
"*. c #9C9A7F",
"=. c #9D9A7F",
"-. c #A4947D",
";. c #8FE54B",
":. c #ACE75D",
">. c #AEE75E",
",. c #AFE75F",
"<. c #B2E861",
"1. c #B3E861",
"2. c #B4E862",
"3. c #B8E865",
"4. c #B9E865",
"5. c #B9E866",
"6. c #BCE867",
"7. c #BEE96A",
"8. c #C1E96A",
"9. c #C1E96B",
"0. c #C2E96B",
"q. c #C3E96C",
"w. c #C4E96D",
"e. c #C5E96D",
"r. c #C7E96F",
"t. c #C5EA71",
"y. c #CCEA70",
"u. c #CCEA72",
"i. c #CEEB78",
"p. c #D1EB79",
"a. c #D3EB7B",
"s. c #D4EB7B",
"d. c #9F9780",
"f. c #999881",
"g. c #999981",
"h. c #9B9B83",
"j. c #9C9A80",
"k. c #9D9A80",
"l. c #9D9B81",
"z. c #9E9A80",
"x. c #9F9A81",
"c. c #9E9B81",
"v. c #9D9B82",
"b. c #9E9C81",
"n. c #9F9C82",
"m. c #9F9D82",
"M. c #9F9D83",
"N. c #9C9B84",
"B. c #A09D83",
"V. c #A09E84",
"C. c #A19E84",
"Z. c #A19F85",
"A. c #A1A085",
"S. c #A2A086",
"D. c #A2A187",
"F. c #A3A187",
"G. c #A4A187",
"H. c #A2A189",
"J. c #A3A288",
"K. c #A4A388",
"L. c #A4A289",
"P. c #A5A489",
"I. c #A5A48A",
"U. c #A4A48B",
"Y. c #A6A48A",
"T. c #A6A58B",
"R. c #A6A68C",
"E. c #A7A68C",
"W. c #A7A68D",
"Q. c #A7A78D",
"!. c #A8A78D",
"~. c #A8A88E",
"^. c #A9A88E",
"/. c #A9A98F",
"(. c #AAA98F",
"). c #AAAA90",
"_. c #AAAB90",
"`. c #AAAB91",
"'. c #ABAB91",
"]. c #ABAC91",
"[. c #DBED85",
"{. c #D4EB8C",
"}. c #DFEE8B",
"|. c #DFED95",
" X c #E0EE8C",
".X c #E0ED97",
"XX c #E6EF9E",
"oX c #EBF1A1",
"OX c #EDF1AB",
"+X c #F4F1D5",
"@X c #F6F1D6",
"#X c #FAF2DF",
"$X c #FBF2E2",
"%X c #FBF2E3",
"&X c None",
/* pixels */
"&X&X&X&X&X&X&X&X&X&X&X&X&X&X&X&X&X&X&X&X&X&X&X&X&X&X&X&X&X&X&X&X&X&X&X&X&X&X&X&X&X&X&X&X&X&X&X&X&X&X&X&X&X&X&X&X&X&X&X&X&X&X&X&X&X&X&X&X&X&X&X&X&X&X&X&X&X&X&X&X&X&X&X&X&X&X&X&X&X&X",
"&X&X&X&X&X&X&X&X&X&X&X&X&X&X&X&X&X&X&X&X&X&X&X&X&X&X&X&X&X&X&X&X&X&X&X&X&X&X&X&X&X&X&X&X&X&X&X&X&X&X&X&X&X&X&X&X&X&X&X&X&X&X&X&X&X&X&X&X&X&X&X&X&X&X&X&X&X&X&X&X&X&X&X&X&X&X&X&X&X&X",
"&X&X&X&X&X&X&X&X&X&X&X&X&X&X&X&X&X&X&X&X&X&X&X&X&X&X&X&X&X&X&X&X&X&X&X&X&X&X&X&X&X&X&X&X&X&X&X&X&X&X&X&X&X&X&X&X&X&X&X&X&X&X&X&X&X&X&X&X&X&X&X&X&X&X&X&X&X&X&X&X&X&X&X&X&X&X&X&X&X&X",
"&X&X&X&X&X&X&X&X&X&X&X&X&X&X&X&X&X&X&X&X&X&X&X&X&X&X&X&X&X&X&X&X&X&X&X&X&X&X&X&X&X&X&X&X&X&X&X&X&X&X&X&X&X&X&X&X&X&X&X&X&X&X&X&X&X&X&X&X&X&X&X&X&X&X&X&X&X&X&X&X&X&X&X&X&X&X&X&X&X&X",
"&X&X&X&X&X&X&X&X&X&X&X&X&X&X&X&X&X&X&X&X&X&X&X&X&X&X&X&X&X&X&X&X&X&X&X&X&X&X&X&X&X&X&X&X&X&X&X&X&X&X&X&X&X&X&X&X&X&X&X&X&X&X&X&X&X&X&X&X&X&X&X&X&X&X&X&X&X&X&X&X&X&X&X&X&X&X&X&X&X&X",
"&X&X&X&X&X&X&X&X&X&X&X&X&X&X&X&X&X&X&X&X&X&X&X&X&X&X&X&X&X&X&X&X&X&X&X&X&X&X&X&X&X&X&X&X&X&X&X&X&X&X&X&X&X&X&X&X&X&X&X&X&X&X&X&X&X&X&X&X&X&X&X&X&X&X&X&X&X&X&X&X&X&X&X&X&X&X&X&X&X&X",
"&X&X&X&X&X&X&X&X&X&X&X&X&X&X&X&X&X&X&X&X&X&X&X&X&X&X&X&X&X&X&X&X&X&X&X&X&X&X&X&X&X&X&X&X&X&X&X&X&X&X&X&X&X&X&X&X&X&X&X&X&X&X&X&X&X&X&X&X&X&X&X&X&X&X&X&X&X&X&X&X&X&X&X&X&X&X&X&X&X&X",
"&X&X&X&X&X&X&X&X&X&X&X&X&X&X&X&X&X&X&X&X&X&X&X&X&X&X&X&X&X&X&X&X&X&X&X&X&X&X&X&X&X&X&X&X&X&X&X&X&X&X&X&X&X&X&X&X&X&X&X&X&X&X&X&X&X&X&X&X&X&X&X&X&X&X&X&X&X&X&X&X&X&X&X&X&X&X&X&X&X&X",
"&X&X&X&X&X&X&X&X&X&X&X&X&X&X&X&X&X&X&X&X&X&X&X&X&X&X&X&X&X&X&X&X&X&X&X&X&X&X&X&X&X&X).*.! ).&X&X&X&X&X).).&X&X&X&X&X&X&X&X&X&X&X&X&X&X&X&X&X&X&X&X&X&X&X&X&X&X&X&X&X&X&X&X&X&X&X&X&X",
"&X&X&X&X&X&X&X&X&X&X&X&X&X&X&X&X&X&X&X&X&X&X&X&X&X&X&X&X&X&X&X&X&X&X&X&X&X&X&X&X'.).).'.l.Q.).).&X&XS.I.L.n.&X&X&X&X&X&X&X&X&X&X&X&X&X&X&X&X&X&X&X&X&X&X&X&X&X&X&X&X&X&X&X&X&X&X&X&X",
"&X&X&X&X&X&X&X&X&X&X&X&X&X&X&X&X&X&X&X&X&X&X&X&X&X&X&X&X&X&X&X&X&X&X&X&X&X&X&X&X^ I.).).T.Z.).).).&XM.S.V.E./.&X&X&X&X&X&X&X&X&X&X&X&X&X&X&X&X&X&X&X&X&X&X&X&X&X&X&X&X&X&X&X&X&X&X&X",
"&X&X&X&X&X&X&X&X&X&X&X&X&X&X&X&X&X&X&X&X&X&X&X&X&X&X&X&X&X&X&X&X&X&X&X&X&X&X&X).).S.T.I.).R T.). ./.B.!./.B.V.x.&X&X&X&X&X&X&X&X&X&X&X&X&X&X&X&X&X&X&X&X&X&X&X&X&X&X&X&X&X&X&X&X&X&X",
"&X&X&X&X&X&X&X&X&X&X&X&X&X&X&X&X&X&X&X&X&X&X&X&X&X&X&X&X&X&X&X&X&X&X&X&X&X&XM.'.)./.m.J.c.| I.#.~.].).T.E.).E.-.&X&X&X&X&X&X&X&X&X&X&X&X&X&X&X&X&X&X&X&X&X&X&X&X&X&X&X&X&X&X&X&X&X&X",
"&X&X&X&X&X&X&X&X&X&X&X&X&X&X&X&X&X&X&X&X&X&X&X&X&X&X&X&X&X&X&X&X&X&X&X&X&X&X/ ( K.J.B.] #.$.) /.N.  f.).T.).).).&X&X&X&X&X&X&X&X&X&X&X&X&X&X&X&X&X&X&X&X&X&X&X&X&X&X&X&X&X&X&X&X&X&X",
"&X&X&X&X&X&X&X&X&X&X&X&X&X&X&X&X&X&X&X&X&X&X&X&X&X&X&X&X&X&X&X&X&X&X&X&X&X&X).).R._ T L I U K /.N 9 7 h.).H.g./.).&X&X&X&X&X/.T.).&X&X&X&X&X&X&X&X&X&X&X&X&X&X&X&X&X&X&X&X&X&X&X&X&X",
"&X&X&X&X&X&X&X&X&X&X&X&X&X&X&X&X&X&X&X&X&X&X&X&X&X&X&X&X&X&X&X&X&X&X&X&X&Xc.).`.'.%.J.Y.Y.P.j.%.Z.x n d.).).` i l '.&X&X&XZ.Z.' S.n.&X&X&X&X&X&X&X&X&X&X&X&X&X&X&X&X&X&X&X&X&X&X&X&X",
"&X&X&X&X&X&X&X&X&X&X&X&X&X&X&X&X&X&X&X&X&X&X&X&X&X&X&X&X&X&X&X&X&X&X&X&X&Xn.D.{ l.o.#.3 4 w c.).Q V M _.).).).S 0 S v &X/.b.H H &.n.&X&X&X&X&X&X&X&X&X&X&X&X&X&X&X&X&X&X&X&X&X&X&X&X",
"&X&X&X&X&X&X&X&X&X&X&X&X&X&X&X&X&X&X&X&X&X&X&X&X&X&X&X&X&X&X&X&X&X&X&X&X&XU.| ^.k.=.F.g - > s /.! G m !.).).).W.1 q a /...| &X&XT n.&X&X&X&X&X&X&X&X&X&X&X&X&X&X&X&X&X&X&X&X&X&X&X&X",
"&X&X&X&X&X&X&X&X&X&X&X&X&X&X&X&X&X&X&X&X&X&X&X&X&X&X&X&X&X&X&X&X&X&X&X&X- X F./.#.! ).W f f [ @.n.p c ~ E.).).'.z . O v.D F &X&XH &X&X&X&X&X&X&X&X&X&X&X&X&X&X&X&X&X&X&X&X&X&X&X&X&X",
"&X&X&X&X&X&X&X&X&X&X&X&X&X&X&X&X&X&X&X&X&X&X&X&X&X&X&X&X&X&X&X&X&X&X&X&X- - t T.+.).J.Q.O.X.Q.T.$.u @ b A.E.!.!.!.h 2 { H &X&X&X&X&X&X&X&X&X&X&X&X&X&X&X&X&X&X&X&X&X&X&X&X&X&X&X&X&X",
"&X&X&X&X&X&X&X&X&X&X&X&X&X&X&X&X&X&X&X&X&X&X&X&X&X&X&X&X&X&X&X&X&X&X- - - - < A c.C.~.#./.(.j.P r $ + 8 C G.J P Y V.E H &X&X&X&X&X&X&X&X&X&X&X&X&X&X&X&X&X&X&X&X&X&X&X&X&X&X&X&X&X&X",
"&X&X&X&X&X&X&X&X&X&X&X&X&X&X&X&X&X&X&X&X&X&X&X&X&X&X&X&X&X&X&X&X- - - - - - - ; B _ z.#.{ } [ y # - = * 6 5 o &X&X&X&X&X&X&X&X&X&X&X&X&X&X&X&X&X&X&X&X&X&X&X&X&X&X&X&X&X&X&X&X&X&X&X",
"&X&X&X&X&X&X&X&X&X&X&X&X&X&X&X&X&X&X&X&X&X&X&X&X&X&X&X&X&X&X&X- - - - - - - - - : & d j k e , - - - - - - - - - &X&X&X&X&X&X&X&X&X&X&X&X&X&X&X&X&X&X&X&X&X&X&X&X&X&X&X&X&X&X&X&X&X&X",
"&X&X&X&X&X&X&X&X&X&X&X&X&X&X&X&X&X&X&X&X&X&X&X&X&X&X&X&X&X&X- - - - - - - - - - - - % $ &X&X&X&X&X&X&X&X&X&X- - &X&X&X&X&X&X&X&X&X&X&X&X&X&X&X&X&X&X&X&X&X&X&X&X&X&X&X&X&X&X&X&X&X&X",
"&X&X&X&X&X&X&X&X&X&X&X&X&X&X&X&X&X&X&X&X&X&X&X&X&X&X&X&X&X- - - - - - - - - - - - - &X&X&X&X&X&X&X&X&X&X&X&X&X- - &X&X&X&X&X&X&X&X&X&X&X&X&X&X&X&X&X&X&X&X&X&X&X&X&X&X&X&X&X&X&X&X&X",
"&X&X&X&X&X&X&X&X&X&X&X&X&X&X&X&X&X&X&X&X&X&X&X&X&X&X&X&X- - - - - - - - - - - - - &X&X&X&X&X&X&X&X5.&X&X&X&X&X&X- &X&X&X&X&X&X&X&X&X&X&X&X&X&X&X&X&X&X&X&X&X&X&X&X&X&X&X&X&X&X&X&X&X",
"&X&X&X&X&X&X&X&X&X&X&X&X&X&X&X&X&X&X&X&X&X&X&X&X&X&X&X&X- - - - - - - - - - - - - &X&X&X&X&X&X&X&X&XZ &X&X&X&X&X- &X&X&X&X&X&X&X&X&X&X&X&X&X&X&X&X&X&X&X&X&X&X&X&X&X&X&X&X&X&X&X&X&X",
"&X&X&X&X&X&X&X&X&X&X&X&X&X&X&X&X&X&X&X&X&X&X&X&X&X&X&X- - - - - - - - - - - - - &X&X&X&X&X&X&X&X&X&X3.r.&X&X&X&X&X&X&X&X&X&X&X&X&X&X&X&X&X&X&X&X&X&X&X&X&X&X&X&X&X&X&X&X&X&X&X&X&X&X",
"&X&X&X&X&X&X&X&X&X&X&X&X&X&X&X&X&X&X&X&X&X&X&X&X&X&X&X- - - - - - - - - - - - - &X&X&X&X&X&Xe.9.0.1.,.q.&X&X&X&X&X&X&X&X&X&X&X&X&X&X&X&X&X&X&X&X&X&X&X&X&X&X&X&X&X&X&X&X&X&X&X&X&X&X",
"&X&X&X&X&X&X&X&X&X&X&X&X&X&X&X&X&X&X&X&X&X&X&X&X&X&X- - - - - - - - - - - - - - &X&X&X&X&X&X:.q.:.w.&X&X&X&X&X&X&X&X&X&X&X&X&X&X&X&X&X&X&X&X&X&X&X&X&X&X&X&X&X&X&X&X&X&X&X&X&X&X&X&X",
"&X&X&X&X&X&X&X&X&X&X&X&X&X&X&X&X&X&X&X&X&X&X&X&X&X&X- - - - - - - - - - - - - - &X&X&X&X&X&X6.p.>.2.&X;.&X&X&X&X&X&X&X&X&X&X&X&X&X&X&X&X&X&X&X&X&X&X&X&X&X&X&X&X&X&X&X&X&X&X&X&X&X&X",
"&X&X&X&X&X&X&X&X&X&X&X&X&X&X&X&X&X&X&X&X&X&X&X&X&X&X&X- - - - - - - - - - - - - &X&X&X&X&X&X7.}.a.8.<.4.&X&X&X&X&X&X&X&X&X&X&X&X&X&X&X&X&X&X&X&X&X&X&X&X&X&X&X&X&X&X&X&X&X&X&X&X&X&X",
"&X&X&X&X&X&X&X&X&X&X&X&X&X&X&X&X&X&X&X&X&X&X&X&X&X&X&X&X&X- - - - - - - - - - - &X&X&X&X&X&Xt.oX X[.u.<.&X&X&X&X&X&X&X&X&X&X&X&X&X&X&X&X&X&X&X&X&X&X&X&X&X&X&X&X&X&X&X&X&X&X&X&X&X&X",
"&X&X&X&X&X&X&X&X&X&X&X&X&X&X&X&X&X&X&X&X&X&X&X&X&X&X&X&X&X&X- - - - - - - - - - &X&X&X&X&X&Xi.XXOX@Xs.0.&X&X&X&X&X&X&X&X&X&X&X&X&X&X&X&X&X&X&X&X&X&X&X&X&X&X&X&X&X&X&X&X&X&X&X&X&X&X",
"&X&X&X&X&X&X&X&X&X&X&X&X&X&X&X&X&X&X&X&X&X&X&X&X&X&X&X&X&X- - - - - - - - - - - &X&X&X&X&X&X&X.X#X$X+Xy.&X&X&X&X&X- - &X&X&X&X&X&X&X&X&X&X&X&X&X&X&X&X&X&X&X&X&X&X&X&X&X&X&X&X&X&X&X",
"&X&X&X&X&X&X&X&X&X&X&X&X&X&X&X&X&X&X&X&X&X&X&X&X&X&X&X&X- - - - - - - - - - - - &X&X&X&X&X&X&X&X|.%X{.&X&X&X&X&X&X- - &X&X&X&X&X&X&X&X&X&X&X&X&X&X&X&X&X&X&X&X&X&X&X&X&X&X&X&X&X&X&X",
"&X&X&X&X&X&X&X&X&X&X&X&X&X&X&X&X&X&X&X&X&X&X&X&X&X&X&X&X- - - - - - - - - - - - - &X&X&X&X&X&X&X&X&X&X&X&X&X&X&X- - - &X&X&X&X&X&X&X&X&X&X&X&X&X&X&X&X&X&X&X&X&X&X&X&X&X&X&X&X&X&X&X",
"&X&X&X&X&X&X&X&X&X&X&X&X&X&X&X&X&X&X&X&X&X&X&X&X&X&X&X&X- - - - - - - - - - - - - &X&X&X&X&X&X&X&X&X&X&X&X&X&X- - - - &X&X&X&X&X&X&X&X&X&X&X&X&X&X&X&X&X&X&X&X&X&X&X&X&X&X&X&X&X&X&X",
"&X&X&X&X&X&X&X&X&X&X&X&X&X&X&X&X&X&X&X&X&X&X&X&X&X&X&X- - - - - - - - - - - - - - - - &X&X&X&X&X&X&X&X&X&X&X- - - - - - &X&X&X&X&X&X&X&X&X&X&X&X&X&X&X&X&X&X&X&X&X&X&X&X&X&X&X&X&X&X",
"&X&X&X&X&X&X&X&X&X&X&X&X&X&X&X&X&X&X&X&X&X&X&X&X&X&X- - - - - &X&X&X- - - - - - - - - - - - - - - - - - - - - - - - - &X&X&X&X&X&X&X&X&X&X&X&X&X&X&X&X&X&X&X&X&X&X&X&X&X&X&X&X&X&X&X",
"&X&X&X&X&X&X&X&X&X&X&X&X&X&X&X&X&X&X&X&X&X&X&X&X&X- - - - - &X&X&X&X- - - - - - - - - - - - - - - - - - - - - - - - - &X&X&X&X&X&X&X&X&X&X&X&X&X&X&X&X&X&X&X&X&X&X&X&X&X&X&X&X&X&X&X",
"&X&X&X&X&X&X&X&X&X&X&X&X&X&X&X&X&X&X&X&X&X&X&X&X- - - - &X&X&X&X&X&X&X- - - - - - - - - - - - - - - - - - - - - - - - &X&X&X&X&X&X&X&X&X&X&X&X&X&X&X&X&X&X&X&X&X&X&X&X&X&X&X&X&X&X&X",
"&X&X&X&X&X&X&X&X&X&X&X&X&X&X&X&X&X&X&X&X&X&X&X- - - - &X&X&X&X&X&X&X&X- - - - - - - - - - - - - - - - - - - - - - - - &X&X&X&X&X&X&X&X&X&X&X&X&X&X&X&X&X&X&X&X&X&X&X&X&X&X&X&X&X&X&X",
"&X&X&X&X&X&X&X&X&X&X&X&X&X&X&X&X&X&X&X&X&X&X- - - - &X&X&X&X&X&X&X&X&X&X- - - - - - - - - - - - - - - - - - - - - - &X&X&X&X&X&X&X&X&X&X&X&X&X&X&X&X&X&X&X&X&X&X&X&X&X&X&X&X&X&X&X&X",
"&X&X&X&X&X&X&X&X&X&X&X&X&X&X&X&X&X&X&X&X&X- - - - &X&X&X&X&X&X&X&X&X&X&X&X- - - - - - - - - - - - - - - - - - - - - &X&X&X&X&X&X&X&X&X&X&X&X&X&X&X&X&X&X&X&X&X&X&X&X&X&X&X&X&X&X&X&X",
"&X&X&X&X&X&X&X&X&X&X&X&X&X&X&X&X&X&X&X&X- - - - &X&X&X&X&X&X&X&X&X&X&X&X&X- - - - - - - - - - - - - - - - - - - - - &X&X&X&X&X&X&X&X&X&X&X&X&X&X&X&X&X&X&X&X&X&X&X&X&X&X&X&X&X&X&X&X",
"&X&X&X&X&X&X&X&X&X&X&X&X&X&X&X&X&X&X&X&X- - - &X&X&X&X&X&X&X&X&X&X&X&X&X&X- - - - - - - - - - - - - - - - - - - - - &X&X&X&X&X&X&X&X&X&X&X&X&X&X&X&X&X&X&X&X&X&X&X&X&X&X&X&X&X&X&X&X",
"&X&X&X&X&X&X&X&X&X&X&X&X&X&X&X&X&X&X&X&X- - &X&X&X&X&X&X&X&X&X&X&X&X&X&X&X- - - - - - - - - - - - - - - - - - - - - - &X&X&X&X&X&X&X&X&X&X&X&X&X&X&X&X&X&X&X&X&X&X&X&X&X&X&X&X&X&X&X",
"&X&X&X&X&X&X&X&X&X&X&X&X&X&X&X&X&X&X&X&X- - &X&X&X&X&X&X&X&X&X&X&X&X&X&X&X- - - - - - - - - - - - - - - - - - - - - - &X&X&X&X&X&X&X&X&X&X&X&X&X&X&X&X&X&X&X&X&X&X&X&X&X&X&X&X&X&X&X",
"&X&X&X&X&X&X&X&X&X&X&X&X&X&X&X&X&X&X&X&X&X- &X&X&X&X&X&X&X&X&X&X&X&X&X&X&X- - - - - - - - - - - - - - - - - - - - - - &X&X&X&X&X&X&X&X&X&X&X&X&X&X&X&X&X&X&X&X&X&X&X&X&X&X&X&X&X&X&X",
"&X&X&X&X&X&X&X&X&X&X&X&X&X&X&X&X&X&X&X&X&X- &X&X&X&X&X&X&X&X&X&X&X&X&X&X&X- - - - - - - - - - - - - - - - - - - - - - - &X&X&X&X&X&X&X&X&X&X&X&X&X&X&X&X&X&X&X&X&X&X&X&X&X&X&X&X&X&X",
"&X&X&X&X&X&X&X&X&X&X&X&X&X&X&X&X&X&X&X&X&X- &X&X&X&X&X&X&X&X&X&X&X&X&X&X&X- - - - - - - - - - - - - - &X- - - - - - - - &X&X&X&X&X&X&X&X&X&X&X&X&X&X&X&X&X&X&X&X&X&X&X&X&X&X&X&X&X&X",
"&X&X&X&X&X&X&X&X&X&X&X&X&X&X&X&X&X&X&X&X&X- &X&X&X&X&X&X&X&X&X&X&X&X&X&X&X- - - - - - - - - - - - - - &X&X- - - - - - - &X&X&X&X&X&X&X&X&X&X&X&X&X&X&X&X&X&X&X&X&X&X&X&X&X&X&X&X&X&X",
"&X&X&X&X&X&X&X&X&X&X&X&X&X&X&X&X&X&X&X&X&X- &X&X&X&X&X&X&X&X&X&X&X&X&X&X&X- - - - - - - - - - - - - &X&X&X&X- - - - - - &X&X&X&X&X&X&X&X&X&X&X&X&X&X&X&X&X&X&X&X&X&X&X&X&X&X&X&X&X&X",
"&X&X&X&X&X&X&X&X&X&X&X&X&X&X&X&X&X&X&X&X&X- &X&X&X&X&X&X&X&X&X&X&X&X&X&X&X- - - - - - - - - - - - - &X&X&X&X&X- - - - - - &X&X&X&X&X&X&X&X&X&X&X&X&X&X&X&X&X&X&X&X&X&X&X&X&X&X&X&X&X",
"&X&X&X&X&X&X&X&X&X&X&X&X&X&X&X&X&X&X&X&X- - &X&X&X&X&X&X&X&X&X&X&X&X&X&X&X&X- - - - - - - - - - - - &X&X&X&X&X&X- - - - - &X&X&X&X&X&X&X&X&X&X&X&X&X&X&X&X&X&X&X&X&X&X&X&X&X&X&X&X&X",
"&X&X&X&X&X&X&X&X&X&X&X&X&X&X&X&X&X&X&X&X- - &X&X&X&X&X&X&X&X&X&X&X&X&X&X&X&X- - - - - - - - - - - &X&X&X&X&X&X&X&X- - - - - &X&X&X&X&X&X&X&X&X&X&X&X&X&X&X&X&X&X&X&X&X&X&X&X&X&X&X&X",
"&X&X&X&X&X&X&X&X&X&X&X&X&X&X&X&X&X&X&X- - - &X&X&X&X&X&X&X&X&X&X&X&X&X&X&X&X&X- - - - - - - - - - &X&X&X&X&X&X&X&X- - - - - - &X&X&X&X&X&X&X&X&X&X&X&X&X&X&X&X&X&X&X&X&X&X&X&X&X&X&X",
"&X&X&X&X&X&X&X&X&X&X&X&X&X&X&X&X&X&X&X- - &X&X&X&X&X&X&X&X&X&X&X&X&X&X&X&X&X&X- - - - - - - - - - &X&X&X&X&X&X&X&X- - - - - - &X&X&X&X&X&X&X&X&X&X&X&X&X&X&X&X&X&X&X&X&X&X&X&X&X&X&X",
"&X&X&X&X&X&X&X&X&X&X- - &X&X&X&X&X&X&X- - &X&X&X&X&X&X&X&X&X&X&X&X&X&X&X&X&X&X- - - - - - - - - - &X&X&X&X&X&X&X&X- - - - - - &X&X&X&X&X&X&X&X&X&X&X&X&X&X&X&X&X&X&X&X&X&X&X&X&X&X&X",
"&X&X&X&X&X&X&X&X&X- - &X&X&X&X&X&X- - - &X&X&X&X&X&X&X&X&X&X&X&X&X&X&X&X&X&X&X- - - - - - - - - - &X&X&X&X&X&X&X&X&X- - - - - - &X&X&X&X&X&X&X&X&X&X&X&X&X&X&X&X&X&X&X&X&X&X&X&X&X&X",
"&X&X&X&X&X&X&X&X- - - &X&X&X&X&X- - - &X&X&X&X&X&X&X&X&X&X&X&X&X&X&X&X&X&X&X&X- - - &X&X- - - - - &X&X&X&X&X&X&X&X&X&X- - - - - &X&X&X&X&X&X&X&X&X&X&X&X&X&X&X&X&X&X&X&X&X&X&X&X&X&X",
"&X&X&X&X&X&X&X- - - &X&X- - &X- - - &X&X&X&X&X&X&X&X&X&X&X&X&X&X&X&X&X&X&X&X&X- - - &X&X- - - - - &X&X&X&X&X&X&X&X&X&X- - - - - - &X&X&X&X&X&X&X&X&X&X&X&X&X&X&X&X&X&X&X&X&X&X&X&X&X",
"&X&X&X&X&X&X&X- - - - - - - - - - - &X&X&X&X&X&X&X&X&X&X&X&X&X&X&X&X&X&X&X&X&X- - - &X&X&X- - - - &X&X&X&X&X&X&X&X&X&X&X- - - - - &X&X&X&X&X&X&X&X&X&X&X&X&X&X&X&X&X&X&X&X&X&X&X&X&X",
"&X&X&X&X&X&X&X- - - - - - - - - &X&X&X&X&X&X&X&X&X&X&X&X&X&X&X&X&X&X&X&X&X&X&X- - - &X&X&X- - - - - &X&X&X&X&X&X&X&X&X&X- - - - - - &X&X&X&X&X&X&X&X&X&X&X&X&X&X&X&X&X&X&X&X&X&X&X&X",
"&X&X&X&X&X&X&X&X- - - - - - - &X&X&X&X&X&X&X&X&X&X&X&X&X&X&X&X&X&X&X&X&X&X&X- - - - &X&X&X- - - - - &X&X&X&X&X&X&X&X&X&X- - - - - - - &X&X&X&X&X&X&X&X&X&X&X&X&X&X&X&X&X&X&X&X&X&X&X",
"&X&X&X&X&X&X&X&X&X- - &X&X&X&X&X&X&X&X&X&X&X&X&X&X&X&X&X&X&X&X&X&X&X&X&X&X&X- - - &X&X&X&X&X- - - - &X&X&X&X&X&X&X&X&X&X&X- - - - - - - &X&X&X&X&X&X&X&X&X&X&X&X&X&X&X&X&X&X&X&X&X&X",
"&X&X&X&X&X&X&X&X&X&X&X&X&X&X&X&X&X&X&X&X&X&X&X&X&X&X&X&X&X&X&X&X&X&X&X&X&X&X- - - &X&X&X&X&X- - - - &X&X&X&X&X&X&X&X&X&X&X- - - - - - - &X&X&X&X&X&X&X&X&X&X&X&X&X&X&X&X&X&X&X&X&X&X",
"&X&X&X&X&X&X&X&X&X&X&X&X&X&X&X&X&X&X&X&X&X&X&X&X&X&X&X&X&X&X&X&X&X&X&X&X&X&X- - - &X&X&X&X&X&X- - - &X&X&X&X&X&X&X&X&X&X&X- - - - - - - &X&X&X&X&X&X&X&X&X&X&X&X&X&X&X&X&X&X&X&X&X&X",
"&X&X&X&X&X&X&X&X&X&X&X&X&X&X&X&X&X&X&X&X&X&X&X&X&X&X&X&X&X&X&X&X&X&X&X&X&X&X- - - &X&X&X&X&X&X- - - &X&X&X&X&X&X&X&X&X&X&X&X- - - - - - &X&X&X&X&X&X&X&X&X&X&X&X&X&X&X&X&X&X&X&X&X&X",
"&X&X&X&X&X&X&X&X&X&X&X&X&X&X&X&X&X&X&X&X&X&X&X&X&X&X&X&X&X&X&X&X&X&X&X&X&X- - - - &X&X&X&X&X&X- - - &X&X&X&X&X&X&X&X&X- &X&X&X- - - - - &X&X&X&X&X&X&X&X&X&X&X&X&X&X&X&X&X&X&X&X&X&X",
"&X&X&X&X&X&X&X&X&X&X&X&X&X&X&X&X&X&X&X&X&X&X&X&X&X&X&X&X&X&X&X&X&X&X&X&X&X- - - - &X&X&X&X&X&X- - - &X&X&X&X&X&X&X&X&X- &X&X&X- - - - &X&X&X&X&X&X&X&X&X&X&X&X&X&X&X&X&X&X&X&X&X&X&X",
"&X&X&X&X&X&X&X&X&X&X&X&X&X&X&X&X&X&X&X&X&X&X&X&X&X&X&X&X&X&X&X&X&X&X&X&X- - - - - &X&X&X&X&X- - - - &X&X&X&X&X&X&X&X&X- - - - - - - - &X&X&X&X&X&X&X&X&X&X&X&X&X&X&X&X&X&X&X&X&X&X&X",
"&X&X&X&X&X&X&X&X&X&X&X&X&X&X&X&X&X&X&X&X&X&X&X&X&X&X&X&X&X&X&X&X&X&X&X- - - - - - &X&X&X&X&X&X- - - &X&X&X&X&X&X&X&X&X- - - - - - - &X&X&X&X&X&X&X&X&X&X&X&X&X&X&X&X&X&X&X&X&X&X&X&X",
"&X&X&X&X&X&X&X&X&X&X&X&X&X&X&X&X&X&X&X&X&X&X&X&X&X&X&X&X&X&X&X&X&X&X- - - - - - &X&X&X&X&X&X&X- - - &X&X&X&X&X&X&X&X&X&X- - - - - - &X&X&X&X&X&X&X&X&X&X&X&X&X&X&X&X&X&X&X&X&X&X&X&X",
"&X&X&X&X&X&X&X&X&X&X&X&X&X&X&X&X&X&X&X&X&X&X&X&X&X&X&X&X&X&X&X&X&X- - - - - - &X&X&X&X&X&X&X&X&X- - - &X&X&X&X&X&X&X&X&X- - - - - &X&X&X&X&X&X&X&X&X&X&X&X&X&X&X&X&X&X&X&X&X&X&X&X&X",
"&X&X&X&X&X&X&X&X&X&X&X&X&X&X&X&X&X&X&X&X&X&X&X&X&X&X&X&X&X&X&X&X&X- - - - - &X&X&X&X&X&X&X&X&X&X- - - &X&X&X&X&X&X&X&X&X- - - - &X&X&X&X&X&X&X&X&X&X&X&X&X&X&X&X&X&X&X&X&X&X&X&X&X&X",
"&X&X&X&X&X&X&X&X&X&X&X&X&X&X&X&X&X&X&X&X&X&X&X&X&X&X&X&X&X&X&X&X- - - - - &X&X&X&X&X&X&X&X&X&X&X&X- - &X&X&X&X&X&X&X&X&X&X&X&X&X&X&X&X&X&X&X&X&X&X&X&X&X&X&X&X&X&X&X&X&X&X&X&X&X&X&X",
"&X&X&X&X&X&X&X&X&X&X&X&X&X&X&X&X&X&X&X&X&X&X&X&X&X&X&X&X&X&X&X- - - - - &X&X&X&X&X&X&X&X&X&X&X&X&X&X- - &X&X&X&X&X&X&X&X&X&X&X&X&X&X&X&X&X&X&X&X&X&X&X&X&X&X&X&X&X&X&X&X&X&X&X&X&X&X",
"&X&X&X&X&X&X&X&X&X&X&X&X&X&X&X&X&X&X&X&X&X&X&X&X&X&X&X&X&X&X&X- - - - - &X&X&X&X&X&X&X&X&X&X&X&X&X&X- - &X&X&X&X&X&X&X&X&X&X&X&X&X&X&X&X&X&X&X&X&X&X&X&X&X&X&X&X&X&X&X&X&X&X&X&X&X&X",
"&X&X&X&X&X&X&X&X&X&X&X&X&X&X&X&X&X&X&X&X&X&X&X&X&X&X&X&X&X&X- - - - - - &X&X&X&X&X&X&X&X&X&X&X&X&X&X- - &X&X&X&X&X&X&X&X&X&X&X&X&X&X&X&X&X&X&X&X&X&X&X&X&X&X&X&X&X&X&X&X&X&X&X&X&X&X",
"&X&X&X&X&X&X&X&X&X&X&X&X&X&X&X&X&X&X&X&X&X&X&X&X&X&X&X&X&X&X&X- - - - &X&X&X&X&X&X&X&X&X&X&X&X&X&X&X- - &X&X&X&X&X&X&X&X&X&X&X&X&X&X&X&X&X&X&X&X&X&X&X&X&X&X&X&X&X&X&X&X&X&X&X&X&X&X",
"&X&X&X&X&X&X&X&X&X&X&X&X&X&X&X&X&X&X&X&X&X&X&X&X&X&X&X&X&X&X- - - - &X&X&X&X&X&X&X&X&X&X&X&X&X&X&X&X- - - &X&X&X&X&X&X&X&X&X&X&X&X&X&X&X&X&X&X&X&X&X&X&X&X&X&X&X&X&X&X&X&X&X&X&X&X&X",
"&X&X&X&X&X&X&X&X&X&X&X&X&X&X&X&X&X&X&X&X&X&X&X&X&X&X&X&X&X&X- - - &X&X&X&X&X&X&X&X&X&X&X&X&X&X&X&X&X- - - &X&X&X&X&X&X&X&X&X&X&X&X&X&X&X&X&X&X&X&X&X&X&X&X&X&X&X&X&X&X&X&X&X&X&X&X&X",
"&X&X&X&X&X&X&X&X&X&X&X&X&X&X&X&X&X&X&X&X&X&X&X&X&X&X&X&X&X&X- - &X&X&X&X&X&X&X&X&X&X&X&X&X&X&X&X&X&X- - - &X&X&X&X&X&X&X&X&X&X&X&X&X&X&X&X&X&X&X&X&X&X&X&X&X&X&X&X&X&X&X&X&X&X&X&X&X",
"&X&X&X&X&X&X&X&X&X&X&X&X&X&X&X&X&X&X&X&X&X&X&X&X&X&X&X&X&X- - - &X&X&X&X&X&X&X&X&X&X&X&X&X&X&X&X&X&X- - - &X&X&X&X&X&X&X&X&X&X&X&X&X&X&X&X&X&X&X&X&X&X&X&X&X&X&X&X&X&X&X&X&X&X&X&X&X",
"&X&X&X&X&X&X&X&X&X&X&X&X&X&X&X&X&X&X&X&X&X&X&X&X&X&X&X&X- - - - - &X&X&X&X&X&X&X&X&X&X&X&X&X&X&X&X&X- - - - &X&X&X&X&X&X&X&X&X&X&X&X&X&X&X&X&X&X&X&X&X&X&X&X&X&X&X&X&X&X&X&X&X&X&X&X",
"&X&X&X&X&X&X&X&X&X&X&X&X&X&X&X&X&X&X&X&X&X&X&X&X&X&X&X&X- - - - - &X&X&X&X&X&X&X&X&X&X&X&X&X&X&X&X&X&X- - - - - - - &X&X&X&X&X&X&X&X&X&X&X&X&X&X&X&X&X&X&X&X&X&X&X&X&X&X&X&X&X&X&X&X",
"&X&X&X&X&X&X&X&X&X&X&X&X&X&X&X&X&X&X&X&X&X&X&X&X&X&X&X&X&X- - - - - - &X&X&X&X&X&X&X&X&X&X&X&X&X&X&X&X- - - - - - - - - &X&X&X&X&X&X&X&X&X&X&X&X&X&X&X&X&X&X&X&X&X&X&X&X&X&X&X&X&X&X",
"&X&X&X&X&X&X&X&X&X&X&X&X&X&X&X&X&X&X&X&X&X&X&X&X&X&X&X&X&X&X&X&X- - - - &X&X&X&X&X&X&X&X&X&X&X&X&X&X&X- - - - - - - - &X&X&X&X&X&X&X&X&X&X&X&X&X&X&X&X&X&X&X&X&X&X&X&X&X&X&X&X&X&X&X"
};
