/* XPM */
static char *result[] = {
/* columns rows colors chars-per-pixel */
"64 64 8 1 ",
"  c gray22",
". c gray40",
"X c #947D75",
"o c #9B9B9B",
"O c #C1C0A9",
"+ c gray76",
"@ c #FEFFEF",
"# c None",
/* pixels */
"################################################################",
"################################################################",
"################################################################",
"################################################################",
"################################################################",
"################################################################",
"################################################################",
"################################################################",
"################################################################",
"################################################################",
"################################################################",
"################################################################",
"################################################################",
"################################################################",
"################################################################",
"################################################################",
"################################################################",
"################################################################",
"################################################################",
"################################################################",
"################################################################",
"################################################################",
"################################################################",
"##############################   ###############################",
"############################## + ###############################",
"############################# o+o ##############################",
"############################ o+++o #############################",
"############################ o+++o #############################",
"############################ .   . #############################",
"############################ .o.o. #############################",
"###########################  o.o.o  ############################",
"########################## o+     +o ###########################",
"########################## ++.+++.++ ###########################",
"########################## . o+++o . ###########################",
"########################## .  ...  . ###########################",
"########################## X o+++o o ###########################",
"########################## @ .   . . ###########################",
"########################## @  . .    ###########################",
"###########################@ .+ +. #############################",
"###########################O oo oo #############################",
"############################ .. .. #############################",
"############################ o+ +o #############################",
"################################################################",
"################################################################",
"################################################################",
"################################################################",
"################################################################",
"################################################################",
"################################################################",
"################################################################",
"################################################################",
"################################################################",
"################################################################",
"################################################################",
"################################################################",
"################################################################",
"################################################################",
"################################################################",
"################################################################",
"################################################################",
"################################################################",
"################################################################",
"################################################################",
"################################################################"
};
