/* XPM */
static char *result[] = {
/* columns rows colors chars-per-pixel */
"84 84 16 1 ",
"  c #290809",
". c #151825",
"X c #532E10",
"o c #462622",
"O c #363D5F",
"+ c #C9292D",
"@ c #D7393D",
"# c #8A4D1A",
"$ c #AC6121",
"% c #D4B400",
"& c #D98239",
"* c #E29F65",
"= c #FFE44C",
"- c #525B92",
"; c #ACB1D0",
": c None",
/* pixels */
"::::::::::::::::::::::::::::::::::::::::::::::::::::::::::::::::::::::::::::::::::::",
"::::::::::::::::::::::::::::::::::::::::::::::::::::::::::::::::::::::::::::::::::::",
"::::::::::::::::::::::::::::::::::::::::::::::::::::::::::::::::::::::::::::::::::::",
"::::::::::::::::::::::::::::::::::::::::::::::::::::::::::::::::::::::::::::::::::::",
"::::::::::::::::::::::::::::::::::::::::::::::::::::::::::::::::::::::::::::::::::::",
"::::::::::::::::::::::::::::::::::::::::::::::::::::::::::::::::::::::::::::::::::::",
"::::::::::::::::::::::::::::::::::::::::::::::::::::::::::::::::::::::::::::::::::::",
"::::::::::::::::::::::::::::::::::::::::::::::::::::::::::::::::::::::::::::::::::::",
"::::::::::::::::::::::::::::::::::::::::::::::::::::::::::::::::::::::::::::::::::::",
"::::::::::::::::::::::::::::::::::::::::::::::::::::::::::::::::::::::::::::::::::::",
"::::::::::::::::::::::::::::::::::**::::::::::::::::::::::::::::::::::::::::::::::::",
"::::::::::::::::::::::::::::::::::**::::::::::::::::::::::::::::::::::::::::::::::::",
"::::::::::::::::::::::::::::::::$$**::::::::::::::::::::::::::::::::::::::::::::::::",
"::::::::::::::::::::::::::::::::$$**::::::::::::::::::::::::::::::::::::::::::::::::",
"::::::::::::::::::::::::::::::;;####;;::::::::::::::::::::::::::::::::::::::::::::::",
"::::::::::::::::::::::::::::::;;####;;::::::::::::::::::::::::::::::::::::::::::::::",
"::::::::::::::::::::::::::::OOOO####OO::::::::::::::::::::::::::::::::::::::::::::::",
"::::::::::::::::::::::::::::OOOO####OO::::::::::::::::::::::::::::::::::::::::::::::",
"::::::::::::::::::::::::::..####....--::::::::::::::::::::::::::::::::::::::::::::::",
"::::::::::::::::::::::::::..####....--::::::::::::::::::::::::::::::::::::::::::::::",
"::::::::::::::::::::::::::..&&##OOOO--++::::::::::::::::::::::::::::::::::::::::::::",
"::::::::::::::::::::::::::..&&##OOOO--++::::::::::::::::::::::::::::::::::::::::::::",
"::::::::::::::::::::::::::::&&##OOOO--++++::::::::::::::::::::::::::::::::::::::::::",
"::::::::::::::::::::::::::::&&##OOOO--++++::::::::::::::::::::::::::::::::::::::::::",
"::::::::::::::::::::::::::::&&OOOO--++++@@::::::::::::::::::::::::::::::::::::::::::",
"::::::::::::::::::::::::::::&&OOOO--++++@@::::::::::::::::::::::::::::::::::::::::::",
"::::::::::::::::::::::::::::::....++++@@@@++::::::::::::::::::::::::::::::::::::::::",
"::::::::::::::::::::::::::::::....++++@@@@++::::::::::::::::::::::::::::::::::::::::",
"::::::::::::::::::::::::::::@@++++@@@@@@++@@++::::::::::::::::::::::::::::::::::::::",
"::::::::::::::::::::::::::::@@++++@@@@@@++@@++::::::::::::::::::::::::::::::::::::::",
"::::::::::::::::::::::::::::++@@@@@@oooo@@@@@@++::::::::::::::::::::::::::::::::::::",
"::::::::::::::::::::::::::::++@@@@@@oooo@@@@@@++::::::::::::::::::::::::::::::::::::",
"::::::::::::::::::::::::::::@@@@oooooooo++@@@@@@++::::::::::::::::::::::::::::::::::",
"::::::::::::::::::::::::::::@@@@oooooooo++@@@@@@++::::::::::::::::::::::::::::::::::",
"::::::::::::::::::::::::::::XX%%@@    oooo++@@@@@@++::::::::::::::::::::::::::::::::",
"::::::::::::::::::::::::::::XX%%@@    oooo++@@@@@@++::::::::::::::::::::::::::::::::",
"::::::::::::::::::::::::::::XXoo%%oo    XX++@@@@@@@@++::::::::::::::::::::::::::::::",
"::::::::::::::::::::::::::::XXoo%%oo    XX++@@@@@@@@++::::::::::::::::::::::::::::::",
"::::::::::::::::::::::::::::XX%%oo%%oo  XXXX++@@@@@@++::::::::::::::::::::::::::::::",
"::::::::::::::::::::::::::::XX%%oo%%oo  XXXX++@@@@@@++::::::::::::::::::::::::::::::",
"::::::::::::::::::::&&&&::::##oo==oooooo  ##  ++@@@@@@++++::::::::::::::::::::::::::",
"::::::::::::::::::::&&&&::::##oo==oooooo  ##  ++@@@@@@++++::::::::::::::::::::::::::",
"::::::::::::::::::::&&&&%%######oo==oooo  ##::  ++@@@@@@@@++++::::::::::::::::::::::",
"::::::::::::::::::::&&&&%%######oo==oooo  ##::  ++@@@@@@@@++++::::::::::::::::::::::",
"::::::::::::::::::::::::::::::::==oooooo  %%::::  ++++@@@@@@@@++++::::::::::::::::::",
"::::::::::::::::::::::::::::::::==oooooo  %%::::  ++++@@@@@@@@++++::::::::::::::::::",
"::::::::::::::::::::::::::::::::==oooooo&&##::::::::          ++++::::::::::::::::::",
"::::::::::::::::::::::::::::::::==oooooo&&##::::::::          ++++::::::::::::::::::",
"::::::::::::::::::::::::::::::::========&&&&oo::::::::::::::::::::::::::::::::::::::",
"::::::::::::::::::::::::::::::::========&&&&oo::::::::::::::::::::::::::::::::::::::",
"::::::::::::::::::::::::::::::::oooooooo    oo::::::::::::::::::::::::::::::::::::::",
"::::::::::::::::::::::::::::::::oooooooo    oo::::::::::::::::::::::::::::::::::::::",
"::::::::::::::::::::::::::::::::  oooooooo    ::::::::::::::::::::::::::::::::::::::",
"::::::::::::::::::::::::::::::::  oooooooo    ::::::::::::::::::::::::::::::::::::::",
"::::::::::::::::::::::::::::        oooooooo    ::::::::::::::::::::::::::::::::::::",
"::::::::::::::::::::::::::::        oooooooo    ::::::::::::::::::::::::::::::::::::",
"::::::::::::::::::::::::::            oooooooo    ::::::::::::::::::::::::::::::::::",
"::::::::::::::::::::::::::            oooooooo    ::::::::::::::::::::::::::::::::::",
"::::::::::::::::::::::::::          ::::oooooooo    ::::::::::::::::::::::::::::::::",
"::::::::::::::::::::::::::          ::::oooooooo    ::::::::::::::::::::::::::::::::",
"::::::::::::::::::::::::::        ::::::oooooooo::    ::::::::::::::::::::::::::::::",
"::::::::::::::::::::::::::        ::::::oooooooo::    ::::::::::::::::::::::::::::::",
"::::::::::::::::::::::::::::      ::::::::oooooo::::::::::::::::::::::::::::::::::::",
"::::::::::::::::::::::::::::      ::::::::oooooo::::::::::::::::::::::::::::::::::::",
"::::::::::::::::::::::::::::::      ::::::::oooo::::::::::::::::::::::::::::::::::::",
"::::::::::::::::::::::::::::::      ::::::::oooo::::::::::::::::::::::::::::::::::::",
"::::::::::::::::::::::::::::::::    ::::::::oooo::::::::::::::::::::::::::::::::::::",
"::::::::::::::::::::::::::::::::    ::::::::oooo::::::::::::::::::::::::::::::::::::",
"::::::::::::::::::::::::::::::::::    ::::::::oooo::::::::::::::::::::::::::::::::::",
"::::::::::::::::::::::::::::::::::    ::::::::oooo::::::::::::::::::::::::::::::::::",
"::::::::::::::::::::::::::::::::::::    ::::::oooo::::::::::::::::::::::::::::::::::",
"::::::::::::::::::::::::::::::::::::    ::::::oooo::::::::::::::::::::::::::::::::::",
"::::::::::::::::::::::::::::::::::::::  ::::::oooo::::::::::::::::::::::::::::::::::",
"::::::::::::::::::::::::::::::::::::::  ::::::oooo::::::::::::::::::::::::::::::::::",
"::::::::::::::::::::::::::::::::::::::::::::::::::oo::::::::::::::::::::::::::::::::",
"::::::::::::::::::::::::::::::::::::::::::::::::::oo::::::::::::::::::::::::::::::::",
"::::::::::::::::::::::::::::::::::::::::::::::::::oo::::::::::::::::::::::::::::::::",
"::::::::::::::::::::::::::::::::::::::::::::::::::oo::::::::::::::::::::::::::::::::",
"::::::::::::::::::::::::::::::::::::::::::::::::::oo::::::::::::::::::::::::::::::::",
"::::::::::::::::::::::::::::::::::::::::::::::::::oo::::::::::::::::::::::::::::::::",
"::::::::::::::::::::::::::::::::::::::::::::::::::oo::::::::::::::::::::::::::::::::",
"::::::::::::::::::::::::::::::::::::::::::::::::::oo::::::::::::::::::::::::::::::::",
"::::::::::::::::::::::::::::::::::::::::::::::::::::::::::::::::::::::::::::::::::::",
"::::::::::::::::::::::::::::::::::::::::::::::::::::::::::::::::::::::::::::::::::::"
};
