/* XPM */
static char *result[] = {
/* columns rows colors chars-per-pixel */
"84 84 22 1 ",
"  c black",
". c #290809",
"X c #151825",
"o c #440E10",
"O c #673A14",
"+ c #462622",
"@ c #743F39",
"# c #363D5F",
"$ c #B0242A",
"% c #C9292D",
"& c #D7393D",
"* c #8A4D1A",
"= c #AC6121",
"- c #E56E34",
"; c #D4B400",
": c #D98239",
"> c #E29F65",
", c #E4A672",
"< c #FFE44C",
"1 c #525B92",
"2 c #ACB1D0",
"3 c None",
/* pixels */
"3333333333333333333333333333333333>>3333333333>>333333333333333333333333333333333333",
"3333333333333333333333333333333333>>3333333333>>333333333333333333333333333333333333",
"33333333333333333333333333333333>>==3333333333==>>3333333333333333333333333333333333",
"33333333333333333333333333333333>>==3333333333==>>3333333333333333333333333333333333",
"33333333333333333333333333333333OO====112211====OO3333333333333333333333333333333333",
"33333333333333333333333333333333OO====112211====OO3333333333333333333333333333333333",
"3333333333333333333333333333333333OO####11####OO333333333333333333333333333333333333",
"3333333333333333333333333333333333OO####11####OO333333333333333333333333333333333333",
"333333333333333333333333333333333333XX######XX33333333333333333333333333333333333333",
"333333333333333333333333333333333333XX######XX33333333333333333333333333333333333333",
"333333333333333333333333333333333333XX  XX  XX33333333333333333333333333333333333333",
"333333333333333333333333333333333333XX  XX  XX33333333333333333333333333333333333333",
"3333333333333333333333333333333333&&XX**XX**XX&&333333333333333333333333333333333333",
"3333333333333333333333333333333333&&XX**XX**XX&&333333333333333333333333333333333333",
"33333333333333333333333333333333&&%%..::**::..%%&&3333333333333333333333333333333333",
"33333333333333333333333333333333&&%%..::**::..%%&&3333333333333333333333333333333333",
"333333333333333333333333333333&&%%$$&&..::  &&$$%%&&33333333333333333333333333333333",
"333333333333333333333333333333&&%%$$&&..::  &&$$%%&&33333333333333333333333333333333",
"3333333333333333333333333333&&%%$$$$%%&&  &&%%$$$$%%&&333333333333333333333333333333",
"3333333333333333333333333333&&%%$$$$%%&&  &&%%$$$$%%&&333333333333333333333333333333",
"33333333333333333333333333&&%%$$$$%%%%%%&&%%%%%%$$$$%%&&3333333333333333333333333333",
"33333333333333333333333333&&%%$$$$%%%%%%&&%%%%%%$$$$%%&&3333333333333333333333333333",
"333333333333333333333333&&%%$$$$%%....%%%%%%....%%$$$$%%&&33333333333333333333333333",
"333333333333333333333333&&%%$$$$%%....%%%%%%....%%$$$$%%&&33333333333333333333333333",
"333333333333333333333333%%$$$$%%......%%..%%......%%$$$$%%33333333333333333333333333",
"333333333333333333333333%%$$$$%%......%%..%%......%%$$$$%%33333333333333333333333333",
"333333333333333333333333$$$$%%........%%..%%........%%$$$$33333333333333333333333333",
"333333333333333333333333$$$$%%........%%..%%........%%$$$$33333333333333333333333333",
"333333333333333333333333$$%%....;;++;;%%++%%;;++;;....%%$$33333333333333333333333333",
"333333333333333333333333$$%%....;;++;;%%++%%;;++;;....%%$$33333333333333333333333333",
"333333333333333333333333$$$$**..++;;++++;;++++;;++..**$$$$33333333333333333333333333",
"333333333333333333333333$$$$**..++;;++++;;++++;;++..**$$$$33333333333333333333333333",
"333333333333333333333333$$$$**..;;++;;;;++;;;;++;;..**$$$$33333333333333333333333333",
"333333333333333333333333$$$$**..;;++;;;;++;;;;++;;..**$$$$33333333333333333333333333",
"333333333333333333333333$$$$**....++<<++<<++<<++....**$$$$33333333333333333333333333",
"333333333333333333333333$$$$**....++<<++<<++<<++....**$$$$33333333333333333333333333",
"333333333333333333333333$$$$**......++<<++<<++......**$$$$33333333333333333333333333",
"333333333333333333333333$$$$**......++<<++<<++......**$$$$33333333333333333333333333",
"333333333333333333333333$$$$**......<<<<<<<<<<......**$$$$33333333333333333333333333",
"333333333333333333333333$$$$**......<<<<<<<<<<......**$$$$33333333333333333333333333",
"333333333333333333333333$$$$<<......++++<<++++..--..<<$$$$33333333333333333333333333",
"333333333333333333333333$$$$<<......++++<<++++..--..<<$$$$33333333333333333333333333",
"333333333333333333333333$$$$**,,++....++++++....--,,**$$$$33333333333333333333333333",
"333333333333333333333333$$$$**,,++....++++++....--,,**$$$$33333333333333333333333333",
"333333333333333333333333$$$$,,,,++......++......++,,,,$$$$33333333333333333333333333",
"333333333333333333333333$$$$,,,,++......++......++,,,,$$$$33333333333333333333333333",
"33333333333333333333333333$$$$oo++++++......++++++..oo$$$$33333333333333333333333333",
"33333333333333333333333333$$$$oo++++++......++++++..oo$$$$33333333333333333333333333",
"3333333333333333333333333333$$oo++++++......++++++..$$333333333333333333333333333333",
"3333333333333333333333333333$$oo++++++......++++++..$$333333333333333333333333333333",
"3333333333333333333333333333$$oooo++....++....++oo..$$333333333333333333333333333333",
"3333333333333333333333333333$$oooo++....++....++oo..$$333333333333333333333333333333",
"3333333333333333333333333333$$oooo++....++....++oo..$$333333333333333333333333333333",
"3333333333333333333333333333$$oooo++....++....++oo..$$333333333333333333333333333333",
"3333333333333333333333333333$$oooo++++..oo..++++oo..$$333333333333333333333333333333",
"3333333333333333333333333333$$oooo++++..oo..++++oo..$$333333333333333333333333333333",
"3333333333333333333333333333$$oooo++++oooooo++++oo..$$333333333333333333333333333333",
"3333333333333333333333333333$$oooo++++oooooo++++oo..$$333333333333333333333333333333",
"3333333333333333333333333333$$oooo@@++oooooo++@@oo..$$333333333333333333333333333333",
"3333333333333333333333333333$$oooo@@++oooooo++@@oo..$$333333333333333333333333333333",
"3333333333333333333333333333$$oooo@@@@oo$$oo@@@@oo..$$333333333333333333333333333333",
"3333333333333333333333333333$$oooo@@@@oo$$oo@@@@oo..$$333333333333333333333333333333",
"3333333333333333333333333333$$oooo@@..$$33$$..@@oo..$$333333333333333333333333333333",
"3333333333333333333333333333$$oooo@@..$$33$$..@@oo..$$333333333333333333333333333333",
"333333333333333333333333333333$$$$@@@@333333@@@@oo..33333333333333333333333333333333",
"333333333333333333333333333333$$$$@@@@333333@@@@oo..33333333333333333333333333333333",
"333333333333333333333333333333$$33@@..333333..@@$$--33333333333333333333333333333333",
"333333333333333333333333333333$$33@@..333333..@@$$--33333333333333333333333333333333",
"333333333333333333333333333333333333..333333..33333333333333333333333333333333333333",
"333333333333333333333333333333333333..333333..33333333333333333333333333333333333333",
"333333333333333333333333333333333333..333333..33333333333333333333333333333333333333",
"333333333333333333333333333333333333..333333..33333333333333333333333333333333333333",
"333333333333333333333333333333333333@@333333@@33333333333333333333333333333333333333",
"333333333333333333333333333333333333@@333333@@33333333333333333333333333333333333333",
"333333333333333333333333333333333333@@333333@@33333333333333333333333333333333333333",
"333333333333333333333333333333333333@@333333@@33333333333333333333333333333333333333",
"333333333333333333333333333333333333@@333333@@33333333333333333333333333333333333333",
"333333333333333333333333333333333333@@333333@@33333333333333333333333333333333333333",
"333333333333333333333333333333333333@@333333@@33333333333333333333333333333333333333",
"333333333333333333333333333333333333@@333333@@33333333333333333333333333333333333333",
"333333333333333333333333333333333333@@333333@@33333333333333333333333333333333333333",
"333333333333333333333333333333333333@@333333@@33333333333333333333333333333333333333",
"333333333333333333333333333333333333333333333333333333333333333333333333333333333333",
"333333333333333333333333333333333333333333333333333333333333333333333333333333333333"
};
