/* XPM */
static char *result[] = {
/* columns rows colors chars-per-pixel */
"84 84 14 1 ",
"  c #290809",
". c #673A14",
"X c #363D5F",
"o c #C9292D",
"O c #D7393D",
"+ c #8A4D1A",
"@ c #AC6121",
"# c #E56E34",
"$ c #D4B400",
"% c #D98239",
"& c #E29F65",
"* c #525B92",
"= c #ACB1D0",
"- c None",
/* pixels */
"------------------------------------------------------------------------------------",
"------------------------------------------------------------------------------------",
"------------------------------------------------------------------------------------",
"------------------------------------------------------------------------------------",
"------------------------------------------------------------------------------------",
"------------------------------------------------------------------------------------",
"------------------------------------------------------------------------------------",
"------------------------------------------------------------------------------------",
"------------------------------------------------------------------------------------",
"------------------------------------------------------------------------------------",
"------------------------------------------------------------------------------------",
"------------------------------------------------------------------------------------",
"------------------------------------------------------------------------------------",
"------------------------------------------------------------------------------------",
"----------------------------------&&----------&&------------------------------------",
"----------------------------------&&----------&&------------------------------------",
"--------------------------------&&@@----------@@&&----------------------------------",
"--------------------------------&&@@----------@@&&----------------------------------",
"--------------------------------..@@@@======@@@@..----------------------------------",
"--------------------------------..@@@@======@@@@..----------------------------------",
"----------------------------------..XX**==**XX..------------------------------------",
"----------------------------------..XX**==**XX..------------------------------------",
"------------------------------------XXXX**XXXX--------------------------------------",
"------------------------------------XXXX**XXXX--------------------------------------",
"----------------------------ooooooooooXXXXXXoo--------------------------------------",
"----------------------------ooooooooooXXXXXXoo--------------------------------------",
"--------------------------ooooOOooOOooooooooOOoo------------------------------------",
"--------------------------ooooOOooOOooooooooOOoo------------------------------------",
"--------------------------ooOOooOOooOOooOOooooOOoo----------------------------------",
"--------------------------ooOOooOOooOOooOOooooOOoo----------------------------------",
"--------------------------++ooOOooOOooOOooOOOOooOOoo--------------------------------",
"--------------------------++ooOOooOOooOOooOOOOooOOoo--------------------------------",
"--------------------------++ooooOOooOOOOOOOOooOOooOOoo------------------------------",
"--------------------------++ooooOOooOOOOOOOOooOOooOOoo------------------------------",
"--------------------------++ooOOooOOOOOOOOOOOOooOOooOOoo----------------------------",
"--------------------------++ooOOooOOOOOOOOOOOOooOOooOOoo----------------------------",
"--------------------------$$ooooOOOOOOOOOOOOOOOOooOOoooo----------------------------",
"--------------------------$$ooooOOOOOOOOOOOOOOOOooOOoooo----------------------------",
"--------------------------%%ooOOOOOOOOOOOOOOOOOOOOooOOoo----------------------------",
"--------------------------%%ooOOOOOOOOOOOOOOOOOOOOooOOoo----------------------------",
"--------------------------%%ooOOOOOOOOOOOOOOOOOOOOOOOOoo----------------------------",
"--------------------------%%ooOOOOOOOOOOOOOOOOOOOOOOOOoo----------------------------",
"----------------------------ooOOOOOOOOOOOOOOOOOOOOOOOOoo----------------------------",
"----------------------------ooOOOOOOOOOOOOOOOOOOOOOOOOoo----------------------------",
"----------------------------ooOOOOOOOOOOOOOOOOOOOOOOOOoo----------------------------",
"----------------------------ooOOOOOOOOOOOOOOOOOOOOOOOOoo----------------------------",
"----------------------------ooOOOOOOOOOOOOOOOOOOOOOOOOoo----------------------------",
"----------------------------ooOOOOOOOOOOOOOOOOOOOOOOOOoo----------------------------",
"------------------------------ooOOOOOOOOOOOOOOOOOOOOoo------------------------------",
"------------------------------ooOOOOOOOOOOOOOOOOOOOOoo------------------------------",
"--------------------------------ooOOOOOOOOOOOOOOOOoo  ------------------------------",
"--------------------------------ooOOOOOOOOOOOOOOOOoo  ------------------------------",
"----------------------------------ooooOOOOOOOOOOoo      ----------------------------",
"----------------------------------ooooOOOOOOOOOOoo      ----------------------------",
"----------------------------------    oooooooooo------    --------------------------",
"----------------------------------    oooooooooo------    --------------------------",
"----------------------------------              --------  ##------------------------",
"----------------------------------              --------  ##------------------------",
"----------------------------------    ------    ------------------------------------",
"----------------------------------    ------    ------------------------------------",
"----------------------------------    ------    ------------------------------------",
"----------------------------------    ------    ------------------------------------",
"----------------------------------    ------    ------------------------------------",
"----------------------------------    ------    ------------------------------------",
"------------------------------------  ------    ------------------------------------",
"------------------------------------  ------    ------------------------------------",
"------------------------------------  ------    ------------------------------------",
"------------------------------------  ------    ------------------------------------",
"------------------------------------  ------  --------------------------------------",
"------------------------------------  ------  --------------------------------------",
"------------------------------------  ------  --------------------------------------",
"------------------------------------  ------  --------------------------------------",
"--------------------------------------------  --------------------------------------",
"--------------------------------------------  --------------------------------------",
"--------------------------------------------  --------------------------------------",
"--------------------------------------------  --------------------------------------",
"--------------------------------------------  --------------------------------------",
"--------------------------------------------  --------------------------------------",
"--------------------------------------------  --------------------------------------",
"--------------------------------------------  --------------------------------------",
"--------------------------------------------  --------------------------------------",
"--------------------------------------------  --------------------------------------",
"------------------------------------------------------------------------------------",
"------------------------------------------------------------------------------------"
};
