/* XPM */
static char *result[] = {
/* columns rows colors chars-per-pixel */
"84 84 21 1 ",
"  c #290809",
". c #151825",
"X c #440E10",
"o c #501010",
"O c #673A14",
"+ c #462622",
"@ c #743F39",
"# c #363D5F",
"$ c #C9292D",
"% c #D7393D",
"& c #8A4D1A",
"* c #AC6121",
"= c #E56E34",
"- c #D4B400",
"; c #D98239",
": c #E29F65",
"> c #FFE44C",
", c #525B92",
"< c #EFA885",
"1 c #ACB1D0",
"2 c None",
/* pixels */
"222222222222222222222222222222222222222222222222222222222222222222222222222222222222",
"222222222222222222222222222222222222222222222222222222222222222222222222222222222222",
"222222222222222222222222222222222222222222222222222222222222222222222222222222222222",
"222222222222222222222222222222222222222222222222222222222222222222222222222222222222",
"222222222222222222222222222222222222222222222222222222222222222222222222222222222222",
"222222222222222222222222222222222222222222222222222222222222222222222222222222222222",
"222222222222222222222222222222222222222222222222222222222222222222222222222222222222",
"222222222222222222222222222222222222222222222222222222222222222222222222222222222222",
"222222222222222222222222222222222222222222222222222222222222222222222222222222222222",
"222222222222222222222222222222222222222222222222222222222222222222222222222222222222",
"222222222222222222222222222222222222222222222222222222222222222222222222222222222222",
"222222222222222222222222222222222222222222222222222222222222222222222222222222222222",
"222222222222222222222222222222222222222222222222222222222222222222222222222222222222",
"222222222222222222222222222222222222222222222222222222222222222222222222222222222222",
"222222222222222222222222222222222222222222222222222222222222222222222222222222222222",
"222222222222222222222222222222222222222222222222222222222222222222222222222222222222",
"2222222222222222222222222222222222::2222222222::222222222222222222222222222222222222",
"2222222222222222222222222222222222::2222222222::222222222222222222222222222222222222",
"22222222222222222222222222222222::**2222222222**::2222222222222222222222222222222222",
"22222222222222222222222222222222::**2222222222**::2222222222222222222222222222222222",
"22222222222222222222222222222222OO****111111****OO2222222222222222222222222222222222",
"22222222222222222222222222222222OO****111111****OO2222222222222222222222222222222222",
"2222222222222222222222222222222222OO##,,11,,##OO222222222222222222222222222222222222",
"2222222222222222222222222222222222OO##,,11,,##OO222222222222222222222222222222222222",
"22222222222222222222222222222222%%$$####,,####%%%%%%%%222222222222222222222222222222",
"22222222222222222222222222222222%%$$####,,####%%%%%%%%222222222222222222222222222222",
"222222222222222222222222222222%%$$%%..######..$$%%$$%%%%2222222222222222222222222222",
"222222222222222222222222222222%%$$%%..######..$$%%$$%%%%2222222222222222222222222222",
"2222222222222222222222222222%%$$%%$$..........%%$$%%$$$$$$22222222222222222222222222",
"2222222222222222222222222222%%$$%%$$..........%%$$%%$$$$$$22222222222222222222222222",
"22222222222222222222222222%%$$%%$$%%  &&..&&  $$%%$$@@XX$$22222222222222222222222222",
"22222222222222222222222222%%$$%%$$%%  &&..&&  $$%%$$@@XX$$22222222222222222222222222",
"22222222222222222222222222$$@@@@@@--  ;;&&;;  %%%%@@XXXX&&22222222222222222222222222",
"22222222222222222222222222$$@@@@@@--  ;;&&;;  %%%%@@XXXX&&22222222222222222222222222",
"22222222222222222222222222&&&&XX  ++%%$$++%%$$--@@XXXXXX&&22222222222222222222222222",
"22222222222222222222222222&&&&XX  ++%%$$++%%$$--@@XXXXXX&&22222222222222222222222222",
"22222222222222222222222222&&XXXXXX  $$++--++$$++  XXXXXX--22222222222222222222222222",
"22222222222222222222222222&&XXXXXX  $$++--++$$++  XXXXXX--22222222222222222222222222",
"22222222222222222222222222&&XXXXXX  ++>>++>>>>  XXXXXX;;&&22222222222222222222222222",
"22222222222222222222222222&&XXXXXX  ++>>++>>>>  XXXXXX;;&&22222222222222222222222222",
"22222222222222222222222222--XXXXXX  >>++>>++>>  XXXX$$;;;;22222222222222222222222222",
"22222222222222222222222222--XXXXXX  >>++>>++>>  XXXX$$;;;;22222222222222222222222222",
"22222222222222222222222222&&;;XXXX  >>>>>>>>++oo<<$$22222222222222222222222222222222",
"22222222222222222222222222&&;;XXXX  >>>>>>>>++oo<<$$22222222222222222222222222222222",
"22222222222222222222222222;;;;$$++  ++++>>++  ====oo22222222222222222222222222222222",
"22222222222222222222222222;;;;$$++  ++++>>++  ====oo22222222222222222222222222222222",
"22222222222222222222222222222222$$XX  ++++++  ++oooooo222222222222222222222222222222",
"22222222222222222222222222222222$$XX  ++++++  ++oooooo222222222222222222222222222222",
"22222222222222222222222222222222++++    ++  ++++++22oooo2222222222222222222222222222",
"22222222222222222222222222222222++++    ++  ++++++22oooo2222222222222222222222222222",
"22222222222222222222222222222222++++++      ++++222222oooo22222222222222222222222222",
"22222222222222222222222222222222++++++      ++++222222oooo22222222222222222222222222",
"2222222222222222222222222222222222++++  ++    ++22222222oo==222222222222222222222222",
"2222222222222222222222222222222222++++  ++    ++22222222oo==222222222222222222222222",
"2222222222222222222222222222222222++    ++    ++222222222222222222222222222222222222",
"2222222222222222222222222222222222++    ++    ++222222222222222222222222222222222222",
"2222222222222222222222222222222222++    ++22    222222222222222222222222222222222222",
"2222222222222222222222222222222222++    ++22    222222222222222222222222222222222222",
"2222222222222222222222222222222222@@  222222  @@222222222222222222222222222222222222",
"2222222222222222222222222222222222@@  222222  @@222222222222222222222222222222222222",
"2222222222222222222222222222222222@@@@222222@@@@222222222222222222222222222222222222",
"2222222222222222222222222222222222@@@@222222@@@@222222222222222222222222222222222222",
"2222222222222222222222222222222222@@  222222  @@222222222222222222222222222222222222",
"2222222222222222222222222222222222@@  222222  @@222222222222222222222222222222222222",
"2222222222222222222222222222222222@@@@222222  @@222222222222222222222222222222222222",
"2222222222222222222222222222222222@@@@222222  @@222222222222222222222222222222222222",
"2222222222222222222222222222222222@@@@222222  22222222222222222222222222222222222222",
"2222222222222222222222222222222222@@@@222222  22222222222222222222222222222222222222",
"222222222222222222222222222222222222  222222  22222222222222222222222222222222222222",
"222222222222222222222222222222222222  222222  22222222222222222222222222222222222222",
"222222222222222222222222222222222222  222222  22222222222222222222222222222222222222",
"222222222222222222222222222222222222  222222  22222222222222222222222222222222222222",
"222222222222222222222222222222222222@@222222  22222222222222222222222222222222222222",
"222222222222222222222222222222222222@@222222  22222222222222222222222222222222222222",
"222222222222222222222222222222222222@@222222  22222222222222222222222222222222222222",
"222222222222222222222222222222222222@@222222  22222222222222222222222222222222222222",
"222222222222222222222222222222222222@@2222222222222222222222222222222222222222222222",
"222222222222222222222222222222222222@@2222222222222222222222222222222222222222222222",
"222222222222222222222222222222222222@@2222222222222222222222222222222222222222222222",
"222222222222222222222222222222222222@@2222222222222222222222222222222222222222222222",
"222222222222222222222222222222222222@@2222222222222222222222222222222222222222222222",
"222222222222222222222222222222222222@@2222222222222222222222222222222222222222222222",
"222222222222222222222222222222222222222222222222222222222222222222222222222222222222",
"222222222222222222222222222222222222222222222222222222222222222222222222222222222222"
};
