/* XPM */
static char *result[] = {
/* columns rows colors chars-per-pixel */
"84 84 14 1 ",
"  c #290809",
". c #673A14",
"X c #462622",
"o c #363D5F",
"O c #C9292D",
"+ c #D7393D",
"@ c #AC6121",
"# c #E56E34",
"$ c #D4B400",
"% c #D98239",
"& c #E29F65",
"* c #525B92",
"= c #ACB1D0",
"- c None",
/* pixels */
"------------------------------------------------------------------------------------",
"------------------------------------------------------------------------------------",
"------------------------------------------------------------------------------------",
"------------------------------------------------------------------------------------",
"------------------------------------------------------------------------------------",
"------------------------------------------------------------------------------------",
"------------------------------------------------------------------------------------",
"------------------------------------------------------------------------------------",
"------------------------------------------------------------------------------------",
"------------------------------------------------------------------------------------",
"------------------------------------------------------------------------------------",
"------------------------------------------------------------------------------------",
"------------------------------------------------------------------------------------",
"------------------------------------------------------------------------------------",
"------------------------------------------------------------------------------------",
"------------------------------------------------------------------------------------",
"----------------------------------&&----------&&------------------------------------",
"----------------------------------&&----------&&------------------------------------",
"--------------------------------&&@@----------@@&&----------------------------------",
"--------------------------------&&@@----------@@&&----------------------------------",
"--------------------------------..@@@@======@@@@..----------------------------------",
"--------------------------------..@@@@======@@@@..----------------------------------",
"----------------------------OOOOOO..oo**==**oo..------------------------------------",
"----------------------------OOOOOO..oo**==**oo..------------------------------------",
"--------------------------OO++OO++OOoo******ooOO------------------------------------",
"--------------------------OO++OO++OOoo******ooOO------------------------------------",
"------------------------OO++OO++OO++OOooooooOO++OO----------------------------------",
"------------------------OO++OO++OO++OOooooooOO++OO----------------------------------",
"------------------------OOOO++OO++OO++OOOOOO++OO++OO--------------------------------",
"------------------------OOOO++OO++OO++OOOOOO++OO++OO--------------------------------",
"------------------------OO++OO++++++OO++++OOOO++OO++OO------------------------------",
"------------------------OO++OO++++++OO++++OOOO++OO++OO------------------------------",
"------------------------OOOO++++++++++++++++OOOO++OO++OO----------------------------",
"------------------------OOOO++++++++++++++++OOOO++OO++OO----------------------------",
"------------------------OO++++++++++++++++++++++OO++OO++OO--------------------------",
"------------------------OO++++++++++++++++++++++OO++OO++OO--------------------------",
"------------------------OO++++++++++++++++++++++++OO++++OO--------------------------",
"------------------------OO++++++++++++++++++++++++OO++++OO--------------------------",
"------------------------%%OOOO++++++++++++++++++++++OO++OO--------------------------",
"------------------------%%OOOO++++++++++++++++++++++OO++OO--------------------------",
"------------------------------OO++++++++++++++++++++++OO$$--------------------------",
"------------------------------OO++++++++++++++++++++++OO$$--------------------------",
"--------------------------------OO++++++++++++++++++OO%%%%--------------------------",
"--------------------------------OO++++++++++++++++++OO%%%%--------------------------",
"--------------------------------OO++++++++++++++OOOO--%%%%--------------------------",
"--------------------------------OO++++++++++++++OOOO--%%%%--------------------------",
"--------------------------------XXOO++++++++++OOOO----------------------------------",
"--------------------------------XXOO++++++++++OOOO----------------------------------",
"--------------------------------XXOO++++++++OOOO##  --------------------------------",
"--------------------------------XXOO++++++++OOOO##  --------------------------------",
"----------------------------------  OO++++++OO        ------------------------------",
"----------------------------------  OO++++++OO        ------------------------------",
"----------------------------------    OOOOOOOO  ----    ----------------------------",
"----------------------------------    OOOOOOOO  ----    ----------------------------",
"----------------------------------              ------    --------------------------",
"----------------------------------              ------    --------------------------",
"----------------------------------    --        --------  ##------------------------",
"----------------------------------    --        --------  ##------------------------",
"----------------------------------    ------    ------------------------------------",
"----------------------------------    ------    ------------------------------------",
"----------------------------------    ------    ------------------------------------",
"----------------------------------    ------    ------------------------------------",
"------------------------------------  ------    ------------------------------------",
"------------------------------------  ------    ------------------------------------",
"------------------------------------  ------    ------------------------------------",
"------------------------------------  ------    ------------------------------------",
"--------------------------------------------    ------------------------------------",
"--------------------------------------------    ------------------------------------",
"--------------------------------------------  --------------------------------------",
"--------------------------------------------  --------------------------------------",
"--------------------------------------------  --------------------------------------",
"--------------------------------------------  --------------------------------------",
"--------------------------------------------  --------------------------------------",
"--------------------------------------------  --------------------------------------",
"--------------------------------------------  --------------------------------------",
"--------------------------------------------  --------------------------------------",
"--------------------------------------------  --------------------------------------",
"--------------------------------------------  --------------------------------------",
"--------------------------------------------  --------------------------------------",
"--------------------------------------------  --------------------------------------",
"--------------------------------------------  --------------------------------------",
"--------------------------------------------  --------------------------------------",
"------------------------------------------------------------------------------------",
"------------------------------------------------------------------------------------"
};
