/* XPM */
static char *result[] = {
/* columns rows colors chars-per-pixel */
"84 84 20 1 ",
"  c #290809",
". c #151825",
"X c #440E10",
"o c #673A14",
"O c #462622",
"+ c #743F39",
"@ c #363D5F",
"# c #C9292D",
"$ c #D7393D",
"% c #8A4D1A",
"& c #AC6121",
"* c #E56E34",
"= c #D4B400",
"- c #D98239",
"; c #E29F65",
": c #FFE44C",
"> c #525B92",
", c #EFA885",
"< c #ACB1D0",
"1 c None",
/* pixels */
"111111111111111111111111111111111111111111111111111111111111111111111111111111111111",
"111111111111111111111111111111111111111111111111111111111111111111111111111111111111",
"111111111111111111111111111111111111111111111111111111111111111111111111111111111111",
"111111111111111111111111111111111111111111111111111111111111111111111111111111111111",
"111111111111111111111111111111111111111111111111111111111111111111111111111111111111",
"111111111111111111111111111111111111111111111111111111111111111111111111111111111111",
"111111111111111111111111111111111111111111111111111111111111111111111111111111111111",
"111111111111111111111111111111111111111111111111111111111111111111111111111111111111",
"111111111111111111111111111111111111111111111111111111111111111111111111111111111111",
"111111111111111111111111111111111111111111111111111111111111111111111111111111111111",
"111111111111111111111111111111111111111111111111111111111111111111111111111111111111",
"111111111111111111111111111111111111111111111111111111111111111111111111111111111111",
"111111111111111111111111111111111111111111111111111111111111111111111111111111111111",
"111111111111111111111111111111111111111111111111111111111111111111111111111111111111",
"111111111111111111111111111111111111111111111111111111111111111111111111111111111111",
"111111111111111111111111111111111111111111111111111111111111111111111111111111111111",
"1111111111111111111111111111111111;;1111111111;;111111111111111111111111111111111111",
"1111111111111111111111111111111111;;1111111111;;111111111111111111111111111111111111",
"11111111111111111111111111111111;;&&1111111111&&;;1111111111111111111111111111111111",
"11111111111111111111111111111111;;&&1111111111&&;;1111111111111111111111111111111111",
"11111111111111111111111111111111oo&&&&<<<<<<&&&&oo1111111111111111111111111111111111",
"11111111111111111111111111111111oo&&&&<<<<<<&&&&oo1111111111111111111111111111111111",
"11111111111111111111111111$$$$$$$$oo@@>><<>>@@oo111111111111111111111111111111111111",
"11111111111111111111111111$$$$$$$$oo@@>><<>>@@oo111111111111111111111111111111111111",
"111111111111111111111111$$$$####$$##@@@@>>@@@@$$111111111111111111111111111111111111",
"111111111111111111111111$$$$####$$##@@@@>>@@@@$$111111111111111111111111111111111111",
"111111111111111111111111$$##++$$####..@@@@@@..##$$1111111111111111111111111111111111",
"111111111111111111111111$$##++$$####..@@@@@@..##$$1111111111111111111111111111111111",
"111111111111111111111111%%++XX++$$##..........####$$11111111111111111111111111111111",
"111111111111111111111111%%++XX++$$##..........####$$11111111111111111111111111111111",
"111111111111111111111111%%XXXX++++$$  %%..%%  ##$$$$$$111111111111111111111111111111",
"111111111111111111111111%%XXXX++++$$  %%..%%  ##$$$$$$111111111111111111111111111111",
"111111111111111111111111%%XXXXXX++==  --%%--  $$$$####$$1111111111111111111111111111",
"111111111111111111111111%%XXXXXX++==  --%%--  $$$$####$$1111111111111111111111111111",
"111111111111111111111111==XXXXXX++++##$$OO$$##==++++++####11111111111111111111111111",
"111111111111111111111111==XXXXXX++++##$$OO$$##==++++++####11111111111111111111111111",
"111111111111111111111111%%--XXXXXX++$$OO==OO##OO  XXXX++%%11111111111111111111111111",
"111111111111111111111111%%--XXXXXX++$$OO==OO##OO  XXXX++%%11111111111111111111111111",
"111111111111111111111111----##XXXX  ::::OO::OO  XXXXXXXX%%11111111111111111111111111",
"111111111111111111111111----##XXXX  ::::OO::OO  XXXXXXXX%%11111111111111111111111111",
"111111111111111111111111111111##XX  ::OO::OO::  XXXXXX##==11111111111111111111111111",
"111111111111111111111111111111##XX  ::OO::OO::  XXXXXX##==11111111111111111111111111",
"11111111111111111111111111111111XX  OO::::::::  XXXX##--%%11111111111111111111111111",
"11111111111111111111111111111111XX  OO::::::::  XXXX##--%%11111111111111111111111111",
"11111111111111111111111111111111##  OOOO::OOOO  XX##11----11111111111111111111111111",
"11111111111111111111111111111111##  OOOO::OOOO  XX##11----11111111111111111111111111",
"11111111111111111111111111111111OOOO  OOOOOO    ,,1111111111111111111111111111111111",
"11111111111111111111111111111111OOOO  OOOOOO    ,,1111111111111111111111111111111111",
"11111111111111111111111111111111OOOO    OO    ****  11111111111111111111111111111111",
"11111111111111111111111111111111OOOO    OO    ****  11111111111111111111111111111111",
"1111111111111111111111111111111111OOOO      OOOO      111111111111111111111111111111",
"1111111111111111111111111111111111OOOO      OOOO      111111111111111111111111111111",
"1111111111111111111111111111111111OOOO  OO  OOOO1111    1111111111111111111111111111",
"1111111111111111111111111111111111OOOO  OO  OOOO1111    1111111111111111111111111111",
"1111111111111111111111111111111111++    OO    OO111111    11111111111111111111111111",
"1111111111111111111111111111111111++    OO    OO111111    11111111111111111111111111",
"1111111111111111111111111111111111++  11OO    OO11111111  **111111111111111111111111",
"1111111111111111111111111111111111++  11OO    OO11111111  **111111111111111111111111",
"1111111111111111111111111111111111++++111111  ++111111111111111111111111111111111111",
"1111111111111111111111111111111111++++111111  ++111111111111111111111111111111111111",
"1111111111111111111111111111111111++  111111++++111111111111111111111111111111111111",
"1111111111111111111111111111111111++  111111++++111111111111111111111111111111111111",
"111111111111111111111111111111111111  111111  ++111111111111111111111111111111111111",
"111111111111111111111111111111111111  111111  ++111111111111111111111111111111111111",
"111111111111111111111111111111111111  111111++++111111111111111111111111111111111111",
"111111111111111111111111111111111111  111111++++111111111111111111111111111111111111",
"11111111111111111111111111111111111111111111  ++111111111111111111111111111111111111",
"11111111111111111111111111111111111111111111  ++111111111111111111111111111111111111",
"11111111111111111111111111111111111111111111  11111111111111111111111111111111111111",
"11111111111111111111111111111111111111111111  11111111111111111111111111111111111111",
"11111111111111111111111111111111111111111111  11111111111111111111111111111111111111",
"11111111111111111111111111111111111111111111  11111111111111111111111111111111111111",
"11111111111111111111111111111111111111111111++11111111111111111111111111111111111111",
"11111111111111111111111111111111111111111111++11111111111111111111111111111111111111",
"11111111111111111111111111111111111111111111++11111111111111111111111111111111111111",
"11111111111111111111111111111111111111111111++11111111111111111111111111111111111111",
"11111111111111111111111111111111111111111111++11111111111111111111111111111111111111",
"11111111111111111111111111111111111111111111++11111111111111111111111111111111111111",
"11111111111111111111111111111111111111111111++11111111111111111111111111111111111111",
"11111111111111111111111111111111111111111111++11111111111111111111111111111111111111",
"11111111111111111111111111111111111111111111++11111111111111111111111111111111111111",
"11111111111111111111111111111111111111111111++11111111111111111111111111111111111111",
"111111111111111111111111111111111111111111111111111111111111111111111111111111111111",
"111111111111111111111111111111111111111111111111111111111111111111111111111111111111"
};
