/* XPM */
static char *result[] = {
/* columns rows colors chars-per-pixel */
"84 84 16 1 ",
"  c #290809",
". c #151825",
"X c #532E10",
"o c #462622",
"O c #363D5F",
"+ c #C9292D",
"@ c #D7393D",
"# c #8A4D1A",
"$ c #AC6121",
"% c #D4B400",
"& c #D98239",
"* c #E29F65",
"= c #FFE44C",
"- c #525B92",
"; c #ACB1D0",
": c None",
/* pixels */
"::::::::::::::::::::::::::::::::::::::::::::::::::::::::::::::::::::::::::::::::::::",
"::::::::::::::::::::::::::::::::::::::::::::::::::::::::::::::::::::::::::::::::::::",
"::::::::::::::::::::::::::::::::::::::::::::::::::::::::::::::::::::::::::::::::::::",
"::::::::::::::::::::::::::::::::::::::::::::::::::::::::::::::::::::::::::::::::::::",
"::::::::::::::::::::::::::::::::::::::::::::::::::::::::::::::::::::::::::::::::::::",
"::::::::::::::::::::::::::::::::::::::::::::::::::::::::::::::::::::::::::::::::::::",
"::::::::::::::::::::::::::::::::::::::::::::::::::::::::::::::::::::::::::::::::::::",
"::::::::::::::::::::::::::::::::::::::::::::::::::::::::::::::::::::::::::::::::::::",
"::::::::::::::::::::::::::::::::::::::::::::::::::::::::::::::::::::::::::::::::::::",
"::::::::::::::::::::::::::::::::::::::::::::::::::::::::::::::::::::::::::::::::::::",
"::::::::::::::::::::::::::::::**::::::::::::::::::::::::::::::::::::::::::::::::::::",
"::::::::::::::::::::::::::::::**::::::::::::::::::::::::::::::::::::::::::::::::::::",
"::::::::::::::::::::::::::::$$**::::::::::::::::::::::::::::::::::::::::::::::::::::",
"::::::::::::::::::::::::::::$$**::::::::::::::::::::::::::::::::::::::::::::::::::::",
"::::::::::::::::::::::::::;;####;;::::::::::::::::::::::::::::::::::::::::::::::::::",
"::::::::::::::::::::::::::;;####;;::::::::::::::::::::::::::::::::::::::::::::::::::",
"::::::::::::::::::::::::OOOO####OO::::::::::::::::::::::::::::::::::::::::::::::::::",
"::::::::::::::::::::::::OOOO####OO::::::::::::::::::::::::::::::::::::::::::::::::::",
"::::::::::::::::::::::..####....--::::::::::::::::::::::::::::::::::::::::::::::::::",
"::::::::::::::::::::::..####....--::::::::::::::::::::::::::::::::::::::::::::::::::",
"::::::::::::::::::::::..&&##OOOO--::::::::::::::::::::::::::::::::::::::::::::::::::",
"::::::::::::::::::::::..&&##OOOO--::::::::::::::::::::::::::::::::::::::::::::::::::",
"::::::::::::::::::::::::&&##OOOO--++::::::::::::::::::::::::::::::::::::::::::::::::",
"::::::::::::::::::::::::&&##OOOO--++::::::::::::::::::::::::::::::::::::::::::::::::",
"::::::::::::::::::::::::&&OOOO--++++++::::::::::::::::::::::::::::::::::::::::::::::",
"::::::::::::::::::::::::&&OOOO--++++++::::::::::::::::::::::::::::::::::::::::::::::",
"::::::::::::::::::::::::::....++++++@@@@::::::::::::::::::::::::::::::::::::::::::::",
"::::::::::::::::::::::::::....++++++@@@@::::::::::::::::::::::::::::::::::::::::::::",
"::::::::::::::::::::::::++++++++++@@@@@@@@::::::::::::::::::::::::::::::::::::::::::",
"::::::::::::::::::::::::++++++++++@@@@@@@@::::::::::::::::::::::::::::::::::::::::::",
"::::::::::::::::::::::::@@++++@@    ++@@@@@@::::::::::::::::::::::::::::::::::::::::",
"::::::::::::::::::::::::@@++++@@    ++@@@@@@::::::::::::::::::::::::::::::::::::::::",
"::::::::::::::::::::::::::@@@@        ++@@@@@@::::::::::::::::::::::::::::::::::::::",
"::::::::::::::::::::::::::@@@@        ++@@@@@@::::::::::::::::::::::::::::::::::::::",
"::::::::::::::::::::::::::oo%%@@oooo    ++@@@@@@::::::::::::::::::::::::::::::::::::",
"::::::::::::::::::::::::::oo%%@@oooo    ++@@@@@@::::::::::::::::::::::::::::::::::::",
"::::::::::::::::::::::::::%%oo%%ooXXXX  ++@@@@@@@@::::::::::::::::::::::::::::::::::",
"::::::::::::::::::::::::::%%oo%%ooXXXX  ++@@@@@@@@::::::::::::::::::::::::::::::::::",
"::::::::::::::::::::::::::oo%%oo%%XXXX    ++@@@@@@++::::::::::::::::::::::::::::::::",
"::::::::::::::::::::::::::oo%%oo%%XXXX    ++@@@@@@++::::::::::::::::::::::::::::::::",
"::::::::::::::::::::::::::%%oo==oooo##  ::::++@@@@@@++++::::::@@@@::::::::::::::::::",
"::::::::::::::::::::::::::%%oo==oooo##  ::::++@@@@@@++++::::::@@@@::::::::::::::::::",
"::::::::::::::::::::::::::&&XXoo==oo##  ::::::++@@@@@@@@++++@@@@@@::::::::::::::::::",
"::::::::::::::::::::::::::&&XXoo==oo##  ::::::++@@@@@@@@++++@@@@@@::::::::::::::::::",
"::::::::::::::::::::::::::&&&&==oooo%%  ::::::::++++@@@@@@@@++++::::::::::::::::::::",
"::::::::::::::::::::::::::&&&&==oooo%%  ::::::::++++@@@@@@@@++++::::::::::::::::::::",
"::::::::::::::::::::::::::::::==oo&&&&  ::::::::::::::::::::::::::::::::::::::::::::",
"::::::::::::::::::::::::::::::==oo&&&&  ::::::::::::::::::::::::::::::::::::::::::::",
"::::::::::::::::::::::::::::::====&&&&oooo::::::::::::::::::::::::::::::::::::::::::",
"::::::::::::::::::::::::::::::====&&&&oooo::::::::::::::::::::::::::::::::::::::::::",
"::::::::::::::::::::::::::::::oooooooooooo::::::::::::::::::::::::::::::::::::::::::",
"::::::::::::::::::::::::::::::oooooooooooo::::::::::::::::::::::::::::::::::::::::::",
"::::::::::::::::::::::::::::oooooooooo    ::::::::::::::::::::::::::::::::::::::::::",
"::::::::::::::::::::::::::::oooooooooo    ::::::::::::::::::::::::::::::::::::::::::",
"::::::::::::::::::::::::::::oooooooooo    ::::::::::::::::::::::::::::::::::::::::::",
"::::::::::::::::::::::::::::oooooooooo    ::::::::::::::::::::::::::::::::::::::::::",
"::::::::::::::::::::::::::oooooooooo        ::::::::::::::::::::::::::::::::::::::::",
"::::::::::::::::::::::::::oooooooooo        ::::::::::::::::::::::::::::::::::::::::",
"::::::::::::::::::::::::::oooooooo            ::::::::::::::::::::::::::::::::::::::",
"::::::::::::::::::::::::::oooooooo            ::::::::::::::::::::::::::::::::::::::",
"::::::::::::::::::::::::::oooooooo::            ::::::::::::::::::::::::::::::::::::",
"::::::::::::::::::::::::::oooooooo::            ::::::::::::::::::::::::::::::::::::",
"::::::::::::::::::::::::::::oooooo::::      ::    ::::::::::::::::::::::::::::::::::",
"::::::::::::::::::::::::::::oooooo::::      ::    ::::::::::::::::::::::::::::::::::",
"::::::::::::::::::::::::::::::oooooo::::    ::::::::::::::::::::::::::::::::::::::::",
"::::::::::::::::::::::::::::::oooooo::::    ::::::::::::::::::::::::::::::::::::::::",
"::::::::::::::::::::::::::::::::oooo::::    ::::::::::::::::::::::::::::::::::::::::",
"::::::::::::::::::::::::::::::::oooo::::    ::::::::::::::::::::::::::::::::::::::::",
"::::::::::::::::::::::::::::::::::oooo::::    ::::::::::::::::::::::::::::::::::::::",
"::::::::::::::::::::::::::::::::::oooo::::    ::::::::::::::::::::::::::::::::::::::",
"::::::::::::::::::::::::::::::::::::oooo::    ::::::::::::::::::::::::::::::::::::::",
"::::::::::::::::::::::::::::::::::::oooo::    ::::::::::::::::::::::::::::::::::::::",
"::::::::::::::::::::::::::::::::::::::oo::    ::::::::::::::::::::::::::::::::::::::",
"::::::::::::::::::::::::::::::::::::::oo::    ::::::::::::::::::::::::::::::::::::::",
"::::::::::::::::::::::::::::::::::::::::::::    ::::::::::::::::::::::::::::::::::::",
"::::::::::::::::::::::::::::::::::::::::::::    ::::::::::::::::::::::::::::::::::::",
"::::::::::::::::::::::::::::::::::::::::::::::  ::::::::::::::::::::::::::::::::::::",
"::::::::::::::::::::::::::::::::::::::::::::::  ::::::::::::::::::::::::::::::::::::",
"::::::::::::::::::::::::::::::::::::::::::::::  ::::::::::::::::::::::::::::::::::::",
"::::::::::::::::::::::::::::::::::::::::::::::  ::::::::::::::::::::::::::::::::::::",
"::::::::::::::::::::::::::::::::::::::::::::::  ::::::::::::::::::::::::::::::::::::",
"::::::::::::::::::::::::::::::::::::::::::::::  ::::::::::::::::::::::::::::::::::::",
"::::::::::::::::::::::::::::::::::::::::::::::::::::::::::::::::::::::::::::::::::::",
"::::::::::::::::::::::::::::::::::::::::::::::::::::::::::::::::::::::::::::::::::::"
};
